<?xml version="1.0" encoding="iso-8859-1"?>
<!-- Generator: Adobe Illustrator 16.0.0, SVG Export Plug-In . SVG Version: 6.00 Build 0)  -->
<!DOCTYPE svg PUBLIC "-//W3C//DTD SVG 1.1//EN" "http://www.w3.org/Graphics/SVG/1.1/DTD/svg11.dtd">
<svg version="1.1" id="Capa_1" xmlns="http://www.w3.org/2000/svg" xmlns:xlink="http://www.w3.org/1999/xlink" x="0px" y="0px"
	 width="340.858px" height="340.858px" viewBox="0 0 340.858 340.858" style="enable-background:new 0 0 340.858 340.858;"
	 xml:space="preserve">
<g>
	<path d="M338.661,78.377L262.48,2.197c-2.928-2.93-7.678-2.928-10.605,0l-14.736,14.734c-1.407,1.407-2.197,3.314-2.197,5.303
		c0,1.989,0.79,3.897,2.197,5.304l34.058,34.059l-9.784,9.785l-34.059-34.058c-2.928-2.93-7.678-2.928-10.606,0l-12.911,12.91
		c-1.406,1.407-2.197,3.314-2.197,5.304c0,1.989,0.79,3.896,2.197,5.303l20.426,20.427l-9.784,9.785l-20.426-20.426
		c-2.929-2.929-7.678-2.929-10.606,0l-12.912,12.91c-1.407,1.406-2.197,3.314-2.197,5.303c0,1.989,0.79,3.897,2.197,5.304
		l34.06,34.059l-9.785,9.785l-34.06-34.059c-2.928-2.929-7.677-2.929-10.606,0l-12.911,12.911c-1.407,1.406-2.197,3.314-2.197,5.303
		c0,1.989,0.79,3.897,2.197,5.303l20.426,20.426l-9.785,9.785l-20.426-20.425c-2.929-2.93-7.677-2.928-10.606,0l-12.911,12.91
		c-1.407,1.407-2.197,3.314-2.197,5.304c0,1.989,0.79,3.897,2.197,5.303l34.059,34.059l-9.785,9.785l-34.059-34.057
		c-2.929-2.929-7.678-2.929-10.606,0l-12.91,12.911c-2.929,2.929-2.929,7.677,0,10.605l20.426,20.427l-9.785,9.784l-20.427-20.426
		c-1.407-1.407-3.314-2.197-5.304-2.197c-1.99,0-3.897,0.791-5.303,2.197l-12.91,12.912c-2.929,2.929-2.928,7.677,0,10.605
		l34.058,34.059l-9.785,9.785L27.539,237.14c-1.407-1.407-3.314-2.196-5.304-2.196c-1.99,0-3.896,0.79-5.303,2.196L2.198,251.876
		c-2.929,2.929-2.928,7.677,0,10.605l76.18,76.18c1.464,1.465,3.384,2.197,5.303,2.197s3.839-0.731,5.303-2.197L338.663,88.983
		C341.59,86.054,341.59,81.305,338.661,78.377z"/>
</g>
<g>
</g>
<g>
</g>
<g>
</g>
<g>
</g>
<g>
</g>
<g>
</g>
<g>
</g>
<g>
</g>
<g>
</g>
<g>
</g>
<g>
</g>
<g>
</g>
<g>
</g>
<g>
</g>
<g>
</g>
</svg>
