<?xml version="1.0" encoding="iso-8859-1"?>
<!-- Generator: Adobe Illustrator 16.0.0, SVG Export Plug-In . SVG Version: 6.00 Build 0)  -->
<!DOCTYPE svg PUBLIC "-//W3C//DTD SVG 1.1//EN" "http://www.w3.org/Graphics/SVG/1.1/DTD/svg11.dtd">
<svg version="1.1" id="Capa_1" xmlns="http://www.w3.org/2000/svg" xmlns:xlink="http://www.w3.org/1999/xlink" x="0px" y="0px"
	 width="339.5px" height="339.499px" viewBox="0 0 339.5 339.499" style="enable-background:new 0 0 339.5 339.499;"
	 xml:space="preserve">
<g>
	<g>
		<path d="M335.664,216.47l-62.016-37.332c0.09-0.259,0.143-0.532,0.143-0.819v-15.284c0-1.381-1.119-2.5-2.5-2.5h-15.166
			c-1.381,0-2.5,1.119-2.5,2.5v2.083h-67.863c2.943-2.354,5.736-4.938,8.314-7.695c34.682-37.088,35.498-106.614,34.857-127.922
			h1.84c1.381,0,2.5-1.119,2.5-2.5V2.5c0-1.381-1.119-2.5-2.5-2.5h-24.5c-1.382,0-2.5,1.119-2.5,2.5v24.499
			c0,1.381,1.118,2.5,2.5,2.5h1.637c0.584,19.382,0.033,82.347-29.172,113.578c-10.723,11.465-23.98,17.039-40.529,17.039
			c-10.131,0-19.678,1.682-28.381,5H22.791v-2.083c0-1.381-1.119-2.5-2.5-2.5H5.125c-1.381,0-2.5,1.119-2.5,2.5v15.166
			c0,1.381,1.119,2.5,2.5,2.5h15.166c1.381,0,2.5-1.119,2.5-2.5v-2.083h67.863c-2.939,2.35-5.73,4.934-8.313,7.695
			c-34.102,36.465-35.381,105.137-34.906,126.188h-1.791c-1.381,0-2.5,1.119-2.5,2.5v24.5c0,1.381,1.119,2.5,2.5,2.5h24.5
			c1.381,0,2.5-1.119,2.5-2.5v-24.5c0-1.381-1.119-2.5-2.5-2.5h-1.682c-0.426-19.134,0.578-81.219,29.217-111.844
			c10.721-11.465,23.979-17.039,40.529-17.039c10.131,0,19.678-1.683,28.379-5h87.037v2.083c0,1.381,1.119,2.5,2.5,2.5h13.605
			c-0.074,0.396-0.062,0.814,0.063,1.219l21.627,69.296c0.316,1.014,1.236,1.715,2.297,1.754c0.031,0.002,0.062,0.002,0.092,0.002
			c1.023,0,1.947-0.627,2.324-1.586l10.406-26.46l28.172-3.836c1.051-0.144,1.896-0.934,2.111-1.972
			C337.039,218.078,336.574,217.017,335.664,216.47z M9.625,173.699v-6.166h6.166v6.166H9.625z M266.791,167.533v6.166h-6.166
			v-6.166H266.791z"/>
	</g>
</g>
<g>
</g>
<g>
</g>
<g>
</g>
<g>
</g>
<g>
</g>
<g>
</g>
<g>
</g>
<g>
</g>
<g>
</g>
<g>
</g>
<g>
</g>
<g>
</g>
<g>
</g>
<g>
</g>
<g>
</g>
</svg>
