<?xml version="1.0" encoding="iso-8859-1"?>
<!-- Generator: Adobe Illustrator 16.0.0, SVG Export Plug-In . SVG Version: 6.00 Build 0)  -->
<!DOCTYPE svg PUBLIC "-//W3C//DTD SVG 1.1//EN" "http://www.w3.org/Graphics/SVG/1.1/DTD/svg11.dtd">
<svg version="1.1" id="Capa_1" xmlns="http://www.w3.org/2000/svg" xmlns:xlink="http://www.w3.org/1999/xlink" x="0px" y="0px"
	 width="424px" height="424px" viewBox="0 0 424 424" style="enable-background:new 0 0 424 424;" xml:space="preserve">
<g>
	<g>
		<path d="M421.5,253.03h-15.167c-1.381,0-2.5,1.119-2.5,2.5v2.083h-52.586c5.4-3.911,10.685-8.604,15.726-13.962
			c14.066-14.956,25.526-34.189,35.171-51.087h8.54c1.383,0,2.5-1.119,2.5-2.5v-24.5c0-1.381-1.117-2.5-2.5-2.5h-24.5
			c-1.381,0-2.5,1.119-2.5,2.5v16.983c-19.001,33.275-38.72,63.576-70.599,69.134v-2.808c0-1.104-0.896-2-2-2h-25.5
			c-1.104,0-2,0.896-2,2v0.94c-27.375-8.643-45.562-36.988-61.834-65.342v-17.009c0-1.381-1.119-2.5-2.5-2.5h-8.559
			c-10.521-18.509-21.989-37.821-36.253-52.987c-15.133-16.092-31.522-25.487-50.066-28.711l-0.005-2.064c0-1.104-0.896-2-2-2h-25.5
			c-1.104,0-2,0.896-2,2v2.067c-18.539,3.227-34.912,12.622-50.041,28.709c-14.266,15.167-25.734,34.479-36.254,52.987H2.5
			c-1.381,0-2.5,1.119-2.5,2.5v24.5c0,1.381,1.119,2.5,2.5,2.5H27c1.381,0,2.5-1.119,2.5-2.5v-21.299
			c16.933-29.457,35.93-58.759,65.367-65.92v1.955c0,1.104,0.896,2,2,2h25.52c1.104,0,2-0.896,2-2c0,0-0.004-1.885-0.004-1.937
			v-0.022c29.901,7.252,48.445,36.113,67.868,70.271v16.951c0,1.381,1.119,2.5,2.5,2.5h8.524
			c9.905,17.27,20.89,35.159,34.083,49.188c5.041,5.36,10.323,10.052,15.725,13.962h-53.748v-2.083c0-1.381-1.119-2.5-2.5-2.5
			h-15.167c-1.381,0-2.5,1.119-2.5,2.5v15.167c0,1.381,1.119,2.5,2.5,2.5h15.167c0.12,0,0.235-0.021,0.35-0.035
			c0.013,0.195,0.042,0.392,0.102,0.584l21.628,69.3c0.316,1.013,1.236,1.715,2.296,1.754c0.03,0,0.062,0,0.091,0
			c1.024,0,1.949-0.625,2.326-1.584l10.405-26.461l28.173-3.836c1.051-0.144,1.896-0.934,2.111-1.973
			c0.214-1.039-0.251-2.1-1.159-2.646l-62.195-37.438c-0.5-0.301-1.075-0.403-1.628-0.328v-1.918h74.137
			c3.288,1.216,6.688,2.221,10.113,2.99l-0.009,2.771c0,1.104,0.896,2,2,2h25.51c1.104,0,2-0.896,2-2v-1.44
			c6.123-0.771,12.099-2.224,17.773-4.32h72.976v2.084c0,1.381,1.119,2.5,2.5,2.5H421.5c1.381,0,2.5-1.119,2.5-2.5v-15.167
			C424,254.149,422.881,253.03,421.5,253.03z M192.333,266.197h-6.167v-6.167h6.167V266.197L192.333,266.197z M417,266.197h-6.167
			v-6.167H417V266.197z"/>
	</g>
</g>
<g>
</g>
<g>
</g>
<g>
</g>
<g>
</g>
<g>
</g>
<g>
</g>
<g>
</g>
<g>
</g>
<g>
</g>
<g>
</g>
<g>
</g>
<g>
</g>
<g>
</g>
<g>
</g>
<g>
</g>
</svg>
