<?xml version="1.0" encoding="iso-8859-1"?>
<!-- Generator: Adobe Illustrator 16.0.0, SVG Export Plug-In . SVG Version: 6.00 Build 0)  -->
<!DOCTYPE svg PUBLIC "-//W3C//DTD SVG 1.1//EN" "http://www.w3.org/Graphics/SVG/1.1/DTD/svg11.dtd">
<svg version="1.1" id="Capa_1" xmlns="http://www.w3.org/2000/svg" xmlns:xlink="http://www.w3.org/1999/xlink" x="0px" y="0px"
	 width="394.615px" height="394.615px" viewBox="0 0 394.615 394.615" style="enable-background:new 0 0 394.615 394.615;"
	 xml:space="preserve">
<g>
	<g>
		<path d="M391.688,225.455l-21.071-21.071l5.656-5.656c1.875-1.875,2.93-4.418,2.93-7.07c0-2.651-1.055-5.195-2.93-7.071
			L202.324,10.636c-3.905-3.904-10.238-3.904-14.142,0l-32.527,32.527c-3.905,3.905-3.905,10.237,0,14.143l173.948,173.948
			c1.875,1.875,4.419,2.929,7.07,2.929c2.652,0,5.197-1.054,7.072-2.929l5.654-5.655l6.93,6.929l-37.76,37.76l-104.511-104.51
			c-3.902-3.904-10.234-3.903-14.142,0l-65.471,65.471l-3.535-3.536c-3.906-3.903-10.237-3.903-14.143,0L2.929,341.554
			C1.054,343.429,0,345.972,0,348.624s1.054,5.195,2.929,7.07l28.285,28.283c1.953,1.952,4.512,2.93,7.071,2.93
			s5.119-0.978,7.071-2.93l113.843-113.841c1.875-1.875,2.929-4.418,2.929-7.069c0-2.652-1.054-5.196-2.929-7.071l-3.537-3.536
			l51.329-51.328l104.511,104.512c1.875,1.875,4.418,2.93,7.07,2.93c2.651,0,5.194-1.055,7.069-2.93l66.043-66.045
			C395.592,235.692,395.592,229.361,391.688,225.455z"/>
	</g>
</g>
<g>
</g>
<g>
</g>
<g>
</g>
<g>
</g>
<g>
</g>
<g>
</g>
<g>
</g>
<g>
</g>
<g>
</g>
<g>
</g>
<g>
</g>
<g>
</g>
<g>
</g>
<g>
</g>
<g>
</g>
</svg>
