<?xml version="1.0" encoding="UTF-8"?>
<svg width="743px" height="515px" viewBox="0 0 743 515" version="1.1" xmlns="http://www.w3.org/2000/svg" xmlns:xlink="http://www.w3.org/1999/xlink">
    <!-- Generator: Sketch 47.1 (45422) - http://www.bohemiancoding.com/sketch -->
    <title>Artboard</title>
    <desc>Created with Sketch.</desc>
    <defs>
        <linearGradient x1="0%" y1="38.9838346%" x2="100%" y2="61.0161654%" id="linearGradient-1">
            <stop stop-color="#A7C6E0" offset="0%"></stop>
            <stop stop-color="#4775B7" offset="100%"></stop>
        </linearGradient>
        <linearGradient x1="61.2377483%" y1="100%" x2="38.7622517%" y2="0%" id="linearGradient-2">
            <stop stop-color="#F9933E" offset="0%"></stop>
            <stop stop-color="#F36784" offset="100%"></stop>
        </linearGradient>
        <linearGradient x1="85.1020408%" y1="100%" x2="14.8979592%" y2="0%" id="linearGradient-3">
            <stop stop-color="#F56829" offset="30%"></stop>
            <stop stop-color="#F56829" offset="30.4%"></stop>
            <stop stop-color="#F6712D" stop-opacity="0" offset="63.5%"></stop>
            <stop stop-color="#F7752F" offset="76.7%"></stop>
        </linearGradient>
        <linearGradient x1="58.0534884%" y1="100%" x2="41.9465116%" y2="0%" id="linearGradient-4">
            <stop stop-color="#F9933E" offset="0%"></stop>
            <stop stop-color="#F9933E" offset="100%"></stop>
        </linearGradient>
        <linearGradient x1="58801.9565%" y1="92700%" x2="57375.4402%" y2="81000%" id="linearGradient-5">
            <stop stop-color="#F9933E" offset="0%"></stop>
            <stop stop-color="#F9933E" offset="100%"></stop>
        </linearGradient>
        <linearGradient x1="70.0746032%" y1="100%" x2="29.9253968%" y2="0%" id="linearGradient-6">
            <stop stop-color="#181C39" offset="0%"></stop>
            <stop stop-color="#1E3367" offset="100%"></stop>
        </linearGradient>
        <linearGradient x1="0%" y1="66.3253333%" x2="100%" y2="33.6746667%" id="linearGradient-7">
            <stop stop-color="#F46482" offset="41.3%"></stop>
            <stop stop-color="#DC5F81" offset="60.4%"></stop>
            <stop stop-color="#AB547E" offset="100%"></stop>
        </linearGradient>
        <linearGradient x1="62.8883495%" y1="100%" x2="37.1116505%" y2="0%" id="linearGradient-8">
            <stop stop-color="#EF657F" offset="0%"></stop>
            <stop stop-color="#F1687F" offset="100%"></stop>
        </linearGradient>
        <linearGradient x1="50%" y1="100%" x2="50%" y2="-0.0340202543%" id="linearGradient-9">
            <stop stop-color="#0A1D4C" offset="0%"></stop>
            <stop stop-color="#354B96" offset="100%"></stop>
        </linearGradient>
        <linearGradient x1="37.6435484%" y1="100%" x2="62.3564516%" y2="0%" id="linearGradient-10">
            <stop stop-color="#2A4085" offset="0%"></stop>
            <stop stop-color="#B7567C" offset="100%"></stop>
        </linearGradient>
    </defs>
    <g id="Page-1" stroke="none" stroke-width="1" fill="none" fill-rule="evenodd">
        <g id="Artboard">
            <g id="Group" transform="translate(208.000000, 117.000000)">
                <path d="M397.303142,265 L401,263.865052 L400.696858,263 L397,264.134948 L397.303142,265 Z M405.303142,262 L409,260.865052 L408.696858,260 L405,261.134948 L405.303142,262 Z M412.303142,260 L416,258.865052 L415.696858,258 L412,259.134948 L412.303142,260 Z M420.303142,257 L424,255.865052 L423.696858,255 L420,256.134948 L420.303142,257 Z M427.303142,255 L431,253.865052 L430.696858,253 L427,254.134948 L427.303142,255 Z M435.303142,252 L439,250.865052 L438.696858,250 L435,251.134948 L435.303142,252 Z M442.303142,250 L446,248.865052 L445.696858,248 L442,249.134948 L442.303142,250 Z M450.303142,247 L454,245.865052 L453.696858,245 L450,246.134948 L450.303142,247 Z M458.303142,245 L462,243.865052 L461.696858,243 L458,244.134948 L458.303142,245 Z M465.303142,242 L469,240.865052 L468.696858,240 L465,241.134948 L465.303142,242 Z M473.303142,240 L477,238.865052 L476.696858,238 L473,239.134948 L473.303142,240 Z M480.303142,237 L484,235.865052 L483.696858,235 L480,236.134948 L480.303142,237 Z M488.303142,235 L492,233.865052 L491.696858,233 L488,234.134948 L488.303142,235 Z M496.303142,232 L500,230.865052 L499.696858,230 L496,231.134948 L496.303142,232 Z M503.303142,230 L507,228.865052 L506.696858,228 L503,229.134948 L503.303142,230 Z M511.303142,227 L515,225.865052 L514.696858,225 L511,226.134948 L511.303142,227 Z M518.338121,225 L522,223.923726 L521.661879,223 L518,224.076274 L518.338121,225 Z" id="Фигура_10" fill="#828282" fill-rule="nonzero"></path>
                <path d="M414,147.026316 L417.570815,149 L418,147.973684 L414.429185,146 L414,147.026316 Z M421,150.026316 L424.570815,152 L425,150.973684 L421.429185,149 L421,150.026316 Z M428,154.026316 L431.570815,156 L432,154.973684 L428.429185,153 L428,154.026316 Z M436,157.026316 L439.570815,159 L440,157.973684 L436.429185,156 L436,157.026316 Z M443,161.026316 L446.570815,163 L447,161.973684 L443.429185,160 L443,161.026316 Z M450,164.026316 L453.570815,166 L454,164.973684 L450.429185,163 L450,164.026316 Z M457,168.026316 L460.570815,170 L461,168.973684 L457.429185,167 L457,168.026316 Z M464,171.026316 L467.570815,173 L468,171.973684 L464.429185,170 L464,171.026316 Z M471,175.026316 L474.570815,177 L475,175.973684 L471.429185,174 L471,175.026316 Z M479,178.026316 L482.570815,180 L483,178.973684 L479.429185,177 L479,178.026316 Z M486,182.026316 L489.570815,184 L490,182.973684 L486.429185,181 L486,182.026316 Z M493,185.026316 L496.570815,187 L497,185.973684 L493.429185,184 L493,185.026316 Z M500,189.026316 L503.570815,191 L504,189.973684 L500.429185,188 L500,189.026316 Z M507,192.026316 L510.570815,194 L511,192.973684 L507.429185,191 L507,192.026316 Z M515,195.759821 L517.627863,197 L518,196.240179 L515.372137,195 L515,195.759821 Z" id="Фигура_11" fill="#828282" fill-rule="nonzero"></path>
                <path d="M397,155 L397,151 L396,151 L396,155 L397,155 Z M397,147 L397,143 L396,143 L396,147 L397,147 Z M397,139 L397,135 L396,135 L396,139 L397,139 Z M397,131 L397,127 L396,127 L396,131 L397,131 Z M397,123 L397,119 L396,119 L396,123 L397,123 Z M397,115 L397,111 L396,111 L396,115 L397,115 Z M397,107 L397,103 L396,103 L396,107 L397,107 Z M397,99 L397,95 L396,95 L396,99 L397,99 Z M397,91 L397,87 L396,87 L396,91 L397,91 Z M397,83 L397,79 L396,79 L396,83 L397,83 Z M397,75 L397,71 L396,71 L396,75 L397,75 Z M397,67 L397,63 L396,63 L396,67 L397,67 Z M397,59 L397,55 L396,55 L396,59 L397,59 Z M397,51 L397,47 L396,47 L396,51 L397,51 Z M397,43 L397,39 L396,39 L396,43 L397,43 Z M397,35 L397,31 L396,31 L396,35 L397,35 Z M397,27 L397,23 L396,23 L396,27 L397,27 Z M397,19 L397,15 L396,15 L396,19 L397,19 Z M397,11 L397,7 L396,7 L396,11 L397,11 Z M397,3 L397,0 L396,0 L396,3 L397,3 Z" id="Фигура_12" fill="#828282" fill-rule="nonzero"></path>
                <path d="M383,40 L387,40 L387,39 L383,39 L383,40 Z M391,40 L395,40 L395,39 L391,39 L391,40 Z M399,40 L403,40 L403,39 L399,39 L399,40 Z M407,40 L411,40 L411,39 L407,39 L407,40 Z M415,40 L419,40 L419,39 L415,39 L415,40 Z M423,40 L427,40 L427,39 L423,39 L423,40 Z M431,40 L435,40 L435,39 L431,39 L431,40 Z M439,40 L443,40 L443,39 L439,39 L439,40 Z M447,40 L451,40 L451,39 L447,39 L447,40 Z M455,40 L459,40 L459,39 L455,39 L455,40 Z M463,40 L467,40 L467,39 L463,39 L463,40 Z M471,40 L475,40 L475,39 L471,39 L471,40 Z" id="Фигура_15" fill="#828282" fill-rule="nonzero"></path>
                <path d="M440.67893,281 L441,277.114833 L440.32107,277 L440,280.885167 L440.67893,281 Z M441.67893,273 L442,269.114833 L441.32107,269 L441,272.885167 L441.67893,273 Z M442.67893,265 L443,261.114833 L442.32107,261 L442,264.885167 L442.67893,265 Z M443.67893,257 L444,253.114833 L443.32107,253 L443,256.885167 L443.67893,257 Z M444.67893,249 L445,245.114833 L444.32107,245 L444,248.885167 L444.67893,249 Z M445.67893,241 L446,237.114833 L445.32107,237 L445,240.885167 L445.67893,241 Z M446.67893,233 L447,229.114833 L446.32107,229 L446,232.885167 L446.67893,233 Z M447.67893,225 L448,221.114833 L447.32107,221 L447,224.885167 L447.67893,225 Z M448.67893,217 L449,213.114833 L448.32107,213 L448,216.885167 L448.67893,217 Z M448.67893,209 L449,205.114833 L448.32107,205 L448,208.885167 L448.67893,209 Z M449.67893,201 L450,197.114833 L449.32107,197 L449,200.885167 L449.67893,201 Z M450.67893,193 L451,189.114833 L450.32107,189 L450,192.885167 L450.67893,193 Z M451.67893,185 L452,181.114833 L451.32107,181 L451,184.885167 L451.67893,185 Z M452.67893,177 L453,173.114833 L452.32107,173 L452,176.885167 L452.67893,177 Z M453.67893,170 L454,166.114833 L453.32107,166 L453,169.885167 L453.67893,170 Z M454.67893,162 L455,158.114833 L454.32107,158 L454,161.885167 L454.67893,162 Z M455.67893,154 L456,150.114833 L455.32107,150 L455,153.885167 L455.67893,154 Z M456.67893,146 L457,142.114833 L456.32107,142 L456,145.885167 L456.67893,146 Z M457.67893,138 L458,134.114833 L457.32107,134 L457,137.885167 L457.67893,138 Z M458.67893,130 L459,126.114833 L458.32107,126 L458,129.885167 L458.67893,130 Z M459.67893,122 L460,118.114833 L459.32107,118 L459,121.885167 L459.67893,122 Z M460.67893,114 L461,110.114833 L460.32107,110 L460,113.885167 L460.67893,114 Z M461.67893,106 L462,102.114833 L461.32107,102 L461,105.885167 L461.67893,106 Z M462.67893,98 L463,94.1148325 L462.32107,94 L462,97.8851675 L462.67893,98 Z M463.67893,90 L464,86.1148325 L463.32107,86 L463,89.8851675 L463.67893,90 Z M464.67893,82 L465,78.1148325 L464.32107,78 L464,81.8851675 L464.67893,82 Z" id="Фигура_13" fill="#828282" fill-rule="nonzero"></path>
                <path d="M468.03321,199 L467,202.749553 L467.96679,203 L469,199.250447 L468.03321,199 Z M466.03321,207 L465,210.749553 L465.96679,211 L467,207.250447 L466.03321,207 Z M464.03321,214 L463,217.749553 L463.96679,218 L465,214.250447 L464.03321,214 Z M462.03321,222 L461,225.749553 L461.96679,226 L463,222.250447 L462.03321,222 Z M460.03321,230 L459,233.749553 L459.96679,234 L461,230.250447 L460.03321,230 Z M458.03321,238 L457,241.749553 L457.96679,242 L459,238.250447 L458.03321,238 Z M456.03321,245 L455,248.749553 L455.96679,249 L457,245.250447 L456.03321,245 Z M454.03321,253 L453,256.749553 L453.96679,257 L455,253.250447 L454.03321,253 Z M452.03321,261 L451,264.749553 L451.96679,265 L453,261.250447 L452.03321,261 Z M449.03321,269 L448,272.749553 L448.96679,273 L450,269.250447 L449.03321,269 Z M447.03321,276 L446,279.749553 L446.96679,280 L448,276.250447 L447.03321,276 Z M445.03321,284 L444,287.749553 L444.96679,288 L446,284.250447 L445.03321,284 Z M443.03321,292 L442,295.749553 L442.96679,296 L444,292.250447 L443.03321,292 Z M441.03321,300 L440,303.749553 L440.96679,304 L442,300.250447 L441.03321,300 Z M439.03321,307 L438,310.749553 L438.96679,311 L440,307.250447 L439.03321,307 Z M437.03321,315 L436,318.749553 L436.96679,319 L438,315.250447 L437.03321,315 Z M435.03321,323 L434,326.749553 L434.96679,327 L436,323.250447 L435.03321,323 Z" id="Фигура_14" fill="#828282" fill-rule="nonzero"></path>
                <rect id="Прямоугольник_1" fill="url(#linearGradient-1)" fill-rule="nonzero" x="0" y="39" width="397" height="266"></rect>
                <polygon id="Прямоугольник_1_копия" fill="url(#linearGradient-2)" points="88 211 146 120 239 267 143 262"></polygon>
                <path d="M442.256637,61 L441,64.6177658 L441.743363,65 L443,61.3822342 L442.256637,61 Z M438.256637,68 L437,71.6177658 L437.743363,72 L439,68.3822342 L438.256637,68 Z M435.256637,76 L434,79.6177658 L434.743363,80 L436,76.3822342 L435.256637,76 Z M432.256637,83 L431,86.6177658 L431.743363,87 L433,83.3822342 L432.256637,83 Z M429.256637,90 L428,93.6177658 L428.743363,94 L430,90.3822342 L429.256637,90 Z M426.256637,98 L425,101.617766 L425.743363,102 L427,98.3822342 L426.256637,98 Z M423.256637,105 L422,108.617766 L422.743363,109 L424,105.382234 L423.256637,105 Z M420.256637,113 L419,116.617766 L419.743363,117 L421,113.382234 L420.256637,113 Z M417.256637,120 L416,123.617766 L416.743363,124 L418,120.382234 L417.256637,120 Z M413.256637,127 L412,130.617766 L412.743363,131 L414,127.382234 L413.256637,127 Z M410.256637,135 L409,138.617766 L409.743363,139 L411,135.382234 L410.256637,135 Z M407.256637,142 L406,145.617766 L406.743363,146 L408,142.382234 L407.256637,142 Z M404.256637,149 L403,152.617766 L403.743363,153 L405,149.382234 L404.256637,149 Z M401.256637,157 L400,160.617766 L400.743363,161 L402,157.382234 L401.256637,157 Z M398.256637,164 L397,167.617766 L397.743363,168 L399,164.382234 L398.256637,164 Z M395.256637,171 L394,174.617766 L394.743363,175 L396,171.382234 L395.256637,171 Z M392.256637,179 L391,182.617766 L391.743363,183 L393,179.382234 L392.256637,179 Z M389.256637,186 L388,189.617766 L388.743363,190 L390,186.382234 L389.256637,186 Z M385.256637,193 L384,196.617766 L384.743363,197 L386,193.382234 L385.256637,193 Z M382.256637,201 L381,204.617766 L381.743363,205 L383,201.382234 L382.256637,201 Z M379.256637,208 L378,211.617766 L378.743363,212 L380,208.382234 L379.256637,208 Z M376.256637,216 L375,219.617766 L375.743363,220 L377,216.382234 L376.256637,216 Z M373.256637,223 L372,226.617766 L372.743363,227 L374,223.382234 L373.256637,223 Z" id="Фигура_14_копия" fill="#828282" fill-rule="nonzero"></path>
                <polygon id="Фигура_2" fill="url(#linearGradient-3)" points="191 191 197 201 159 242 148 232"></polygon>
                <polygon id="Прямоугольник_1_копия_2" fill="url(#linearGradient-4)" points="140 257 216 175 312 295 218 281"></polygon>
                <polygon id="Прямоугольник_1_копия_3" fill="url(#linearGradient-5)" points="2 255 66 184 163 301 68 299"></polygon>
                <path d="M156,244 L408,142 L345,292 C345,292 301.71,285.1 258,274 C207.68,261.219 156,244 156,244 Z" id="Фигура_4" fill="url(#linearGradient-6)"></path>
                <polygon id="Фигура_5" fill="url(#linearGradient-7)" points="344 292 407 142 454 165 440 281"></polygon>
                <polygon id="Фигура_1" fill="url(#linearGradient-8)" points="0 200 217 305 410 304 0 182"></polygon>
                <polygon id="Фигура_6" fill="#162039" points="0 200 217 305 0 305"></polygon>
                <path d="M0,252.951866 C0,252.951866 34.23,240.58543 244,305 C2.95,303.898982 1,305 1,305 L0,252.951866 Z" id="Фигура_7" fill="url(#linearGradient-9)"></path>
                <polygon id="Фигура_8" fill="url(#linearGradient-10)" points="271 305 336 284 457 244 441 305"></polygon>
            </g>
            <g id="001-move-selection-cursor" transform="translate(23.000000, 24.000000)" fill-rule="nonzero" fill="#1F1F22">
                <path d="M18.9991778,7.67810652 C18.9836,7.29837985 18.7456055,6.96346266 18.3921235,6.82355324 L1.31536709,0.0675147838 C0.958711856,-0.0736446875 0.552630689,0.0106855961 0.281653486,0.28175409 C0.0106762824,0.552822585 -0.0735593564,0.958992616 0.0674103314,1.31544913 L6.82347397,18.3920912 C6.96328974,18.7456629 7.29830911,18.9833647 7.6780426,18.9991346 C7.69140876,18.9997115 7.7045826,19 7.71785259,19 C8.0823929,19 8.41702763,18.7933572 8.57963318,18.464594 L11.8500145,11.8499074 L18.4645315,8.57996938 C18.8053205,8.41130882 19.0148518,8.05792935 18.9991778,7.67810652 Z" id="Shape"></path>
                <path d="M33.5871862,22.7162846 L30.3249691,20.4793648 C30.0339848,20.279706 29.6567126,20.2578491 29.3447265,20.4221566 C29.0327404,20.5864641 28.8373571,20.9103275 28.8373571,21.2630803 L28.8373571,21.9748577 L25.0251967,21.9748577 L25.0251967,18.1628096 L25.7370724,18.1628096 C25.7378327,18.1629047 25.7384028,18.1629047 25.738973,18.1628096 C26.2638281,18.1628096 26.689281,17.7372637 26.689281,17.212506 C26.689281,16.9929859 26.6150619,16.7910463 26.4900964,16.63035 L24.2836714,13.4129069 C24.1066291,13.1545194 23.813364,13 23.5000475,13 C23.186636,13 22.8933709,13.1545194 22.7163286,13.4129069 L20.4793037,16.6751093 C20.279644,16.9659972 20.2578819,17.3433628 20.4220951,17.6554425 C20.5864984,17.9673322 20.9102683,18.1628096 21.2630226,18.1628096 L21.9748033,18.1628096 L21.9748033,21.9748577 L18.162833,21.9748577 L18.162833,21.2629852 C18.162833,20.9103275 17.9673547,20.5866541 17.6554636,20.4220615 C17.3433825,20.257754 16.9659201,20.279706 16.6751259,20.4792698 L13.4129088,22.7162846 C13.154425,22.8935162 13,23.1866849 13,23.5 C13,23.8134101 13.154425,24.1065788 13.4129088,24.2837154 L16.6751259,26.5207302 C16.9661102,26.7201989 17.3432874,26.7421509 17.6554636,26.5778434 C17.9673547,26.4135359 18.162833,26.0897675 18.162833,25.7370148 L18.162833,25.0251423 L21.9748033,25.0251423 L21.9748033,28.8372854 L21.2630226,28.8372854 C20.9102683,28.8372854 20.5866884,29.0326678 20.4220951,29.3447475 C20.2577869,29.6567322 20.279739,30.0341928 20.4793037,30.3248907 L22.7163286,33.5870931 C22.8933709,33.8454806 23.186636,34 23.5000475,34 C23.813364,34 24.1066291,33.8454806 24.2836714,33.5870931 L26.5206963,30.3248907 C26.720261,30.0340028 26.7421181,29.6567322 26.5779049,29.3447475 C26.4135016,29.0326678 26.0898267,28.8372854 25.7370724,28.8372854 L25.0251967,28.8372854 L25.0251967,25.0251423 L28.8373571,25.0251423 L28.8373571,25.7370148 C28.8373571,26.0896725 29.0327404,26.4133459 29.3447265,26.5778434 C29.6566175,26.7421509 30.0341749,26.7201989 30.3249691,26.5207302 L33.5870912,24.2837154 C33.845575,24.1065788 34,23.8134101 34,23.5 C34,23.1867799 33.845575,22.8936112 33.5871862,22.7162846 Z" id="Shape"></path>
            </g>
            <g id="002-paint-bucket" transform="translate(99.000000, 270.000000)" fill-rule="nonzero" fill="#1F1F22">
                <path d="M34.9288796,31.2453439 C34.7477926,30.6226324 34.2523445,30.1654265 33.4562769,29.8860704 C33.0075124,29.7288258 32.4999229,29.6301681 31.9610854,29.5253383 C31.5254977,29.440544 31.0752273,29.3531859 30.7100414,29.2398102 C30.665052,29.2259468 30.6237333,29.2119885 30.585897,29.1987899 C30.679923,29.1018413 30.7773373,29.0043231 30.8592217,28.9224723 C31.2454905,28.5368621 31.6452185,28.1380533 31.9200491,27.6820818 C32.4303681,26.8352777 32.3712607,25.9378628 31.7621156,25.2814425 C31.7621156,25.2814425 31.1829948,24.621129 30.0705896,24.621129 C29.7583933,24.621129 29.4338673,24.6772471 29.1068001,24.7877741 C29.1163062,24.1895608 29.1112237,23.6119527 29.0917409,23.070902 C28.9906559,20.254362 28.5289969,18.4991283 27.6390916,17.5466398 C27.6412564,15.3919326 26.7900344,12.219788 25.3619506,9.06122191 C23.1912593,4.26022805 20.3293502,0.775778165 18.5570692,0.775778165 C18.3903825,0.775778165 18.2348962,0.808537464 18.0940926,0.87320147 C18.0764921,0.881177647 18.0597387,0.890008414 18.0402559,0.900358453 L17.1649392,1.30372512 C16.5260521,1.07963253 15.249031,0.658129555 13.8750661,0.353230695 C12.8193212,0.118883019 11.9056036,0 11.1593255,0 C9.88945745,0 9.05969488,0.328447573 8.62250713,1.00414371 C8.39567776,1.35471568 8.17355438,1.94894086 8.40396032,2.78795872 C8.45036152,2.95688275 8.51473965,3.13302332 8.59540055,3.3112529 C9.48370581,5.27586125 13.5515754,8.5300465 18.0573857,10.8805499 C18.1563059,10.9322051 18.2702853,10.9466382 18.3786175,10.9216652 C18.4693493,10.9005853 18.562434,10.8900453 18.655707,10.8900453 C19.1427784,10.8900453 19.5879664,11.178612 19.7899481,11.625183 C19.9283046,11.9310314 19.9402578,12.2726776 19.8235489,12.5876417 C19.7070283,12.9024158 19.4759635,13.1526209 19.1728027,13.292109 C19.0088456,13.3675978 18.8349117,13.4057695 18.6559894,13.4058645 C18.1685415,13.4058645 17.7229771,13.116823 17.5207131,12.6694924 C17.4772296,12.5731136 17.4460758,12.4720821 17.4280989,12.3691514 C17.4026865,12.2233013 17.31139,12.0978664 17.1811278,12.0297841 C13.5931765,10.154338 10.2975621,7.79139554 8.36518285,5.70885371 C8.22701458,5.56006003 8.01016193,5.51676079 7.82625131,5.60136523 L0.275280119,9.07631967 C0.0871340908,9.16291816 -0.0228922758,9.36317718 0.00402606538,9.57008301 C0.142288454,10.6328136 0.764986865,14.4800846 2.9735144,19.3642586 C5.1818537,24.2485275 7.65354097,27.2449114 8.35850033,28.046897 C8.49572739,28.2031921 8.71785077,28.2506693 8.90590268,28.1637859 L24.6412732,20.9220819 C24.6606619,21.0686917 24.6807095,21.2180551 24.7018865,21.3737804 C24.8372311,22.3764049 24.9908351,23.5125353 24.9945999,24.445748 C24.9972353,25.1034978 24.9245746,25.4686927 24.86302,25.6595512 L24.86302,25.6595512 C24.6776035,25.639231 24.4481388,25.6007744 24.225733,25.5630775 C23.7746155,25.4872088 23.3083447,25.4086815 22.8598625,25.4086815 C21.7681638,25.4086815 21.2534211,25.9158334 21.013509,26.3411345 C20.4501063,27.3411003 21.0104031,28.568482 21.5612878,29.5261929 C21.2515387,29.6131712 20.8280925,29.6877105 20.5470499,29.7370868 C20.1254861,29.8112463 19.6898043,29.8879695 19.3119122,30.0085617 C18.6049763,30.2344585 18.1451998,30.6223475 17.9448181,31.161689 C17.7874494,31.5849961 17.7332362,32.2555647 18.3674173,33.0454911 C19.196521,34.0777413 20.3909047,34.8570328 21.9178147,35.3620008 C23.1794943,35.7794207 24.6727093,36 26.2356672,36 C27.7415884,36 29.2494861,35.8023048 30.596062,35.428279 C31.5982526,35.1497775 32.9827588,34.6356939 33.8869704,33.7677149 C34.2666508,33.4034695 35.2747709,32.4355984 34.9288796,31.2453439 Z M23.3768747,29.7780886 C23.4877563,29.5295697 23.4337493,29.2216428 23.2109346,28.8367577 C22.6732545,27.9074397 22.4888661,27.2766635 22.6628355,26.9618855 C22.7004014,26.8942185 22.8141506,26.6882144 23.3481984,26.6882144 C23.6546522,26.6882144 24.0221864,26.7513765 24.3781545,26.81238 C24.7237036,26.8715065 25.049944,26.9277235 25.315104,26.9277235 C25.4560001,26.9277235 25.5660214,26.9119565 25.6516678,26.8792023 C25.707491,26.8579918 25.7583436,26.8245807 25.8007845,26.7815028 C26.6908004,25.8722691 26.4845224,23.3168795 26.1972817,20.7767876 C26.0964368,19.8860426 26.0061066,19.1753988 26.1018853,19.0331199 C26.1242528,19.0084369 26.1458556,18.9978317 26.1688922,19.0003657 C26.9953424,19.2604283 27.5189712,20.7608328 27.6827127,23.3387469 C27.7520137,24.427894 27.7436976,25.4855069 27.7245801,26.1805714 C27.720183,26.3444362 27.8067854,26.4964757 27.948255,26.5724016 C28.089629,26.6483275 28.2606352,26.6344375 28.3885314,26.5371134 C28.7243305,26.2817434 29.2293197,25.9774767 29.7301986,25.977289 C29.9915351,25.977289 30.2206585,26.0559366 30.4303776,26.2176428 L30.4305688,26.2178305 C30.8069927,26.6314342 30.4821861,27.101912 29.6603241,27.938223 C29.0981736,28.5104359 28.8436238,28.813764 28.8219255,29.0994481 C28.8169549,29.165895 28.8269916,29.2328111 28.8516532,29.2946593 C29.1195852,29.9708596 30.1762103,30.1803363 31.1982326,30.3825863 C32.0522121,30.5518945 32.8586845,30.711536 32.9832351,31.1479456 C33.0631463,31.428374 32.8579197,31.8037802 32.3559894,32.295093 C31.3304303,33.2988352 28.8548076,34 26.3359793,34 C23.5754101,34 21.3461166,33.1800191 20.2197126,31.7499094 C20.0300668,31.5090863 19.9627732,31.3073994 20.0194566,31.1510427 C20.1404705,30.8190898 20.7954365,30.7015877 21.4891156,30.5773283 C22.4635354,30.4026706 23.1692585,30.2431229 23.3768747,29.7780886 Z M21.0367287,10.9343879 C20.1722639,9.06141283 19.5215099,7.14216883 19.2040892,5.5301648 C19.0936257,4.96954329 19.0247942,4.45473345 19,4 L19.0000925,4 C19.331483,4.31702411 19.6800814,4.70582898 20.035526,5.15562464 C21.0589324,6.44914151 22.0988991,8.19300269 22.9632713,10.0657035 C23.8276436,11.9384043 24.4784901,13.8575569 24.7959108,15.4698352 C24.9063743,16.0300909 24.9752058,16.5449008 25,17 C24.6691646,16.6837074 24.3206587,16.2949025 23.9645666,15.8443754 C22.9408826,14.5509499 21.9010084,12.8072716 21.0367287,10.9343879 Z M10.0938179,1.39127737 C10.1696193,1.27357352 10.4622146,1 11.5411855,1 C12.2467606,1 13.1288316,1.11656611 14.1629133,1.34649198 C14.733005,1.47319428 15.3511484,1.63516635 16,1.82775384 L11.3027631,4 C10.7639918,3.41406654 10.3855971,2.88326151 10.178291,2.42247888 C10.1234039,2.30043096 10.0803512,2.18272712 10.050153,2.07215997 C9.97118901,1.78255473 9.98526787,1.55976556 10.0938179,1.39127737 Z" id="Shape"></path>
            </g>
            <g id="003-increase-selection-size" transform="translate(497.000000, 24.000000)" fill-rule="nonzero" fill="#1F1F22">
                <path d="M36.8416188,2.67620941e-14 L6.48915877,2.67620941e-14 C5.84945434,2.67620941e-14 5.33077758,0.532328748 5.33077758,1.18887071 L5.33077758,23.9178911 L1.15838119,23.9178911 C0.518676763,23.9178911 0,24.4502198 0,25.1067618 L0,37.8111293 C0,38.4675761 0.518676763,39 1.15838119,39 L13.5369353,39 C14.1766397,39 14.6953165,38.4675761 14.6953165,37.8111293 L14.6953165,33.5291023 L36.8416188,33.5291023 C37.4812306,33.5291023 38,32.9965834 38,32.3402316 L38,1.18887071 C38,0.532233638 37.4812306,2.67620941e-14 36.8416188,2.67620941e-14 Z M9,30 L9,27 L12,27 L12,30 L9,30 L9,30 Z M6.16325909,32.9658598 L11,32.9658598 L11,35 L3,35 L3,27 L5.03420753,27 L5.03420753,31.8368858 C5.03429784,32.4603504 5.53971121,32.9658598 6.16325909,32.9658598 Z M13.9282483,23.6877135 L9,23.6877135 L9,3 L35,3 L35,30 L15.0785686,30 L15.0785686,24.88209 C15.0785686,24.2224019 14.5635932,23.6877135 13.9282483,23.6877135 Z" id="Shape"></path>
                <path d="M25.8227102,11.896019 C25.8891163,11.9626966 25.97958,12 26.0737379,12 C26.1679859,12 26.2582693,11.9626966 26.3248556,11.896019 L28.7322343,9.48868878 L29.488651,11.2416779 C29.5473984,11.3777362 29.6843553,11.4630654 29.8322147,11.4556768 C29.9802544,11.4483783 30.1081109,11.3498938 30.1530724,11.2087896 L31.9833397,5.46280577 C32.0235257,5.33629862 31.989737,5.19789763 31.8957593,5.10400841 C31.8019618,5.0101192 31.6636534,4.9765101 31.5370583,5.01669685 L25.7912642,6.84681569 C25.6500724,6.89177799 25.5515896,7.01963672 25.5443813,7.16776903 C25.5369928,7.31572113 25.6223206,7.45268045 25.7583765,7.51124857 L27.5113352,8.26767847 L25.1038665,10.6750988 C24.9653778,10.8137701 24.9653778,11.0385817 25.1038665,11.177253 L25.8227102,11.896019 Z" id="Shape"></path>
            </g>
            <g id="004-type-box" transform="translate(428.000000, 32.000000)" fill-rule="nonzero" fill="#1F1F22">
                <path d="M22,6.44277268 L22,4 L0.929635076,4 C0.416197624,4 0,4.42072062 0,4.93952795 L0,17.060472 C0,17.5791854 0.416197624,18 0.929635076,18 L22,18 L22,15.5572273 L2.4170512,15.5572273 L2.4170512,6.44277268 L22,6.44277268 L22,6.44277268 Z" id="Shape"></path>
                <path d="M36.0560107,4 L28,4 L28,6.44277268 L34.5451369,6.44277268 L34.5451369,15.5572273 L28,15.5572273 L28,18 L36.0558219,18 C36.5771026,18 36.9999999,17.5791854 36.9999999,17.060472 L36.9999999,4.93952795 C37.0001888,4.42072062 36.5772914,4 36.0560107,4 Z" id="Shape"></path>
                <path d="M29.0508031,19.5224783 L26.8173429,19.5224783 C26.7719713,19.5224783 26.7339085,19.4842658 26.7339085,19.4387158 L26.7339085,2.56157008 C26.7339085,2.51592475 26.7719713,2.47761698 26.8173429,2.47761698 L29.0508031,2.47761698 C29.5748547,2.47761698 30,2.0508951 30,1.52468737 L30,0.952929609 C30,0.426721879 29.5748547,-3.16344173e-14 29.0508031,-3.16344173e-14 L26.8173429,-3.16344173e-14 C26.3487244,-3.16344173e-14 25.8972864,0.127025517 25.4999525,0.36916493 C25.1024289,0.127025517 24.6510858,-3.16344173e-14 24.1825622,-3.16344173e-14 L21.9491969,-3.16344173e-14 C21.4249554,-3.16344173e-14 21,0.426721879 21,0.952929609 L21,1.52468737 C21,2.0508951 21.4249554,2.47761698 21.9491969,2.47761698 L24.1825622,2.47761698 C24.2278389,2.47761698 24.2659966,2.51602005 24.2659966,2.56157008 L24.2659966,19.4386205 C24.2659966,19.4840752 24.2278389,19.522383 24.1825622,19.522383 L21.9491969,19.522383 C21.4249554,19.522383 21,19.9492002 21,20.4753126 L21,21.0470704 C21,21.5731828 21.4249554,22 21.9491969,22 L24.1825622,22 C24.6510858,22 25.1025238,21.8729745 25.4999525,21.6308351 C25.8972864,21.8729745 26.3487244,22 26.8173429,22 L29.0508031,22 C29.5748547,22 30,21.5731828 30,21.0470704 L30,20.4753126 C30,19.9492002 29.5749496,19.5224783 29.0508031,19.5224783 Z" id="Shape"></path>
            </g>
            <g id="005-paint-brush" transform="translate(369.000000, 24.000000)" fill-rule="nonzero" fill="#1F1F22">
                <path d="M29.6728473,0.323492663 C29.461327,0.112020962 29.1739506,-0.00518135485 28.8765906,0.000175928263 C27.2476887,0.0251765828 24.3215807,1.97156213 22.7224428,3.12967515 C19.9057805,5.16920223 16.6181194,8.04155186 13.4653759,11.2173869 C11.6117046,13.084635 9.81158973,15.0537655 8.25966366,16.9119909 C8.03704022,17.1787272 7.95101389,17.5349395 8.02714999,17.874892 C8.10328609,18.2148445 8.33300063,18.4995324 8.64780846,18.6440851 C9.34684232,18.9648641 9.99819781,19.4264364 10.5834007,20.0162075 C11.0499209,20.4861446 11.4369461,20.9735634 11.7340261,21.4647416 C11.9020667,21.7432264 12.1829119,21.9334569 12.5022916,21.9857139 C12.5611665,21.9954886 12.6204145,22 12.6791961,22 C12.9391411,22 13.1929281,21.9077044 13.3944648,21.7357074 C15.1798376,20.2124532 17.0698042,18.4540425 18.8595623,16.6510818 C22.227185,13.2589817 25.2093686,9.76123974 27.2570191,6.80213972 C29.0173864,4.25799416 29.9915739,2.24121204 29.9999712,1.12323165 C30.0021172,0.823129804 29.8841809,0.534870378 29.6728473,0.323492663 Z" id="Shape"></path>
                <path d="M5.79684373,19 C4.25495823,19 2.75459585,19.7683769 1.68015004,21.1082692 C0.286641731,22.8460919 -0.267031075,25.3218535 0.120642994,28.0795234 C0.171914202,28.4442405 0.41739737,28.7575714 0.769078489,28.9076122 C0.913987606,28.9695621 1.06836362,29 1.22236471,29 C1.44169675,29 1.65999774,28.9379605 1.84727356,28.8163881 C2.74944061,28.2308174 3.76455428,28.0777329 4.83937501,27.915517 C5.86095617,27.7613582 7.01882314,27.5866987 8.28935554,27.0230612 C9.76572262,26.3681101 10.736595,25.3226592 10.9530213,24.1551883 C11.1716035,22.9766166 10.6245856,21.7210549 9.37129987,20.5239519 C8.32731685,19.526933 7.09137143,19 5.79684373,19 Z" id="Shape"></path>
            </g>
            <g id="007-dotted-square" transform="translate(305.000000, 24.000000)" fill-rule="nonzero" fill="#1F1F22">
                <path d="M35.0470897,31 L33.2506631,31 C32.724466,31 32.2977527,31.426618 32.2977527,31.9529103 L32.2977527,33.2975621 L30.9529103,33.2975621 C30.4267133,33.2975621 30,33.7241801 30,34.2504725 L30,36.0470897 C30,36.573382 30.4267133,37 30.9529103,37 L35.0470897,37 C35.5732867,37 36,36.573382 36,36.0470897 L36,31.9529103 C36,31.426618 35.5732867,31 35.0470897,31 Z" id="Shape"></path>
                <path d="M15.1118217,33 L9.88817835,33 C9.39772626,33 9,33.4609049 9,34.029495 L9,35.970505 C9,36.5390951 9.39772626,37 9.88817835,37 L15.1118217,37 C15.6022737,37 16,36.5390951 16,35.970505 L16,34.029495 C16,33.4609049 15.6022737,33 15.1118217,33 Z" id="Shape"></path>
                <path d="M26.1118104,33 L20.8881896,33 C20.3976425,33 20,33.4609049 20,34.029495 L20,35.970505 C20,36.5390951 20.3976425,37 20.8881896,37 L26.1118104,37 C26.6022687,37 27,36.5390951 27,35.970505 L27,34.029495 C27,33.4609049 26.6022687,33 26.1118104,33 Z" id="Shape"></path>
                <path d="M5.04708965,33.2975621 L3.70224728,33.2975621 L3.70224728,31.9529103 C3.70224728,31.426618 3.27553403,31 2.74933693,31 L0.952910347,31 C0.426713253,31 0,31.426618 0,31.9529103 L0,36.0470897 C0,36.573382 0.426713253,37 0.952910347,37 L5.04708965,37 C5.57319146,37 6,36.573382 6,36.0470897 L6,34.2504725 C6,33.7241801 5.57319146,33.2975621 5.04708965,33.2975621 Z" id="Shape"></path>
                <path d="M1.02954803,27 L2.97045197,27 C3.53896839,27 4,26.6023575 4,26.1118104 L4,20.8881896 C4,20.3976425 3.53896839,20 2.97045197,20 L1.02954803,20 C0.461031607,20 0,20.3976425 0,20.8881896 L0,26.1118104 C0,26.6023575 0.461031607,27 1.02954803,27 Z" id="Shape"></path>
                <path d="M1.02954803,16 L2.97045197,16 C3.53896839,16 4,15.6023575 4,15.1118104 L4,9.88818962 C4,9.39764249 3.53896839,9 2.97045197,9 L1.02954803,9 C0.461031607,9 0,9.39764249 0,9.88818962 L0,15.1118104 C0,15.6023575 0.461031607,16 1.02954803,16 Z" id="Shape"></path>
                <path d="M5.04708965,0 L0.952910347,0 C0.426713253,0 0,0.426604412 0,0.95288008 L0,5.04711992 C0,5.57339559 0.426713253,6 0.952910347,6 L2.74933693,6 C3.27553403,6 3.70224728,5.57339559 3.70224728,5.04711992 L3.70224728,3.70232026 L5.04708965,3.70232026 C5.57319146,3.70232026 6,3.27571585 6,2.74944018 L6,0.95288008 C6,0.4266997 5.57319146,0 5.04708965,0 Z" id="Shape"></path>
                <path d="M26.1118104,0 L20.8881896,0 C20.3977313,0 20,0.460904926 20,1.02949503 L20,2.97050497 C20,3.53909507 20.3977313,4 20.8881896,4 L26.1118104,4 C26.6022687,4 27,3.53909507 27,2.97050497 L27,1.02949503 C27,0.461007876 26.6022687,0 26.1118104,0 Z" id="Shape"></path>
                <path d="M9.88817835,4 L15.1118217,4 C15.6022737,4 16,3.53909507 16,2.97050497 L16,1.02949503 C16,0.460904926 15.6022737,0 15.1118217,0 L9.88817835,0 C9.39772626,0 9,0.460904926 9,1.02949503 L9,2.97050497 C9,3.53909507 9.39772626,4 9.88817835,4 Z" id="Shape"></path>
                <path d="M35.0470897,0 L30.9529103,0 C30.4267133,0 30,0.426604412 30,0.95288008 L30,2.74944018 C30,3.27571585 30.4267133,3.70232026 30.9529103,3.70232026 L32.2977527,3.70232026 L32.2977527,5.04711992 C32.2977527,5.57339559 32.724466,6 33.2506631,6 L35.0470897,6 C35.5732867,6 36,5.57339559 36,5.04711992 L36,0.95288008 C36,0.4266997 35.5732867,0 35.0470897,0 Z" id="Shape"></path>
                <path d="M34.970452,20 L33.029548,20 C32.4610316,20 32,20.3976425 32,20.8881896 L32,26.1118104 C32,26.6022687 32.4610316,27 33.029548,27 L34.970452,27 C35.5389684,27 36,26.6022687 36,26.1118104 L36,20.8881896 C36,20.3976425 35.5389684,20 34.970452,20 Z" id="Shape"></path>
                <path d="M34.970452,9 L33.029548,9 C32.4610316,9 32,9.39764249 32,9.88818962 L32,15.1118104 C32,15.6023575 32.4610316,16 33.029548,16 L34.970452,16 C35.5389684,16 36,15.6023575 36,15.1118104 L36,9.88818962 C36,9.39764249 35.5389684,9 34.970452,9 Z" id="Shape"></path>
            </g>
            <g id="008-school-rule" transform="translate(241.000000, 24.000000)" fill-rule="nonzero" fill="#1F1F22">
                <path d="M31.793743,7.3580724 L24.6417806,0.206232665 C24.3668965,-0.0688380943 23.9209608,-0.0686503327 23.6461706,0.206232665 L22.2627375,1.58947245 C22.1306467,1.72156274 22.0564805,1.90059344 22.0564805,2.08732236 C22.0564805,2.27405128 22.1306467,2.45317585 22.2627375,2.58526615 L25.4601428,5.78275249 L24.5416093,6.70137617 L21.3441101,3.50398371 C21.069226,3.22891295 20.6232904,3.22910071 20.3484063,3.50398371 L19.1363063,4.7159849 C19.0043094,4.84807519 18.9300493,5.02710589 18.9300493,5.21392869 C18.9300493,5.40065761 19.0042155,5.57968831 19.1363063,5.7117786 L21.0539234,7.6294818 L20.1353899,8.54810548 L18.2177728,6.63049616 C17.9427948,6.35551928 17.4969531,6.35551928 17.222069,6.63049616 L16.0098751,7.84249735 C15.8777843,7.97449376 15.8036182,8.15361834 15.8036182,8.34034726 C15.8036182,8.52707618 15.8777843,8.70620076 16.0098751,8.83829105 L19.2074682,12.0357774 L18.2888409,12.9544011 L15.0912477,9.75691473 C14.8163636,9.48193785 14.3705219,9.48193785 14.0955439,9.75691473 L12.8834439,10.9690098 C12.7513531,11.1010062 12.677187,11.2801308 12.677187,11.4668597 C12.677187,11.6535886 12.7513531,11.8327132 12.8834439,11.9647096 L14.801061,13.8823189 L13.8824336,14.8009426 L11.9648166,12.8834272 C11.6898386,12.6083564 11.2440907,12.6085442 10.9691127,12.8834272 L9.75701276,14.0954284 C9.62492193,14.2275187 9.5507558,14.4065494 9.5507558,14.5933722 C9.5507558,14.7801011 9.62492193,14.9592257 9.75701276,15.0912221 L12.954512,18.2887084 L12.0358846,19.2073321 L8.83838538,16.0100335 C8.56340739,15.7350566 8.11756565,15.7350566 7.84268154,16.0100335 L6.63067546,17.2221286 C6.35569747,17.4971055 6.35569747,17.9428515 6.63067546,18.2177345 L8.54829252,20.1354377 L7.62966513,21.0539675 L5.71195419,19.1363582 C5.57986337,19.0042679 5.40083195,18.9301021 5.21400839,18.9301021 C5.02718484,18.9301021 4.84815342,19.0043618 4.71615648,19.1363582 L3.50415039,20.3485472 C3.22917241,20.623524 3.22926629,21.0692701 3.50415039,21.3441531 L6.70155575,24.5416394 L5.78292837,25.4602631 L2.58524137,22.2628707 C2.45315054,22.1307804 2.27411912,22.0567084 2.08729557,22.0567084 C1.90047201,22.0567084 1.72153447,22.1308742 1.58944365,22.2628707 L0.206198287,23.6462982 C-0.0687797008,23.9212751 -0.0686858196,24.3670211 0.206198287,24.6419041 L7.35806687,31.7937439 C7.49550892,31.9312793 7.67576079,32 7.85591879,32 C8.03607678,32 8.21632865,31.9313731 8.3537707,31.7937439 L31.7939308,8.35377222 C32.068721,8.07879534 32.068721,7.63295539 31.793743,7.3580724 Z" id="Shape"></path>
            </g>
            <g id="009-anchor-points-adjustment" transform="translate(178.000000, 24.000000)" fill-rule="nonzero" fill="#1F1F22">
                <path d="M30.8877602,20.4037125 L25.1360754,16.8849275 C25.1444225,16.8605151 25.149338,16.834783 25.149338,16.8077314 L25.149338,15.3671145 C25.149338,15.2369462 25.0455561,15.1314731 24.917475,15.1314731 L23.5109017,15.1314731 C23.3828206,15.1314731 23.2790388,15.2369462 23.2790388,15.3671145 L23.2790388,15.5634508 L16.985073,15.5634508 C17.2580221,15.341571 17.5170593,15.0980121 17.7561564,14.8381468 C20.9727445,11.3423604 21.0484246,4.78908038 20.9889749,2.78066209 L21.1596261,2.78066209 C21.2877071,2.78066209 21.391489,2.67518903 21.391489,2.54502075 L21.391489,0.235641342 C21.391489,0.105473065 21.2877071,0 21.1596261,0 L18.8873693,0 C18.7591955,0 18.6555064,0.105473065 18.6555064,0.235641342 L18.6555064,2.54483224 C18.6555064,2.67500052 18.7591955,2.78047358 18.8873693,2.78047358 L19.0391931,2.78047358 C19.0933563,4.60735378 19.0422537,10.5422166 16.3336309,13.4859425 C15.3391244,14.5665937 14.1096016,15.0919797 12.5747617,15.0919797 C11.6351604,15.0919797 10.7497222,15.2505191 9.94256094,15.5632623 L1.87029919,15.5632623 L1.87029919,15.366926 C1.87029919,15.2367577 1.76651734,15.1312846 1.63843625,15.1312846 L0.231862936,15.1312846 C0.10378185,15.1312846 8.79921136e-14,15.2367577 8.79921136e-14,15.366926 L8.79921136e-14,16.7964206 C8.79921136e-14,16.9265889 0.10378185,17.032062 0.231862936,17.032062 L1.63843625,17.032062 C1.76651734,17.032062 1.87029919,16.9265889 1.87029919,16.7964206 L1.87029919,16.6000842 L8.16426496,16.6000842 C7.89168689,16.8215871 7.63283511,17.065146 7.39327433,17.3253883 C4.23047839,20.7624529 4.11185731,27.2352378 4.15591127,29.2194322 L3.98980466,29.2194322 C3.86172357,29.2194322 3.75794172,29.3249052 3.75794172,29.4550735 L3.75794172,31.7643587 C3.75794172,31.8945269 3.86172357,32 3.98980466,32 L6.26206143,32 C6.39014252,32 6.49392437,31.8945269 6.49392437,31.7643587 L6.49392437,29.4550735 C6.49392437,29.3249052 6.39014252,29.2194322 6.26206143,29.2194322 L6.10606405,29.2194322 C6.06655461,27.4159276 6.15967076,21.5640105 8.81579981,18.6774041 C9.81012083,17.5967529 11.0397364,17.0713669 12.574669,17.0713669 C13.5142704,17.0713669 14.3997085,16.9127332 15.2066843,16.6000842 L23.278946,16.6000842 L23.278946,16.7964206 C23.278946,16.9265889 23.3827279,17.032062 23.510809,17.032062 L24.7726071,17.032062 C24.7657439,17.0693875 24.7668569,17.1087868 24.77845,17.1469607 L26.7842499,23.6785616 C26.8135574,23.7741378 26.8988829,23.8402116 26.9972856,23.8438876 C27.0001607,23.8440761 27.0030358,23.8440761 27.0058181,23.8440761 C27.1006964,23.8440761 27.186393,23.7849773 27.2213579,23.6945853 L28.1864642,21.2005573 L30.7992813,20.8389892 C30.8967564,20.8254163 30.9751261,20.7509536 30.9950663,20.6531153 C31.0152848,20.555277 30.9721583,20.4552709 30.8877602,20.4037125 Z M1,17 L1,16 L2,16 L2,17 L1,17 Z M25,16 L25,17 L24,17 L24,16 L25,16 Z" id="Shape"></path>
            </g>
            <g id="010-refresh-arrow" transform="translate(25.000000, 84.000000)" fill-rule="nonzero" fill="#1F1F22">
                <path d="M3.2706656,24.6371783 C2.86490349,24.0331812 2.01726177,23.8239195 1.33638361,24.160169 L0.768822888,24.4404365 C0.414949265,24.6152684 0.155020083,24.9161044 0.0504642999,25.2725646 C-0.0542861867,25.628846 0.00558514158,26.0090941 0.215670225,26.3236126 C1.02359243,27.5326799 1.99652585,28.6434658 3.10789347,29.6254753 C3.38077043,29.8663051 3.74369777,30 4.120157,30 C4.14371612,30 4.16708054,29.999374 4.19073702,29.9983009 C4.5921183,29.9805047 4.96779871,29.8115751 5.22928552,29.5312181 L5.64857953,29.0816633 C6.15130398,28.5427698 6.11002684,27.7372913 5.55444038,27.244185 C4.67934547,26.4675023 3.91094808,25.5903025 3.2706656,24.6371783 Z" id="Shape"></path>
                <path d="M14.6622157,31.7181702 C13.4602451,31.6369834 12.2712516,31.4180931 11.1278223,31.0675097 C10.4038907,30.845659 9.62016814,31.1872715 9.33822797,31.8476205 L9.10242871,32.3996009 C8.9554507,32.7439943 8.96708205,33.1295642 9.13453509,33.4656147 C9.30198813,33.8016652 9.61065158,34.0581436 9.98746898,34.174945 C10.76552,34.4159934 11.5690447,34.6094961 12.3760299,34.7498909 C13.0597805,34.8689349 13.7580462,34.9520056 14.4516017,34.9967705 C14.4850539,34.9989235 14.5182177,35 14.5512853,35 C14.9125302,35 15.2621437,34.8733307 15.5292803,34.6430473 C15.8210254,34.3916823 15.9888629,34.0393047 15.9929964,33.6688059 L15.9999175,33.0745725 C16.0079922,32.3638069 15.4220988,31.7695735 14.6622157,31.7181702 Z" id="Shape"></path>
                <path d="M25.2412637,29.4878374 C24.739158,28.941551 23.847843,28.8397568 23.208129,29.2551269 C22.1982378,29.9105994 21.0996635,30.4516315 19.9425982,30.8629048 C19.2079235,31.1241142 18.8277819,31.8514572 19.0755964,32.5226041 L19.2819589,33.0825166 C19.4107985,33.4316269 19.6950827,33.7179509 20.0675517,33.8738928 C20.2680353,33.9577861 20.4846612,34 20.7012871,34 C20.8873223,34 21.0737561,33.9689185 21.2505244,33.9065774 C22.7182795,33.3884334 24.1098069,32.7033934 25.3865446,31.8704267 C25.7185581,31.6536577 25.9362801,31.3242293 25.988095,30.9596227 C26.0399098,30.5950161 25.9211343,30.2272924 25.6601668,29.9434621 L25.2412637,29.4878374 Z" id="Shape"></path>
                <path d="M30.8092363,20.142363 L30.1765731,20.024788 C29.4164635,19.8837561 28.6781297,20.3579333 28.4935219,21.1060321 C28.1990633,22.2972908 27.7553825,23.4449313 27.1751172,24.5171611 C26.8090125,25.1936293 27.0342553,26.037494 27.6892775,26.4428515 L28.2361015,26.7813279 C28.4692186,26.9254615 28.7359715,27 29.0052519,27 C29.1301708,27 29.255673,26.9839098 29.3787448,26.9515354 C29.7668197,26.8488875 30.0953029,26.5914438 30.28691,26.2393973 C31.0260216,24.8813237 31.5883996,23.4269025 31.9582957,21.9165533 C32.0534673,21.5283522 31.9841544,21.118439 31.7666885,20.7828705 C31.54932,20.4473019 31.2030467,20.2156414 30.8092363,20.142363 Z" id="Shape"></path>
                <path d="M29.9758123,16 L30.6019255,16 C30.602484,16 30.6033216,16 30.6038801,16 C31.3751898,16 32,15.3710764 32,14.5953166 C32,14.4811626 31.9865972,14.3701926 31.9610948,14.2639049 C31.4413659,11.4696149 30.2258108,8.80989365 28.4426864,6.56736335 C25.7430559,3.17205616 21.9089383,0.920161304 17.6462119,0.226247681 C16.7240281,0.0761338429 15.7841602,0 14.8525759,0 C12.4557172,0 10.0765427,0.504094067 7.88928817,1.46733233 L6.80161768,0.372896633 C6.57693545,0.146929889 6.25154643,0.0554381734 5.94300393,0.131665662 C5.63464758,0.207799505 5.38818587,0.440602375 5.29315664,0.745512329 L3.04158751,7.97129763 C2.94050843,8.29587316 3.02688171,8.65004068 3.26589744,8.89052248 C3.50491317,9.13100429 3.85692154,9.21790737 4.17951832,9.11620829 L11.3611592,6.85082847 C11.6642103,6.75531 11.8954078,6.50733654 11.9712636,6.19708879 C12.0471195,5.88684104 11.9561855,5.55926886 11.7315033,5.33330212 L10.5204158,4.1146924 C11.9183972,3.64992947 13.3737126,3.41478546 14.8655133,3.41478546 C19.1280535,3.41478546 23.1069953,5.34435229 25.7819611,8.70875645 C27.2069342,10.5006643 28.1826358,12.6268868 28.604171,14.8576178 C28.7294495,15.5204411 29.3053024,16 29.9758123,16 Z" id="Shape"></path>
            </g>
            <g id="011-full-screen-selector" transform="translate(23.000000, 146.000000)" fill-rule="nonzero" fill="#1F1F22">
                <path d="M37.0606165,-2.40085729e-15 L24.4103144,-2.40085729e-15 C23.8914929,-2.40085729e-15 23.4709309,0.420561419 23.4709309,0.939382218 L23.4709309,2.72655689 C23.4709309,3.24537769 23.8914929,3.66593911 24.4103144,3.66593911 L31.741827,3.66593911 L21.2751219,14.1326297 C20.9082927,14.4994585 20.9082927,15.0942753 21.2751219,15.4611041 L22.5388746,16.7248549 C22.7223362,16.9083163 22.9627244,17 23.2030187,17 C23.4435009,17 23.6838892,16.9082224 23.8672568,16.7248549 L34.3341498,6.2580704 L34.3341498,13.5896668 C34.3341498,14.1084876 34.7548057,14.529049 35.2735333,14.529049 L37.0606165,14.529049 C37.579438,14.529049 38,14.1084876 38,13.5896668 L38,0.939382218 C38,0.420561419 37.5795319,-2.40085729e-15 37.0606165,-2.40085729e-15 Z" id="Shape"></path>
                <path d="M6.25817298,3.66595936 L13.5896856,3.66595936 C14.1085071,3.66595936 14.5290691,3.24539562 14.5290691,2.72657195 L14.5290691,0.939387409 C14.5290691,0.420563743 14.1085071,-2.40085729e-15 13.5896856,-2.40085729e-15 L0.939383516,-2.40085729e-15 C0.420562,-2.40085729e-15 0,0.420563743 0,0.939387409 L0,13.5897419 C0,14.1085656 0.420562,14.5291293 0.939383516,14.5291293 L2.72646672,14.5291293 C3.24528823,14.5291293 3.66585023,14.1085656 3.66585023,13.5897419 L3.66585023,6.25810498 L14.1326492,16.7248534 C14.3160169,16.9083158 14.5564991,17 14.7968873,17 C15.0372756,17 15.2777577,16.9082219 15.4611254,16.7248534 L16.7248781,15.4610955 C17.0917073,15.0942648 17.0917073,14.4994447 16.7248781,14.1326139 L6.25817298,3.66595936 Z" id="Shape"></path>
                <path d="M37.0606165,23.4708643 L35.2735333,23.4708643 C34.7548057,23.4708643 34.3341498,23.8915249 34.3341498,24.4102582 L34.3341498,31.7419457 L23.8673508,21.275125 C23.5007094,20.9082917 22.9057039,20.9082917 22.5388746,21.275125 L21.2751219,22.5388916 C20.9082927,22.905631 20.9082927,23.5004552 21.2751219,23.8673824 L31.741827,34.3342032 L24.4103144,34.3342032 C23.8914929,34.3342032 23.4709309,34.7547698 23.4709309,35.2735971 L23.4709309,37.0606061 C23.4709309,37.5794334 23.8914929,38 24.4103144,38 L37.0606165,38 C37.579438,38 38,37.5794334 38,37.0606061 L38,24.4102582 C38,23.8914309 37.5795319,23.4708643 37.0606165,23.4708643 Z" id="Shape"></path>
                <path d="M15.4611254,21.2751219 C15.0942961,20.9082927 14.4993846,20.9082927 14.1326492,21.2751219 L3.66585023,31.741921 L3.66585023,24.4103144 C3.66585023,23.8914929 3.24528823,23.4709309 2.72646672,23.4709309 L0.939383516,23.4709309 C0.420562,23.4709309 0,23.8914929 0,24.4103144 L0,37.0606165 C0,37.579438 0.420562,38 0.939383516,38 L13.5896856,38 C14.1085071,38 14.5290691,37.579438 14.5290691,37.0606165 L14.5290691,35.2736272 C14.5290691,34.7548057 14.1085071,34.3342437 13.5896856,34.3342437 L6.25817298,34.3342437 L16.7248781,23.8674447 C17.0917073,23.5007094 17.0917073,22.9058917 16.7248781,22.5388746 L15.4611254,21.2751219 Z" id="Shape"></path>
            </g>
            <g id="012-add-with-pen-tool" transform="translate(23.000000, 211.000000)" fill-rule="nonzero" fill="#1F1F22">
                <path d="M30.5554815,25.8234039 L28.1764497,25.8234039 L28.1764497,23.4444346 C28.1764497,23.1990178 27.9776119,23 27.73202,23 L26.2677133,23 C26.0222104,23 25.8232837,23.1990178 25.8232837,23.4444346 L25.8232837,25.8234039 L23.4444296,25.8234039 C23.1988378,25.8234039 23,26.0224217 23,26.2678385 L23,27.7319837 C23,27.9775783 23.1988378,28.1764183 23.4444296,28.1764183 L25.8233726,28.1764183 L25.8233726,30.5555654 C25.8233726,30.8009822 26.0222993,31 26.2678022,31 L27.7321089,31 C27.9777007,31 28.1765386,30.8009822 28.1765386,30.5555654 L28.1765386,28.1764183 L30.5555704,28.1764183 C30.8010733,28.1764183 31,27.9775783 31,27.7319837 L31,26.2678385 C30.9999111,26.0224217 30.8009844,25.8234039 30.5554815,25.8234039 Z" id="Shape"></path>
                <path d="M25.7995857,13.9703335 L18.0294942,6.20030109 C17.7723143,5.94321993 17.3587286,5.93226237 17.0886242,6.17520173 C15.6967997,7.4258618 8.37859919,13.7784358 0.985286461,16.0240796 L0.905210425,16.048336 C0.713121594,16.1066827 0.556153832,16.2463213 0.476077795,16.4306331 C0.396095415,16.6150385 0.401059193,16.8248242 0.489751598,17.0050151 L0.52674579,17.079845 C0.527120415,17.0809688 0.527588696,17.081718 0.528244289,17.0823736 C0.553625115,17.1351947 1.61952613,19.3607964 1.75823094,22.4967184 C1.84402,24.4465081 1.56136564,26.3208125 0.920476383,28.0709311 C0.69186164,28.0887255 0.467742395,28.1847212 0.292698989,28.3597611 C-0.0976599804,28.7500188 -0.097472668,29.3825602 0.292698989,29.7727242 C0.682870647,30.1628881 1.31542451,30.1629818 1.70559616,29.7727242 C1.93112025,29.5471109 2.02552568,29.2405802 1.9902173,28.9466929 L9.1536041,21.7832596 C9.3323001,21.6046608 9.39795308,21.3421477 9.32443298,21.1006131 C9.07128031,20.2679324 9.29717903,19.3671649 9.91437327,18.7500765 C10.3598021,18.3044691 10.9518965,18.0591884 11.5822962,18.0591884 C12.212696,18.0591884 12.8053523,18.3044691 13.2505938,18.7500765 C13.6962099,19.1955902 13.9413082,19.7877666 13.9413082,20.4179666 C13.9413082,21.048073 13.6962099,21.6402494 13.2504065,22.0859505 C12.805165,22.5311832 12.2132579,22.7762766 11.5834201,22.7763703 C11.3498416,22.7763703 11.119541,22.742561 10.8986998,22.6756918 C10.6568795,22.6024541 10.3949231,22.6681995 10.2166018,22.8465174 L3.05377691,30.009857 C2.75941553,29.9744556 2.45287885,30.0686719 2.22716744,30.2943788 C1.83699579,30.6845428 1.8371831,31.3171779 2.22716744,31.7073419 C2.6173391,32.0975059 3.25008027,32.0975995 3.64025193,31.7073419 C3.81529534,31.5323019 3.91119927,31.3085617 3.9290876,31.0796705 C5.47254149,30.5143729 7.114709,30.2270414 8.81325753,30.2270414 C9.02632535,30.2270414 9.2444506,30.2316304 9.46154563,30.2406213 C12.6072695,30.3703325 14.901846,31.4641216 14.9230123,31.4743299 L14.9955958,31.5101058 C15.0905632,31.5567457 15.193866,31.5802529 15.2972624,31.5801593 C15.389982,31.5802529 15.4827016,31.5614284 15.5698019,31.5236857 C15.753649,31.4436113 15.8935713,31.2868339 15.9519191,31.0948425 L15.9760824,31.0148617 C18.221864,23.6216007 24.5743756,16.3033568 25.8249666,14.9116533 C26.0677234,14.6408049 26.0567656,14.227602 25.7995857,13.9703335 Z" id="Shape"></path>
                <path d="M31.7949676,8.32958107 L23.670002,0.204760699 C23.5389882,0.0735530142 23.3608553,-9.56787435e-05 23.1755397,9.32888725e-08 C22.9899367,-9.56787435e-05 22.8118996,0.0735530142 22.6809816,0.204664927 L19.2049964,3.68109393 C18.9316679,3.95433154 18.9316679,4.39718142 19.2049964,4.67032325 L27.3301536,12.7950479 C27.4612632,12.9263513 27.639013,13 27.8247117,13 C28.0101231,13 28.1879687,12.9261598 28.3189825,12.7950479 L31.7952549,9.31881039 C32.0682962,9.04566855 32.0682962,8.60281868 31.7949676,8.32958107 Z" id="Shape"></path>
            </g>
            <g id="013-crest-lower-curve" transform="translate(23.000000, 279.000000)" fill-rule="nonzero" fill="#1F1F22">
                <path d="M38.7700472,16.3620721 L37.3749693,16.3620721 C37.2479434,16.3620721 37.1450165,16.4674001 37.1450165,16.5973893 L37.1450165,16.7934555 L32.3080967,16.7934555 C32.8047948,16.4253254 33.2909151,15.983588 33.754592,15.4792563 C35.0483986,14.071495 36.1025024,12.2611531 36.9896604,10.6705974 L37.7751792,10.6705974 C37.9023892,10.6705974 38.0051321,10.5652694 38.0051321,10.4352803 L38.0051321,8.12917217 C38.0051321,7.99918298 37.9023892,7.89385502 37.7751792,7.89385502 L35.5216415,7.89385502 C35.3946156,7.89385502 35.2916887,7.99918298 35.2916887,8.12917217 L35.2916887,9.72772864 C33.5439552,12.8597999 31.7301792,15.7119379 28.7979127,16.235095 L28.7979127,15.9707868 C28.7979127,15.8668707 28.7154976,15.7825331 28.6139505,15.7825331 L26.2684316,15.7825331 C26.1668844,15.7825331 26.0844693,15.8668707 26.0844693,15.9707868 L26.0844693,16.059266 C23.5664858,15.2457276 21.893625,12.5777017 20.396908,9.90882872 L20.396908,8.30782495 C20.396908,8.17783576 20.2939811,8.0725078 20.1669552,8.0725078 L19.3796887,8.0725078 C18.4119552,6.33031374 17.3571156,4.51253582 16.0450967,3.08500785 C14.6531462,1.57031841 13.1456675,0.685996559 11.4399693,0.382531561 L11.4395094,0.188253721 C11.4395094,0.0843376669 11.3570943,5.04214726e-14 11.2555472,5.04214726e-14 L8.9100283,5.04214726e-14 C8.80848113,5.04214726e-14 8.72606604,0.0843376669 8.72606604,0.188253721 L8.72606604,0.382813941 C7.02082783,0.68656132 5.51482075,1.57088317 4.12323821,3.08510198 C2.81103538,4.51272407 1.75619575,6.330502 0.788554245,8.07260193 L0.22995283,8.07260193 C0.102926887,8.07260193 0,8.17792989 0,8.30791908 L0,10.6140272 C0,10.7440164 0.102926887,10.8493443 0.22995283,10.8493443 L2.48349057,10.8493443 C2.61051651,10.8493443 2.7134434,10.7440164 2.7134434,10.6140272 L2.7134434,8.60921916 C4.27095991,5.83652423 6.01832547,3.07841897 8.72597406,2.40437652 L8.72597406,2.58839453 C8.72597406,2.69231059 8.80838915,2.77664826 8.90993632,2.77664826 L11.2572948,2.77664826 C11.358842,2.77664826 11.4412571,2.69231059 11.4412571,2.58839453 C11.4412571,2.58839453 11.4408892,2.4109654 11.4408892,2.40607081 L11.4408892,2.40400002 C14.191217,3.08660801 15.8969151,5.80320333 17.6834646,9.01838862 L17.6834646,10.613933 C17.6834646,10.7439222 17.7863915,10.8492502 17.9134175,10.8492502 L18.6974646,10.8492502 C19.6085377,12.4748211 20.6189505,14.1586565 21.8324575,15.4791622 C22.2961344,15.9836822 22.7819788,16.4253254 23.2788608,16.7933614 L18.335059,16.7933614 L18.335059,16.5972952 C18.335059,16.467306 18.2321321,16.361978 18.1051061,16.361978 L16.7100283,16.361978 C16.5830024,16.361978 16.4800755,16.467306 16.4800755,16.5972952 L16.4800755,18.0249173 C16.4800755,18.1549065 16.5830024,18.2602344 16.7100283,18.2602344 L18.1051061,18.2602344 C18.1161439,18.2602344 18.1267217,18.2582577 18.1372995,18.25694 C18.1384953,18.2752947 18.1411627,18.2938377 18.1466816,18.3119101 L20.1360495,24.8349015 C20.1651156,24.930252 20.2497382,24.9963291 20.3472382,25 C20.3499976,25 20.352941,25 20.3556085,25 C20.4497972,25 20.5348797,24.9411707 20.5695566,24.8509031 L21.5266203,22.3602122 L24.1180047,21.9991416 C24.2146769,21.9855873 24.2924009,21.9112271 24.3121769,21.8134293 C24.3318608,21.7156315 24.2890896,21.6157629 24.2055708,21.5643696 L18.4848042,18.0404482 C18.4388137,18.012116 18.3859245,18.0025151 18.335059,18.0095746 L18.335059,17.8290393 L25.1542642,17.8290393 C25.4566981,17.9434975 25.769434,18.038095 26.0844693,18.1104786 L26.0836415,18.3713041 C26.0836415,18.4752202 26.1660566,18.5595578 26.2676038,18.5595578 L28.6140425,18.5595578 C28.7155896,18.5595578 28.7980047,18.4752202 28.7980047,18.3713041 L28.7980047,18.2357614 C29.3612052,18.1631896 29.9108844,18.0264233 30.4327854,17.8291334 L37.1452005,17.8291334 L37.1452005,18.0252938 C37.1452005,18.155283 37.2481274,18.2606109 37.3751533,18.2606109 L38.7700472,18.2606109 C38.8970731,18.2606109 39,18.155283 39,18.0252938 L39,16.5976717 C39,16.4674001 38.8970731,16.3620721 38.7700472,16.3620721 Z M18,18 L17,18 L17,17 L18,17 L18,18 L18,18 Z M39,18 L38,18 L38,17 L39,17 L39,18 Z" id="Shape"></path>
            </g>
            <g id="014-paint-brush-dripping" transform="translate(27.000000, 335.000000)" fill-rule="nonzero" fill="#1F1F22">
                <path d="M31,3.7614218 C31,2.75674174 30.6131547,1.81220567 29.9104827,1.10168955 C29.2079986,0.391268439 28.27414,0 27.2810992,0 C26.2876825,0 25.3536361,0.391268439 24.6516217,1.10159453 L19.9619438,5.84489299 L17.4767583,3.33129256 C16.9020328,2.75018576 16.1380179,2.43008295 15.325436,2.43008295 C14.5128541,2.43008295 13.7490271,2.75028078 13.1744895,3.33129256 L8.35414088,8.20666074 C8.17067585,8.39231847 8.06743568,8.64410607 8.06743568,8.90663029 C8.06743568,9.16240849 8.16541521,9.40802017 8.3401438,9.59215767 L0.286658662,17.7375343 C-0.0950199817,18.1235769 -0.0956775624,18.7494354 0.285437441,19.1361432 L4.87084181,23.7902233 L4.86849331,25.4927826 C4.86849331,26.7899163 5.09366774,27.7302718 5.57670776,28.4519045 C6.0832328,29.2089776 6.87167209,29.6856638 7.78091836,29.7983507 C7.70106927,30.4878686 7.51412847,31.2438966 7.3319786,31.9809216 C6.8597417,33.8926072 6.3713471,35.8693774 7.61896562,37.4854738 C8.39462906,38.4904389 9.62345957,39 11.2714508,39 C12.8245626,39 13.6938843,38.3177981 14.1496817,37.7459077 C15.2494385,36.3655415 14.8755569,34.6274469 14.5744788,33.228458 C14.5590726,33.1554871 14.5431968,33.0826112 14.5276967,33.0090702 C14.7415043,33.0560072 14.9617939,33.0797608 15.1872501,33.0797608 C15.8486824,33.0797608 16.4880387,32.8714897 17.0875645,32.4607433 C17.9432649,31.8752659 18.4359808,30.9979048 18.5116965,29.9233893 C18.5553786,29.3043719 18.452796,28.7149988 18.3536892,28.1447237 C18.2478187,27.5388182 18.1475846,26.9636973 18.1865698,26.3143703 L21.5312132,22.9329102 C21.7113904,23.1010854 21.9481194,23.1949594 22.1944304,23.1949594 L22.1944304,23.1949594 C22.4542687,23.1949594 22.7029282,23.0906338 22.8865811,22.9050711 L27.7069296,18.0296079 C28.2812794,17.4484061 28.5977637,16.6756557 28.5977637,15.8536879 C28.5977637,15.0318151 28.2812794,14.2590647 27.7071175,13.6780529 L25.2216502,11.1643575 L29.9111403,6.42115406 C30.6131547,5.71073295 31,4.76610186 31,3.7614218 Z M15.6630753,24.6284911 C15.5170107,24.7715254 15.4195379,24.9550892 15.3838654,25.1540524 C15.1427383,26.4980456 15.3455897,27.6249365 15.4934861,28.4479977 C15.6857322,29.5182985 15.6675103,29.7889677 15.3905179,29.972815 C15.2936235,30.0371521 15.150837,30.1135819 15.0201984,30.1136764 C14.6719573,30.1136764 14.3869627,29.53691 14.3079046,29.3599594 C14.0918447,28.8770061 13.5260976,28.6464885 13.0243682,28.8374213 C10.7674536,29.695627 11.2701471,31.9594232 11.6368994,33.6124423 C11.8270244,34.4682861 12.0423129,35.4382551 11.7596322,35.7822364 C11.611543,35.9621158 11.2652301,36 11.0008677,36 C10.2216638,36 9.70769008,35.8507304 9.47282982,35.5563481 C9.03878183,35.0113251 9.35597816,33.7684196 9.69178206,32.4524853 C10.0192945,31.1688612 10.3906745,29.7139551 10.2454777,28.3288655 C10.1388457,27.3087306 9.66035166,26.7916721 8.82358967,26.7914831 L8.82339684,26.7914831 C8.63789966,26.7914831 8.45635538,26.8150073 8.28030659,26.8377756 C8.12604698,26.8578042 7.98056088,26.8766991 7.85242899,26.8766991 C7.59385131,26.8766991 7.53369006,26.7893102 7.48982248,26.7256345 C7.37933403,26.5657837 7.24744206,26.1942158 7.24744206,25.3348764 L7.25081649,22.9066002 C7.25120214,22.6457563 7.14591995,22.3954936 6.95791605,22.2106071 L3,18.3186386 L9.44872676,12 L12.0937007,14.5918114 L8.89522398,18.2067809 C8.82609639,18.2848168 8.83024212,18.4018706 8.9048652,18.4748049 C8.94381576,18.5131615 8.99539631,18.5325287 9.04668764,18.5325287 C9.09364041,18.5325287 9.14068959,18.5165625 9.17848319,18.4843468 L12.8676019,15.3500632 L16.2299794,18.6448588 L14.0687058,21.0876841 C13.9995782,21.16572 14.0037239,21.2827738 14.078347,21.355897 C14.1172976,21.3940646 14.1688781,21.4134319 14.2202659,21.4134319 C14.2671222,21.4134319 14.3141714,21.3974657 14.351965,21.3651555 L16.8448004,19.2473222 L19,21.3591091 L15.6630753,24.6284911 Z" id="Shape"></path>
            </g>
            <g id="015-open-scissors" transform="translate(23.000000, 395.000000)" fill-rule="nonzero" fill="#1F1F22">
                <path d="M11.6947178,24.5409529 C12.260903,23.4830026 12.5030301,22.3178201 12.3949802,21.171266 L14.8511679,20.9132086 C14.8675724,19.2225497 15,17.6626688 15,17.6626688 L11.7709668,19.0634978 C11.429771,18.4152811 10.9726439,17.8486706 10.4124157,17.3794582 C9.35061237,16.4899214 7.96896666,16 6.5219778,16 C5.77790899,16 5.04190496,16.127563 4.33412772,16.3791902 C2.77423175,16.9337914 1.49330432,18.0276749 0.727240607,19.4591417 C-0.0603597638,20.930797 -0.214049061,22.5800381 0.294582782,24.1031347 C0.622306651,25.0848686 1.2151606,25.9553987 2.00917614,26.6206364 C3.07097948,27.5101732 4.45262519,28 5.89979734,28 C6.64386616,28 7.38005347,27.872437 8.08764743,27.6209043 C9.6473601,27.0665868 10.9281959,25.9727033 11.6947178,24.5409529 Z M9.55119553,22.8448733 C9.04936687,23.7283561 8.19804539,24.4074334 7.15433911,24.757115 C6.67309637,24.9182196 6.17529133,25 5.67467912,25 C4.7391425,25 3.85478996,24.708629 3.18443746,24.1795582 C2.70675048,23.8023132 2.36567917,23.3322807 2.17086148,22.7825601 C1.87002629,21.9334633 1.96874514,21.0002209 2.44886501,20.1551267 C2.95069366,19.2716439 3.80201514,18.5924756 4.84590858,18.242885 C5.32715131,18.0816894 5.82476921,18 6.32538142,18 C7.2607309,18 8.14508343,18.291371 8.81562308,18.8205328 C9.29321649,19.1975049 9.63419423,19.6676283 9.82901192,20.2176218 C10.1299407,21.0666277 10.031409,21.9997791 9.55119553,22.8448733 Z" id="Shape"></path>
                <path d="M37.9043136,12.1743961 C37.7711849,12.0071103 37.5341823,11.9528049 37.3370813,12.0437598 C34.3501084,13.4222624 28.3546841,15.80983 23,16.3122224 L23.5086297,18.8822349 L23.1459047,20 C23.1459047,20 23.5431617,19.9538091 23.5638995,19.9513123 C30.1574775,19.0991001 35.4015295,15.5318824 37.8885752,12.7359984 C38.0310545,12.5758463 38.037535,12.3415927 37.9043136,12.1743961 Z" id="Shape"></path>
                <path d="M18.9443054,25.8389865 L21.5291444,20.0528925 C21.5688952,19.9640811 21.5801579,19.8654227 21.5618915,19.7699835 C20.3272525,13.3747074 24.2217836,4.28810373 25.9534015,0.678174175 C26.0502229,0.476312769 25.9923951,0.234306318 25.8149364,0.0978699737 C25.6374778,-0.038377007 25.3886571,-0.0317492873 25.21877,0.113871183 C22.1439558,2.74971531 18.2771555,8.30137738 17.498609,15.2726023 C17.4978518,15.2796088 17.4970947,15.2865205 17.4967161,15.2936217 L16.8349609,25.1943934 C16.657313,25.176972 16.4765418,25.1683559 16.2977581,25.1683559 C15.3165774,25.1683559 14.3625597,25.4204933 13.4621109,25.9178563 C12.0290968,26.7093954 10.9342479,28.0328564 10.3795359,29.6443391 C9.62682727,31.8297823 10.0106112,34.236118 11.3806866,35.9241982 C12.0461329,36.7444258 12.9173365,37.3570165 13.9002208,37.6957877 C14.4861656,37.8976491 15.095109,38 15.7101097,38 L15.710299,38 C16.6909118,38 17.645876,37.7471998 18.5483124,37.2486059 C19.9812318,36.4568775 21.0760807,35.1334165 21.6310767,33.5221232 C22.383596,31.3365853 21.9999067,28.9303443 20.629926,27.2424535 C20.1600155,26.6634748 19.5929049,26.1912971 18.9443054,25.8389865 Z M19.1462046,18.1464162 C19.2406501,18.0519794 19.3663599,18 19.4999021,18 C19.6337054,18 19.7592847,18.0519794 19.8537955,18.1464814 C19.9479799,18.2406574 20,18.3662688 20,18.5000326 C20,18.6337312 19.9479799,18.7594078 19.8536649,18.8535838 C19.7592847,18.9479554 19.6337054,19 19.4999021,19 C19.3663599,19 19.2405849,18.9479554 19.1460741,18.8535186 C19.0518896,18.7594078 19.0000001,18.6337964 19.0000001,18.5000978 C18.9999348,18.3662036 19.0518896,18.2406574 19.1462046,18.1464162 Z M18.7571903,33.1541728 C18.4075044,34.1978829 17.7284186,35.0493011 16.8449247,35.5511316 C16.3280372,35.8448564 15.7633908,36 15.211753,36 C14.8720736,36 14.5376705,35.9425463 14.2176405,35.8292298 C13.6675492,35.6343178 13.1974198,35.2931516 12.820625,34.8155565 C11.9946238,33.7691327 11.7732045,32.2481081 12.24297,30.8456401 C12.592474,29.8018364 13.2715598,28.9506053 14.1551446,28.4488684 C14.6720321,28.1551436 15.2364966,28 15.7879525,28 C16.1276318,28 16.4623989,28.0575472 16.7826108,28.1709574 C17.3325202,28.3658693 17.8026495,28.7069419 18.1796263,29.1844435 C19.0053546,30.2307737 19.2266829,31.7518919 18.7571903,33.1541728 Z" id="Shape"></path>
            </g>
            <g id="016-paint-swatch" transform="translate(24.000000, 455.000000)" fill-rule="nonzero" fill="#1F1F22">
                <rect id="Rectangle-path" x="3.56104035e-14" y="10" width="10" height="8"></rect>
                <path d="M10,1.15028796 C10,0.515952098 9.50057055,0 8.88685437,0 L1.11305717,0 C0.499429451,0 3.56104035e-14,0.515952098 3.56104035e-14,1.15028796 L3.56104035e-14,7 L10,7 L10,1.15028796 L10,1.15028796 Z" id="Shape"></path>
                <path d="M10,35.8499099 L10,30 L3.56104035e-14,30 L3.56104035e-14,35.8499099 C3.56104035e-14,36.4841461 0.499429451,37 1.11305717,37 L8.88685437,37 C9.50057055,37 10,36.4841461 10,35.8499099 Z M5.00012932,32 C5.55153239,32 6,32.4485345 6,33 C6,33.5513793 5.55153239,34 5.00012932,34 C4.44872624,34 4,33.5514655 4,33 C4,32.4485345 4.44872624,32 5.00012932,32 Z" id="Shape"></path>
                <rect id="Rectangle-path" x="3.56104035e-14" y="20" width="10" height="8"></rect>
                <polygon id="Shape" points="22 13.8125115 13.4621388 9 12 11.6146745 12 16.3135363 18.5403259 20"></polygon>
                <path d="M24.8641598,7.7811867 C25.0023782,7.50561979 25.0364039,7.18627767 24.9603309,6.88221744 C24.8839934,6.57805862 24.7061078,6.32526665 24.4594655,6.17047593 L18.0594602,2.15183293 C17.9014963,2.05254997 17.722641,2 17.5424634,2 C17.1602472,2 16.8065915,2.23159451 16.6194501,2.60427534 L14,7.82299005 L22.244357,13 L24.8641598,7.7811867 Z" id="Shape"></path>
                <polygon id="Shape" points="12 30 12 33 13 30.7189339"></polygon>
                <polygon id="Shape" points="18 22.3486049 12 19 12 27.747931 14.2435825 29"></polygon>
                <polygon id="Shape" points="23.0386188 15 21.780177 16.1173305 19 21.6009583 23.6321177 28 29 23.2350849 23.1195706 15.111979"></polygon>
                <path d="M35.7565632,16.7061748 L30.9404981,10.4340641 C30.7288923,10.1582365 30.4129635,10 30.0740984,10 C29.8231865,10 29.5767139,10.0904622 29.3803682,10.2546844 L25,13.9201899 L31.2043579,22 L35.5850035,18.3344945 C36.0623187,17.9349934 36.1392663,17.204441 35.7565632,16.7061748 Z" id="Shape"></path>
                <path d="M12.7405605,34.9718726 L12.7405605,35.8471358 C12.7405605,36.889282 11.819385,37.7370448 10.6869404,37.7370448 L9,37.7370448 L9.7493188,38.5973485 C9.97216816,38.8531822 10.3044959,39 10.6609576,39 C10.9251654,39 11.1842156,38.9160657 11.3907162,38.7637838 L16,35.3625207 L13.9427793,33 L12.7405605,34.9718726 Z" id="Shape"></path>
                <polygon id="Shape" points="14 30.8475511 16.4626173 34 22 29.4452503 17.7465883 24"></polygon>
            </g>
            <g id="017-draw-a-picture" transform="translate(100.000000, 28.000000)" fill-rule="nonzero" fill="#1F1F22">
                <path d="M40.4062288,32.7208527 C39.0245543,30.6798436 36.9249205,28.2288245 34.4941812,25.8190953 C33.1589479,24.4951144 31.7572492,23.2228624 30.4409121,22.1396307 C30.2885208,22.0141764 30.0843297,21.9699039 29.8932061,22.0205144 C29.7018944,22.0711249 29.5470589,22.2104667 29.478055,22.394454 C29.2722657,22.9426874 28.9367417,23.4494444 28.4811661,23.9009308 C28.1070038,24.2720742 27.7184577,24.5641795 27.3262453,24.7690447 C27.1630428,24.8544207 27.0473157,25.0083027 27.0114977,25.1879092 C26.9758676,25.367609 27.0240011,25.5534603 27.1426425,25.6938274 C28.2028006,26.9496753 29.4411089,28.2857729 30.7238841,29.5578385 C35.1437007,33.9396048 39.4380131,36.9999068 41.1671509,37 C41.432637,37 41.6404945,36.9275795 41.7844248,36.784789 C42.4634638,36.1113809 41.4098864,34.2031893 40.4062288,32.7208527 Z" id="Shape"></path>
                <path d="M22.9022063,20.5512137 C23.0052006,21.2804479 23.1219807,22.1070261 23.5007824,23.0191158 C24.0159314,24.2593311 24.8868463,24.9998011 25.8302485,25 L25.8304263,25 C26.5433812,25 27.2611388,24.6014766 27.9641322,23.8157649 C28.9603656,22.7020272 29.2603652,21.2419678 28.7666511,19.9100762 C28.111775,18.1422748 26.242759,17 24.0053474,17 C23.5128785,17 22.9983521,17.0529973 22.4759988,17.1575997 C22.2715224,17.1985657 22.1023557,17.3590489 22.0331592,17.5780976 C21.9637849,17.7970469 22.0049648,18.0408541 22.1407784,18.2165505 C22.6685571,18.8987534 22.7767989,19.6642803 22.9022063,20.5512137 Z" id="Shape"></path>
                <path d="M38.3945502,-4.22405166e-14 L0.605449764,-4.22405166e-14 C0.271055202,-4.22405166e-14 0,0.272370843 0,0.608388481 L0,26.3916115 C0,26.7276292 0.271055202,27 0.605449764,27 L26.519538,27 L25.2817192,25.4022783 C22.776275,25.4022783 22.029802,22.9752762 21.8110949,22.9752762 L4.00528306,22.9752762 L4.00528306,4.0247238 L34.9947169,4.0247238 L34.9947169,22.9752762 L33.5733072,22.9752762 L37.4306742,27 L38.3945502,27 C38.7289448,27 39,26.7276292 39,26.3916115 L39,0.608388481 C39,0.272370843 38.7289448,-4.22405166e-14 38.3945502,-4.22405166e-14 Z" id="Shape"></path>
                <path d="M21.1215981,15.8366034 C21.2335302,15.9430403 21.3794089,16 21.528407,16 C21.5837308,16 21.6393299,15.992237 21.6937362,15.9761499 C22.0697179,15.8655041 22.6235982,15.7051005 23.1285771,15.5686405 C23.2511519,15.5355309 23.3600563,15.4634195 23.4398767,15.3629684 C23.5791496,15.1873194 23.7422768,15.0026916 23.8617322,14.8678216 C24.456165,14.1950616 25.270425,13.2737929 24.9120588,12.1780912 C24.7273709,11.6293517 24.3596465,11.2239935 23.848337,11.005882 C23.5778651,10.8904662 23.2843645,10.8344418 22.9506784,10.8344418 C21.7961265,10.8344418 20.34156,11.546952 18.8015763,12.3012699 C18.114662,12.6376967 17.0199295,13.1738096 16.3811827,13.3628333 C16.5321992,12.9737493 16.8302872,12.4309958 17.0400223,12.0487394 C17.4041685,11.3858936 17.7807007,10.7004136 17.9741964,10.0316754 C18.3956849,8.57494856 17.739139,7.79313283 17.3065491,7.45380666 C17.3059068,7.45333901 17.2987505,7.44782076 17.2981083,7.44725958 C16.9100159,7.15048947 16.4777929,7 16.01355,7 C14.6854116,7 13.3469058,8.20017459 12.2713486,9.16456051 C11.8307765,9.55963045 11.488191,9.85883233 11.2480875,10.034949 C11.0564267,10.1755243 10.9641286,10.4181406 11.0128466,10.6536487 L11.2537758,11.8204331 C11.2923098,12.0070251 11.4144259,12.1643423 11.5835167,12.2453391 C11.7529746,12.326523 11.9496814,12.32194 12.1151024,12.2331802 C12.6308157,11.956519 13.1662547,11.4762434 13.7867438,10.9198346 C14.2949338,10.4641573 14.8205559,9.99295409 15.302506,9.6717727 C15.505727,9.53634153 15.6579363,9.45712178 15.7674829,9.41082452 C15.6302285,9.82983809 15.2566322,10.5097998 15.0390069,10.9061792 C14.6692641,11.5797809 14.28686,12.276391 14.106943,12.9439133 C13.6831608,14.516056 14.5790762,15.2540062 14.9805637,15.4961549 C15.2770002,15.6778833 15.6103193,15.7661755 15.9994209,15.7661755 C17.0235994,15.7661755 18.3076072,15.137281 19.794469,14.4090578 C20.5352392,14.0462557 21.3013317,13.6711076 21.9466844,13.4289589 C21.9966868,13.4101594 22.0455883,13.3923888 22.0934805,13.3755534 C21.6385959,13.8912768 21.1015971,14.5242866 20.9456262,15.2645751 C20.9012204,15.4735207 20.9681961,15.6907904 21.1215981,15.8366034 Z" id="Shape"></path>
            </g>
            <g id="018-drop-silhouette" transform="translate(105.000000, 84.000000)" fill-rule="nonzero" fill="#1F1F22">
                <path d="M20.0880096,10.0389049 C17.5587351,5.82571839 14.7455558,2.17927981 13.2936493,0.380618028 C13.0993546,0.139738403 12.8078194,-9.38629136e-05 12.5000931,4.72716515e-08 C12.1922736,4.72716515e-08 11.9008315,0.139832313 11.7064437,0.380711938 C10.2546303,2.17993718 7.44145103,5.82759659 4.91217655,10.0411588 C1.65271492,15.4713274 1.12410081e-15,19.9608916 1.12410081e-15,23.384857 C1.12410081e-15,30.3408783 5.60746881,36 12.5,36 C19.3925312,36 25,30.3408783 25,23.384857 C25.0000931,19.9586378 23.3475642,15.4684162 20.0880096,10.0389049 Z M13.6169447,31.7146035 C12.8941595,31.9040493 12.143915,32 11.3865754,32 C6.76218742,32 3,28.4179995 3,24.0151297 C3,22.9522117 3.27367059,21.7103307 3.81317946,20.3241459 C3.90431084,20.0899356 4.1639754,19.9563035 4.41995415,20.0129673 C4.67574862,20.0694422 4.84750686,20.2979861 4.8211534,20.5465512 C4.78963982,20.8438471 4.77360659,21.134249 4.77360659,21.4093516 C4.77360659,26.200746 8.54058555,30.2131079 13.5359492,30.7419698 C13.7845564,30.7683184 13.9785216,30.9588976 13.9983328,31.1964132 C14.0182361,31.4339289 13.8580881,31.6513289 13.6169447,31.7146035 Z" id="Shape"></path>
            </g>
            <g id="019-paint-board-and-brush" transform="translate(100.000000, 149.000000)" fill-rule="nonzero" fill="#1F1F22">
                <path d="M39.1917833,1.04552703 C39.116966,0.853009223 38.9445527,0.717540702 38.7424162,0.692405125 C38.5408353,0.667363688 38.3410136,0.756609108 38.2227689,0.925121028 C37.5208005,1.92574293 36.5996581,2.25928356 35.5325847,2.64554301 C34.6721851,2.95714885 33.7824326,3.27911017 32.8208258,3.98102351 C31.4608721,4.97364345 30.8388139,6.32672827 31.1490096,7.60920753 L31.1158603,7.65241813 C30.5479707,6.81484799 29.9300793,6.04016386 29.27802,5.34841772 C26.2272681,2.11204745 21.9644378,0.166346683 17.582159,0.0103554811 C17.3890969,0.00348320729 17.1928865,-5.4220517e-14 16.998991,-5.4220517e-14 C12.1056764,-5.4220517e-14 7.42199844,2.22398078 4.14901669,6.10154362 C0.893165145,9.95905448 -0.549939522,14.9806156 0.189900471,19.878664 C0.251754428,20.2880821 0.32916447,20.7017365 0.420186086,21.1084245 C1.62356037,26.4934629 4.6970909,30.5899971 8.85278788,32.3472281 C9.87717459,32.7804638 10.9104505,33 11.9235405,33 C14.4405706,33 16.6390714,31.6312878 17.9555051,29.2448201 C18.4558925,28.3367386 18.7787738,27.3976847 18.914797,26.4534531 C18.9949849,25.8961399 18.9401682,25.3392975 18.8870183,24.7996828 C18.8322942,24.2442524 18.7806257,23.7193237 18.8633137,23.1908176 C19.0528572,21.9793204 19.8852004,21.255943 21.0899636,21.255943 C21.4326604,21.255943 21.7828575,21.3132747 22.1325917,21.426526 C21.7231333,22.1900074 21.3512688,22.9190333 21.0263503,23.5947755 C20.3377158,25.0268444 19.8626996,26.2128294 19.61408,27.1194047 C19.4608341,27.6785065 19.0536906,29.1643298 20.0465022,29.8649252 C20.3617907,30.0873797 20.7615265,30.1658931 21.1775592,30.0871914 C21.5524793,30.0163976 22.6932589,29.8009095 25.9349433,26.0489304 C26.8049729,25.0420952 27.7425048,23.8769153 28.7224456,22.5851161 C31.2380867,21.7237283 33.1957459,19.5800496 33.7136339,17.116763 C33.843268,16.5009885 33.8973439,15.8420033 33.8742876,15.157506 C34.8161715,13.6776136 35.6423107,12.2967573 36.4736353,10.8123461 C36.4895617,10.7837273 36.505303,10.7532257 36.5208591,10.721971 C37.7274742,10.3859827 38.7666763,9.43130151 39.376697,8.09629171 C40.2672829,6.14786087 40.2016325,3.64371725 39.1917833,1.04552703 Z M25.6147575,10.8319784 C25.1543475,11.5633354 24.3629658,12 23.4975356,12 C23.0276497,12 22.5680212,11.8670171 22.1684716,11.615317 C21.6036316,11.2594583 21.2108226,10.7049558 21.0630186,10.0539162 C20.9152146,9.40287657 21.0293158,8.73307668 21.3851982,8.16802157 C21.8457059,7.43666458 22.6371853,7 23.5026155,7 C23.9725991,7 24.4321299,7.13298288 24.8315818,7.38478074 C25.3964218,7.74044399 25.7891331,8.29494646 25.9370348,8.9460838 C26.0848388,9.59722114 25.9704445,10.2669233 25.6147575,10.8319784 Z M29.2607951,14.1712218 C30.5025294,12.3745404 31.8156917,10.5886069 33.0629943,9 C33.2651818,9.1793193 33.4912746,9.35449032 33.7361844,9.52136475 C34.1419994,9.79788605 34.5664395,10.0117116 35,10.1581274 C33.9469164,11.9266192 32.8146283,13.6787065 31.4436707,15.6616838 C29.1910951,18.9210149 26.8489465,21.9486073 24.8485773,24.1867988 C23.731266,25.4369428 22.7534507,26.4021747 22,27 C22.2908005,26.0864332 22.8465759,24.8326123 23.6200917,23.3470527 C25.003242,20.6905438 27.0064914,17.4318727 29.2607951,14.1712218 Z M7.49832398,15 C7.02820755,15 6.56844912,14.8670171 6.16868893,14.6152193 C5.6036893,14.2594583 5.21096473,13.7051513 5.06302121,13.0539162 C4.91507769,12.4027789 5.029602,11.732979 5.38558499,11.1679239 C5.84592972,10.4366646 6.63763275,10 7.50320983,10 C7.97342397,10 8.4331824,10.1329829 8.83284488,10.3847807 C9.99919485,11.1193622 10.3505851,12.6658133 9.61643741,13.8318807 C9.15560409,14.5633354 8.36380334,15 7.49832398,15 Z M5.3852406,20.1681421 C5.84564639,19.4366731 6.63702073,19 7.50244294,19 C7.97232451,19 8.4318511,19.1330832 8.83159234,19.3847883 C9.39642711,19.7405562 9.78903709,20.2949718 9.93693744,20.9461218 C10.0849355,21.5970765 9.97044459,22.2667917 9.61446778,22.8320533 C9.15425738,23.5632292 8.36278534,24 7.49746083,24 C7.02748157,24 6.5677596,23.8670145 6.16801836,23.6152117 C5.60318359,23.2593461 5.21067129,22.7050282 5.06286863,22.0538782 C4.91516366,21.4029235 5.02975224,20.7331106 5.3852406,20.1681421 Z M12.3853453,5.16802157 C12.8459124,4.43666458 13.6376619,4 14.5032897,4 C14.9732382,4 15.4330236,4.13298288 15.8327095,4.38468303 C16.9992255,5.11906902 17.3506364,6.66561792 16.6163479,7.83188072 C16.1555853,8.56333542 15.3638359,9 14.4982081,9 C14.0281618,9 13.5683765,8.86701712 13.1686906,8.61521926 C12.6037556,8.25955601 12.2111057,7.70515125 12.0631535,7.0539162 C11.9150059,6.40287657 12.0295369,5.73317439 12.3853453,5.16802157 Z" id="Shape"></path>
            </g>
            <g id="020-pipette-tool" transform="translate(100.000000, 208.000000)" fill-rule="nonzero" fill="#1F1F22">
                <path d="M29.4453494,1.55670378 C28.4411941,0.552899197 27.105814,0 25.6857495,0 C24.2654995,0 22.9303978,0.552899197 21.9262424,1.55670378 L14.7215717,8.75895063 C14.4131645,8.66094385 14.0926992,8.61143049 13.7672253,8.61143049 C12.9271519,8.61143049 12.1373511,8.93836702 11.5430759,9.53224919 C10.6184108,10.456684 10.3651923,11.8481578 10.8933338,13.0337896 L2.07687598,21.8472605 C1.85788367,22.0662691 1.73999328,22.3665945 1.75168029,22.6760066 L1.88097943,26.0992899 L0.164936775,28.8893771 C-0.104977507,29.3279505 -0.0382873461,29.8946652 0.325957804,30.2589686 L0.74121768,30.6740834 C0.955943303,30.8886413 1.24097649,31 1.5286068,31 C1.72988309,31 1.93245793,30.9455724 2.11332832,30.8339355 L4.90874985,29.1071802 L8.31681186,29.2407921 C8.62688865,29.2530314 8.92796829,29.1349967 9.14742437,28.9158028 L17.964346,20.1018682 C18.3645797,20.2795229 18.8042339,20.3729863 19.2438881,20.3729863 C20.0838688,20.3729863 20.8732985,20.0460498 21.4672026,19.4521676 C22.2962383,18.6234215 22.5935151,17.388091 22.2406786,16.2752457 L29.4453494,9.07290614 C31.5182169,7.00076271 31.5182169,3.62893992 29.4453494,1.55670378 Z M11.0585613,23 L7,21.6634065 L13.3354269,15 L16,17.8025969 L11.0585613,23 Z" id="Shape"></path>
            </g>
            <g id="022-underline-text" transform="translate(103.000000, 340.000000)" fill-rule="nonzero" fill="#1F1F22">
                <path d="M25,0.804300489 C24.9950017,0.358659008 24.644752,0 24.2138819,0 L0.785932993,0 C0.351915822,0 -8.25173263e-14,0.364119361 -8.25173263e-14,0.813305282 L-8.25173263e-14,5.2872507 C-8.25173263e-14,5.73634083 0.351915822,6.10055598 0.785932993,6.10055598 L2.56180279,6.10055598 C2.80070198,6.10055598 3.02655011,5.98847504 3.17575798,5.79535096 L4.51150159,4.06690959 L10.1385449,4.06690959 L10.1385449,25.1865031 C10.1385449,25.635689 10.4904607,26 10.9244779,26 L14.068395,26 C14.5023196,26 14.854328,25.635689 14.854328,25.1865031 L14.854328,4.06700539 L20.474892,4.06700539 L21.8173,5.79697949 C21.9664153,5.98895402 22.1918932,6.10065178 22.4300519,6.10065178 L24.2055514,6.10065178 C24.4144609,6.10065178 24.61504,6.01443567 24.7628595,5.86116259 C24.9101236,5.70769792 24.9925026,5.4999171 24.9916695,5.28361047 L25,0.804300489 Z" id="Shape"></path>
                <path d="M20.3170162,27 L3.68289272,27 C2.75370268,27 2,27.6715933 2,28.4998376 C2,29.3280819 2.75361157,30 3.68289272,30 L20.3171073,30 C21.2462973,30 22,29.3283255 22,28.4998376 C22,27.6715933 21.2461151,27 20.3170162,27 Z" id="Shape"></path>
            </g>
            <g id="023-rubber-stamp" transform="translate(96.000000, 397.000000)" fill-rule="nonzero" fill="#1F1F22">
                <path d="M31.0616753,24.0586058 C30.7978712,23.7938592 30.4399719,23.6448216 30.0667809,23.6448216 L23.7553699,23.6448216 L23.7553699,15.970844 C23.7553699,15.0457375 24.2545527,14.0966231 24.8324451,12.9975295 C25.6200112,11.500563 26.5122734,9.80381265 26.5122734,7.53906235 C26.5122734,3.38201456 23.1421097,-2.14342433e-14 18.9998593,-2.14342433e-14 C14.8576088,-2.14342433e-14 11.487539,3.38201456 11.487539,7.53906235 C11.487539,9.80108234 12.378394,11.4932194 13.1647405,12.9868907 C13.7441339,14.0875848 14.2445363,15.0381114 14.2445363,15.9707498 L14.2445363,23.6448216 L7.93312526,23.6448216 C7.55984052,23.6448216 7.20194122,23.7935768 6.93813708,24.0585116 L6,25 L32,25 L31.0616753,24.0586058 Z" id="Shape"></path>
                <path d="M0,26 L2.00516973,31.0821507 C2.22475336,31.6386911 2.73164265,32 3.29282153,32 L34.7072717,32 C35.2684506,32 35.7752466,31.6386911 35.9948303,31.0821507 L38,26 L0,26 Z" id="Shape"></path>
            </g>
            <g id="024-paint-roller" transform="translate(97.000000, 451.000000)" fill-rule="nonzero" fill="#1F1F22">
                <path d="M36.7255113,20.6722381 L34.7498489,18.6718214 L35.2801676,18.134858 C35.4559717,17.9568512 35.5548908,17.7154265 35.5548908,17.4636536 C35.5548908,17.2119758 35.4559717,16.9704561 35.2801676,16.7923544 L18.9703344,0.277975417 C18.6041932,-0.0926584722 18.0103975,-0.0926584722 17.64435,0.277975417 L14.5945484,3.36598989 C14.2284071,3.73671871 14.2284071,4.33785954 14.5945484,4.7086833 L30.9042878,21.2227775 C31.0800919,21.4007843 31.3186228,21.5008478 31.5671863,21.5008478 C31.8158435,21.5008478 32.0544682,21.4007843 32.2302722,21.2227775 L32.7604035,20.685909 L33.4101752,21.3437272 L29.8697162,24.9285468 L20.0705395,15.0066851 C19.7046796,14.6360513 19.1109776,14.6361462 18.7445551,15.0066851 L12.605853,21.2223028 L12.2744038,20.8866057 C11.9081688,20.5160668 11.3145606,20.5160668 10.9483256,20.8866057 L0.274629354,31.6943241 C0.0988253122,31.8723309 0,32.1137556 0,32.3655284 C0,32.6173012 0.0988253122,32.8587259 0.274629354,33.0367327 L2.92669193,35.7218347 C3.10980942,35.9071517 3.34974678,36 3.58968413,36 C3.82962149,36 4.06965261,35.9071517 4.25267634,35.7218347 L14.9268414,24.9141163 C15.1026455,24.7361095 15.2014708,24.4946848 15.2014708,24.243007 C15.2014708,23.9912342 15.1026455,23.7497145 14.9268414,23.5717077 L14.5952047,23.2360106 L19.4079224,18.3630864 L29.207099,28.2851379 C29.3829031,28.4631447 29.6213403,28.5633032 29.8699975,28.5633032 C30.118561,28.5633032 30.3569981,28.4631447 30.5328022,28.2851379 L36.7251362,22.0150264 C37.0915587,21.6441077 37.0915587,21.0430618 36.7255113,20.6722381 Z" id="Shape"></path>
            </g>
            <polygon id="Path-7" fill="#979797" fill-rule="nonzero" points="159.999991 86.0042182 632.995776 87.0031917 633 85.0032065 158 84 158 494 159.999991 494"></polygon>
            <path d="M182,87 L183,87 L183,102 L182,102 L182,87 Z M188,87 L189,87 L189,102 L188,102 L188,87 Z M194,87 L195,87 L195,102 L194,102 L194,87 Z M200,87 L201,87 L201,102 L200,102 L200,87 Z M206,87 L207,87 L207,102 L206,102 L206,87 Z M212,87 L213,87 L213,102 L212,102 L212,87 Z M218,87 L219,87 L219,102 L218,102 L218,87 Z M224,87 L225,87 L225,102 L224,102 L224,87 Z M230,87 L231,87 L231,102 L230,102 L230,87 Z M236,87 L237,87 L237,102 L236,102 L236,87 Z M242,87 L243,87 L243,102 L242,102 L242,87 Z M248,87 L249,87 L249,102 L248,102 L248,87 Z M254,87 L255,87 L255,102 L254,102 L254,87 Z M260,87 L261,87 L261,102 L260,102 L260,87 Z M266,87 L267,87 L267,102 L266,102 L266,87 Z M272,87 L273,87 L273,102 L272,102 L272,87 Z M278,87 L279,87 L279,102 L278,102 L278,87 Z M284,87 L285,87 L285,102 L284,102 L284,87 Z M290,87 L291,87 L291,102 L290,102 L290,87 Z M296,87 L297,87 L297,102 L296,102 L296,87 Z M302,87 L303,87 L303,102 L302,102 L302,87 Z M308,87 L309,87 L309,102 L308,102 L308,87 Z M314,87 L315,87 L315,102 L314,102 L314,87 Z M320,87 L321,87 L321,102 L320,102 L320,87 Z M326,87 L327,87 L327,102 L326,102 L326,87 Z M332,87 L333,87 L333,102 L332,102 L332,87 Z M338,87 L339,87 L339,102 L338,102 L338,87 Z M344,87 L345,87 L345,102 L344,102 L344,87 Z M350,87 L351,87 L351,102 L350,102 L350,87 Z M356,87 L357,87 L357,102 L356,102 L356,87 Z M362,87 L363,87 L363,102 L362,102 L362,87 Z M368,87 L369,87 L369,102 L368,102 L368,87 Z M374,87 L375,87 L375,102 L374,102 L374,87 Z M380,87 L381,87 L381,102 L380,102 L380,87 Z M386,87 L387,87 L387,102 L386,102 L386,87 Z M392,87 L393,87 L393,102 L392,102 L392,87 Z M398,87 L399,87 L399,102 L398,102 L398,87 Z M404,87 L405,87 L405,102 L404,102 L404,87 Z M410,87 L411,87 L411,102 L410,102 L410,87 Z M416,87 L417,87 L417,102 L416,102 L416,87 Z M422,87 L423,87 L423,102 L422,102 L422,87 Z M428,87 L429,87 L429,102 L428,102 L428,87 Z M434,87 L435,87 L435,102 L434,102 L434,87 Z M440,87 L441,87 L441,102 L440,102 L440,87 Z M446,87 L447,87 L447,102 L446,102 L446,87 Z M452,87 L453,87 L453,102 L452,102 L452,87 Z M458,87 L459,87 L459,102 L458,102 L458,87 Z M464,87 L465,87 L465,102 L464,102 L464,87 Z M470,87 L471,87 L471,102 L470,102 L470,87 Z M476,87 L477,87 L477,102 L476,102 L476,87 Z M482,87 L483,87 L483,102 L482,102 L482,87 Z M488,87 L489,87 L489,102 L488,102 L488,87 Z M494,87 L495,87 L495,102 L494,102 L494,87 Z M500,87 L501,87 L501,102 L500,102 L500,87 Z M506,87 L507,87 L507,102 L506,102 L506,87 Z M512,87 L513,87 L513,102 L512,102 L512,87 Z M518,87 L519,87 L519,102 L518,102 L518,87 Z M524,87 L525,87 L525,102 L524,102 L524,87 Z M530,87 L531,87 L531,102 L530,102 L530,87 Z M536,87 L537,87 L537,102 L536,102 L536,87 Z M542,87 L543,87 L543,102 L542,102 L542,87 Z M548,87 L549,87 L549,102 L548,102 L548,87 Z M554,87 L555,87 L555,102 L554,102 L554,87 Z M560,87 L561,87 L561,102 L560,102 L560,87 Z M566,87 L567,87 L567,102 L566,102 L566,87 Z M572,87 L573,87 L573,102 L572,102 L572,87 Z M578,87 L579,87 L579,102 L578,102 L578,87 Z M584,87 L585,87 L585,102 L584,102 L584,87 Z M590,87 L591,87 L591,102 L590,102 L590,87 Z M596,87 L597,87 L597,102 L596,102 L596,87 Z M602,87 L603,87 L603,102 L602,102 L602,87 Z M608,87 L609,87 L609,102 L608,102 L608,87 Z M614,87 L615,87 L615,102 L614,102 L614,87 Z M620,87 L621,87 L621,102 L620,102 L620,87 Z M626,87 L627,87 L627,102 L626,102 L626,87 Z M632,87 L633,87 L633,102 L632,102 L632,87 Z" id="Combined-Shape" fill="#979797" fill-rule="nonzero"></path>
            <path d="M-24.0177921,293.017792 L-23.0177921,293.017792 L-23.0177921,307.982208 L-24.0177921,307.982208 L-24.0177921,293.017792 Z M-18.0177921,293.017792 L-17.0177921,293.017792 L-17.0177921,307.982208 L-18.0177921,307.982208 L-18.0177921,293.017792 Z M-12.0177921,293.017792 L-11.0177921,293.017792 L-11.0177921,307.982208 L-12.0177921,307.982208 L-12.0177921,293.017792 Z M-6.01779212,293.017792 L-5.01779212,293.017792 L-5.01779212,307.982208 L-6.01779212,307.982208 L-6.01779212,293.017792 Z M-0.0177921155,293.017792 L0.982207884,293.017792 L0.982207884,307.982208 L-0.0177921155,307.982208 L-0.0177921155,293.017792 Z M5.98220788,293.017792 L6.98220788,293.017792 L6.98220788,307.982208 L5.98220788,307.982208 L5.98220788,293.017792 Z M11.9822079,293.017792 L12.9822079,293.017792 L12.9822079,307.982208 L11.9822079,307.982208 L11.9822079,293.017792 Z M17.9822079,293.017792 L18.9822079,293.017792 L18.9822079,307.982208 L17.9822079,307.982208 L17.9822079,293.017792 Z M23.9822079,293.017792 L24.9822079,293.017792 L24.9822079,307.982208 L23.9822079,307.982208 L23.9822079,293.017792 Z M29.9822079,293.017792 L30.9822079,293.017792 L30.9822079,307.982208 L29.9822079,307.982208 L29.9822079,293.017792 Z M35.9822079,293.017792 L36.9822079,293.017792 L36.9822079,307.982208 L35.9822079,307.982208 L35.9822079,293.017792 Z M41.9822079,293.017792 L42.9822079,293.017792 L42.9822079,307.982208 L41.9822079,307.982208 L41.9822079,293.017792 Z M47.9822079,293.017792 L48.9822079,293.017792 L48.9822079,307.982208 L47.9822079,307.982208 L47.9822079,293.017792 Z M53.9822079,293.017792 L54.9822079,293.017792 L54.9822079,307.982208 L53.9822079,307.982208 L53.9822079,293.017792 Z M59.9822079,293.017792 L60.9822079,293.017792 L60.9822079,307.982208 L59.9822079,307.982208 L59.9822079,293.017792 Z M65.9822079,293.017792 L66.9822079,293.017792 L66.9822079,307.982208 L65.9822079,307.982208 L65.9822079,293.017792 Z M71.9822079,293.017792 L72.9822079,293.017792 L72.9822079,307.982208 L71.9822079,307.982208 L71.9822079,293.017792 Z M77.9822079,293.017792 L78.9822079,293.017792 L78.9822079,307.982208 L77.9822079,307.982208 L77.9822079,293.017792 Z M83.9822079,293.017792 L84.9822079,293.017792 L84.9822079,307.982208 L83.9822079,307.982208 L83.9822079,293.017792 Z M89.9822079,293.017792 L90.9822079,293.017792 L90.9822079,307.982208 L89.9822079,307.982208 L89.9822079,293.017792 Z M95.9822079,293.017792 L96.9822079,293.017792 L96.9822079,307.982208 L95.9822079,307.982208 L95.9822079,293.017792 Z M101.982208,293.017792 L102.982208,293.017792 L102.982208,307.982208 L101.982208,307.982208 L101.982208,293.017792 Z M107.982208,293.017792 L108.982208,293.017792 L108.982208,307.982208 L107.982208,307.982208 L107.982208,293.017792 Z M113.982208,293.017792 L114.982208,293.017792 L114.982208,307.982208 L113.982208,307.982208 L113.982208,293.017792 Z M119.982208,293.017792 L120.982208,293.017792 L120.982208,307.982208 L119.982208,307.982208 L119.982208,293.017792 Z M125.982208,293.017792 L126.982208,293.017792 L126.982208,307.982208 L125.982208,307.982208 L125.982208,293.017792 Z M131.982208,293.017792 L132.982208,293.017792 L132.982208,307.982208 L131.982208,307.982208 L131.982208,293.017792 Z M137.982208,293.017792 L138.982208,293.017792 L138.982208,307.982208 L137.982208,307.982208 L137.982208,293.017792 Z M143.982208,293.017792 L144.982208,293.017792 L144.982208,307.982208 L143.982208,307.982208 L143.982208,293.017792 Z M149.982208,293.017792 L150.982208,293.017792 L150.982208,307.982208 L149.982208,307.982208 L149.982208,293.017792 Z M155.982208,293.017792 L156.982208,293.017792 L156.982208,307.982208 L155.982208,307.982208 L155.982208,293.017792 Z M161.982208,293.017792 L162.982208,293.017792 L162.982208,307.982208 L161.982208,307.982208 L161.982208,293.017792 Z M167.982208,293.017792 L168.982208,293.017792 L168.982208,307.982208 L167.982208,307.982208 L167.982208,293.017792 Z M173.982208,293.017792 L174.982208,293.017792 L174.982208,307.982208 L173.982208,307.982208 L173.982208,293.017792 Z M179.982208,293.017792 L180.982208,293.017792 L180.982208,307.982208 L179.982208,307.982208 L179.982208,293.017792 Z M185.982208,293.017792 L186.982208,293.017792 L186.982208,307.982208 L185.982208,307.982208 L185.982208,293.017792 Z M191.982208,293.017792 L192.982208,293.017792 L192.982208,307.982208 L191.982208,307.982208 L191.982208,293.017792 Z M197.982208,293.017792 L198.982208,293.017792 L198.982208,307.982208 L197.982208,307.982208 L197.982208,293.017792 Z M203.982208,293.017792 L204.982208,293.017792 L204.982208,307.982208 L203.982208,307.982208 L203.982208,293.017792 Z M209.982208,293.017792 L210.982208,293.017792 L210.982208,307.982208 L209.982208,307.982208 L209.982208,293.017792 Z M215.982208,293.017792 L216.982208,293.017792 L216.982208,307.982208 L215.982208,307.982208 L215.982208,293.017792 Z M221.982208,293.017792 L222.982208,293.017792 L222.982208,307.982208 L221.982208,307.982208 L221.982208,293.017792 Z M227.982208,293.017792 L228.982208,293.017792 L228.982208,307.982208 L227.982208,307.982208 L227.982208,293.017792 Z M233.982208,293.017792 L234.982208,293.017792 L234.982208,307.982208 L233.982208,307.982208 L233.982208,293.017792 Z M239.982208,293.017792 L240.982208,293.017792 L240.982208,307.982208 L239.982208,307.982208 L239.982208,293.017792 Z M245.982208,293.017792 L246.982208,293.017792 L246.982208,307.982208 L245.982208,307.982208 L245.982208,293.017792 Z M251.982208,293.017792 L252.982208,293.017792 L252.982208,307.982208 L251.982208,307.982208 L251.982208,293.017792 Z M257.982208,293.017792 L258.982208,293.017792 L258.982208,307.982208 L257.982208,307.982208 L257.982208,293.017792 Z M263.982208,293.017792 L264.982208,293.017792 L264.982208,307.982208 L263.982208,307.982208 L263.982208,293.017792 Z M269.982208,293.017792 L270.982208,293.017792 L270.982208,307.982208 L269.982208,307.982208 L269.982208,293.017792 Z M275.982208,293.017792 L276.982208,293.017792 L276.982208,307.982208 L275.982208,307.982208 L275.982208,293.017792 Z M281.982208,293.017792 L282.982208,293.017792 L282.982208,307.982208 L281.982208,307.982208 L281.982208,293.017792 Z M287.982208,293.017792 L288.982208,293.017792 L288.982208,307.982208 L287.982208,307.982208 L287.982208,293.017792 Z M293.982208,293.017792 L294.982208,293.017792 L294.982208,307.982208 L293.982208,307.982208 L293.982208,293.017792 Z M299.982208,293.017792 L300.982208,293.017792 L300.982208,307.982208 L299.982208,307.982208 L299.982208,293.017792 Z M305.982208,293.017792 L306.982208,293.017792 L306.982208,307.982208 L305.982208,307.982208 L305.982208,293.017792 Z M311.982208,293.017792 L312.982208,293.017792 L312.982208,307.982208 L311.982208,307.982208 L311.982208,293.017792 Z M317.982208,293.017792 L318.982208,293.017792 L318.982208,307.982208 L317.982208,307.982208 L317.982208,293.017792 Z M323.982208,293.017792 L324.982208,293.017792 L324.982208,307.982208 L323.982208,307.982208 L323.982208,293.017792 Z M329.982208,293.017792 L330.982208,293.017792 L330.982208,307.982208 L329.982208,307.982208 L329.982208,293.017792 Z M335.982208,293.017792 L336.982208,293.017792 L336.982208,307.982208 L335.982208,307.982208 L335.982208,293.017792 Z M341.982208,293.017792 L342.982208,293.017792 L342.982208,307.982208 L341.982208,307.982208 L341.982208,293.017792 Z M347.982208,293.017792 L348.982208,293.017792 L348.982208,307.982208 L347.982208,307.982208 L347.982208,293.017792 Z M353.982208,293.017792 L354.982208,293.017792 L354.982208,307.982208 L353.982208,307.982208 L353.982208,293.017792 Z M359.982208,293.017792 L360.982208,293.017792 L360.982208,307.982208 L359.982208,307.982208 L359.982208,293.017792 Z" id="Combined-Shape" fill="#979797" fill-rule="nonzero" transform="translate(168.482208, 300.500000) rotate(90.000000) translate(-168.482208, -300.500000) "></path>
            <rect id="Rectangle-4" fill="#979797" x="161" y="87" width="15" height="15"></rect>
        </g>
    </g>
</svg>