<?xml version="1.0" encoding="UTF-8"?>
<svg width="707px" height="675px" viewBox="0 0 707 675" version="1.1" xmlns="http://www.w3.org/2000/svg" xmlns:xlink="http://www.w3.org/1999/xlink">
    <!-- Generator: Sketch 47.1 (45422) - http://www.bohemiancoding.com/sketch -->
    <title>Artboard Copy</title>
    <desc>Created with Sketch.</desc>
    <defs>
        <linearGradient x1="0%" y1="38.9838346%" x2="100%" y2="61.0161654%" id="linearGradient-1">
            <stop stop-color="#A7C6E0" offset="0%"></stop>
            <stop stop-color="#4775B7" offset="100%"></stop>
        </linearGradient>
        <linearGradient x1="61.2377483%" y1="100%" x2="38.7622517%" y2="0%" id="linearGradient-2">
            <stop stop-color="#F9933E" offset="0%"></stop>
            <stop stop-color="#F36784" offset="100%"></stop>
        </linearGradient>
        <linearGradient x1="85.1020408%" y1="100%" x2="14.8979592%" y2="0%" id="linearGradient-3">
            <stop stop-color="#F56829" offset="30%"></stop>
            <stop stop-color="#F56829" offset="30.4%"></stop>
            <stop stop-color="#F6712D" stop-opacity="0" offset="63.5%"></stop>
            <stop stop-color="#F7752F" offset="76.7%"></stop>
        </linearGradient>
        <linearGradient x1="58.0534884%" y1="100%" x2="41.9465116%" y2="0%" id="linearGradient-4">
            <stop stop-color="#F9933E" offset="0%"></stop>
            <stop stop-color="#F9933E" offset="100%"></stop>
        </linearGradient>
        <linearGradient x1="58801.9565%" y1="92700%" x2="57375.4402%" y2="81000%" id="linearGradient-5">
            <stop stop-color="#F9933E" offset="0%"></stop>
            <stop stop-color="#F9933E" offset="100%"></stop>
        </linearGradient>
        <linearGradient x1="70.0746032%" y1="100%" x2="29.9253968%" y2="0%" id="linearGradient-6">
            <stop stop-color="#181C39" offset="0%"></stop>
            <stop stop-color="#1E3367" offset="100%"></stop>
        </linearGradient>
        <linearGradient x1="0%" y1="66.3253333%" x2="100%" y2="33.6746667%" id="linearGradient-7">
            <stop stop-color="#F46482" offset="41.3%"></stop>
            <stop stop-color="#DC5F81" offset="60.4%"></stop>
            <stop stop-color="#AB547E" offset="100%"></stop>
        </linearGradient>
        <linearGradient x1="62.8883495%" y1="100%" x2="37.1116505%" y2="0%" id="linearGradient-8">
            <stop stop-color="#EF657F" offset="0%"></stop>
            <stop stop-color="#F1687F" offset="100%"></stop>
        </linearGradient>
        <linearGradient x1="50%" y1="100%" x2="50%" y2="-0.0340202543%" id="linearGradient-9">
            <stop stop-color="#0A1D4C" offset="0%"></stop>
            <stop stop-color="#354B96" offset="100%"></stop>
        </linearGradient>
        <linearGradient x1="37.6435484%" y1="100%" x2="62.3564516%" y2="0%" id="linearGradient-10">
            <stop stop-color="#2A4085" offset="0%"></stop>
            <stop stop-color="#B7567C" offset="100%"></stop>
        </linearGradient>
        <rect id="path-11" x="0" y="0" width="133" height="606"></rect>
        <filter x="-36.8%" y="-8.1%" width="175.2%" height="116.2%" filterUnits="objectBoundingBox" id="filter-12">
            <feOffset dx="-2" dy="0" in="SourceAlpha" result="shadowOffsetOuter1"></feOffset>
            <feColorMatrix values="0 0 0 0 0.323315264   0 0 0 0 0.323315264   0 0 0 0 0.323315264  0 0 0 1 0" type="matrix" in="shadowOffsetOuter1" result="shadowMatrixOuter1"></feColorMatrix>
            <feOffset dx="0" dy="0" in="SourceAlpha" result="shadowOffsetOuter2"></feOffset>
            <feColorMatrix values="0 0 0 0 0.321568627   0 0 0 0 0.321568627   0 0 0 0 0.321568627  0 0 0 1 0" type="matrix" in="shadowOffsetOuter2" result="shadowMatrixOuter2"></feColorMatrix>
            <feOffset dx="2" dy="0" in="SourceAlpha" result="shadowOffsetOuter3"></feOffset>
            <feGaussianBlur stdDeviation="16" in="shadowOffsetOuter3" result="shadowBlurOuter3"></feGaussianBlur>
            <feColorMatrix values="0 0 0 0 0.379490859   0 0 0 0 0.379490859   0 0 0 0 0.379490859  0 0 0 1 0" type="matrix" in="shadowBlurOuter3" result="shadowMatrixOuter3"></feColorMatrix>
            <feMerge>
                <feMergeNode in="shadowMatrixOuter1"></feMergeNode>
                <feMergeNode in="shadowMatrixOuter2"></feMergeNode>
                <feMergeNode in="shadowMatrixOuter3"></feMergeNode>
            </feMerge>
        </filter>
    </defs>
    <g id="Page-1" stroke="none" stroke-width="1" fill="none" fill-rule="evenodd">
        <g id="Artboard-Copy">
            <g id="Group" transform="translate(172.000000, 197.000000)">
                <path d="M397.303142,265 L401,263.865052 L400.696858,263 L397,264.134948 L397.303142,265 Z M405.303142,262 L409,260.865052 L408.696858,260 L405,261.134948 L405.303142,262 Z M412.303142,260 L416,258.865052 L415.696858,258 L412,259.134948 L412.303142,260 Z M420.303142,257 L424,255.865052 L423.696858,255 L420,256.134948 L420.303142,257 Z M427.303142,255 L431,253.865052 L430.696858,253 L427,254.134948 L427.303142,255 Z M435.303142,252 L439,250.865052 L438.696858,250 L435,251.134948 L435.303142,252 Z M442.303142,250 L446,248.865052 L445.696858,248 L442,249.134948 L442.303142,250 Z M450.303142,247 L454,245.865052 L453.696858,245 L450,246.134948 L450.303142,247 Z M458.303142,245 L462,243.865052 L461.696858,243 L458,244.134948 L458.303142,245 Z M465.303142,242 L469,240.865052 L468.696858,240 L465,241.134948 L465.303142,242 Z M473.303142,240 L477,238.865052 L476.696858,238 L473,239.134948 L473.303142,240 Z M480.303142,237 L484,235.865052 L483.696858,235 L480,236.134948 L480.303142,237 Z M488.303142,235 L492,233.865052 L491.696858,233 L488,234.134948 L488.303142,235 Z M496.303142,232 L500,230.865052 L499.696858,230 L496,231.134948 L496.303142,232 Z M503.303142,230 L507,228.865052 L506.696858,228 L503,229.134948 L503.303142,230 Z M511.303142,227 L515,225.865052 L514.696858,225 L511,226.134948 L511.303142,227 Z M518.338121,225 L522,223.923726 L521.661879,223 L518,224.076274 L518.338121,225 Z" id="Фигура_10" fill="#828282" fill-rule="nonzero"></path>
                <path d="M414,147.026316 L417.570815,149 L418,147.973684 L414.429185,146 L414,147.026316 Z M421,150.026316 L424.570815,152 L425,150.973684 L421.429185,149 L421,150.026316 Z M428,154.026316 L431.570815,156 L432,154.973684 L428.429185,153 L428,154.026316 Z M436,157.026316 L439.570815,159 L440,157.973684 L436.429185,156 L436,157.026316 Z M443,161.026316 L446.570815,163 L447,161.973684 L443.429185,160 L443,161.026316 Z M450,164.026316 L453.570815,166 L454,164.973684 L450.429185,163 L450,164.026316 Z M457,168.026316 L460.570815,170 L461,168.973684 L457.429185,167 L457,168.026316 Z M464,171.026316 L467.570815,173 L468,171.973684 L464.429185,170 L464,171.026316 Z M471,175.026316 L474.570815,177 L475,175.973684 L471.429185,174 L471,175.026316 Z M479,178.026316 L482.570815,180 L483,178.973684 L479.429185,177 L479,178.026316 Z M486,182.026316 L489.570815,184 L490,182.973684 L486.429185,181 L486,182.026316 Z M493,185.026316 L496.570815,187 L497,185.973684 L493.429185,184 L493,185.026316 Z M500,189.026316 L503.570815,191 L504,189.973684 L500.429185,188 L500,189.026316 Z M507,192.026316 L510.570815,194 L511,192.973684 L507.429185,191 L507,192.026316 Z M515,195.759821 L517.627863,197 L518,196.240179 L515.372137,195 L515,195.759821 Z" id="Фигура_11" fill="#828282" fill-rule="nonzero"></path>
                <path d="M397,155 L397,151 L396,151 L396,155 L397,155 Z M397,147 L397,143 L396,143 L396,147 L397,147 Z M397,139 L397,135 L396,135 L396,139 L397,139 Z M397,131 L397,127 L396,127 L396,131 L397,131 Z M397,123 L397,119 L396,119 L396,123 L397,123 Z M397,115 L397,111 L396,111 L396,115 L397,115 Z M397,107 L397,103 L396,103 L396,107 L397,107 Z M397,99 L397,95 L396,95 L396,99 L397,99 Z M397,91 L397,87 L396,87 L396,91 L397,91 Z M397,83 L397,79 L396,79 L396,83 L397,83 Z M397,75 L397,71 L396,71 L396,75 L397,75 Z M397,67 L397,63 L396,63 L396,67 L397,67 Z M397,59 L397,55 L396,55 L396,59 L397,59 Z M397,51 L397,47 L396,47 L396,51 L397,51 Z M397,43 L397,39 L396,39 L396,43 L397,43 Z M397,35 L397,31 L396,31 L396,35 L397,35 Z M397,27 L397,23 L396,23 L396,27 L397,27 Z M397,19 L397,15 L396,15 L396,19 L397,19 Z M397,11 L397,7 L396,7 L396,11 L397,11 Z M397,3 L397,0 L396,0 L396,3 L397,3 Z" id="Фигура_12" fill="#828282" fill-rule="nonzero"></path>
                <path d="M383,40 L387,40 L387,39 L383,39 L383,40 Z M391,40 L395,40 L395,39 L391,39 L391,40 Z M399,40 L403,40 L403,39 L399,39 L399,40 Z M407,40 L411,40 L411,39 L407,39 L407,40 Z M415,40 L419,40 L419,39 L415,39 L415,40 Z M423,40 L427,40 L427,39 L423,39 L423,40 Z M431,40 L435,40 L435,39 L431,39 L431,40 Z M439,40 L443,40 L443,39 L439,39 L439,40 Z M447,40 L451,40 L451,39 L447,39 L447,40 Z M455,40 L459,40 L459,39 L455,39 L455,40 Z M463,40 L467,40 L467,39 L463,39 L463,40 Z M471,40 L475,40 L475,39 L471,39 L471,40 Z" id="Фигура_15" fill="#828282" fill-rule="nonzero"></path>
                <path d="M440.67893,281 L441,277.114833 L440.32107,277 L440,280.885167 L440.67893,281 Z M441.67893,273 L442,269.114833 L441.32107,269 L441,272.885167 L441.67893,273 Z M442.67893,265 L443,261.114833 L442.32107,261 L442,264.885167 L442.67893,265 Z M443.67893,257 L444,253.114833 L443.32107,253 L443,256.885167 L443.67893,257 Z M444.67893,249 L445,245.114833 L444.32107,245 L444,248.885167 L444.67893,249 Z M445.67893,241 L446,237.114833 L445.32107,237 L445,240.885167 L445.67893,241 Z M446.67893,233 L447,229.114833 L446.32107,229 L446,232.885167 L446.67893,233 Z M447.67893,225 L448,221.114833 L447.32107,221 L447,224.885167 L447.67893,225 Z M448.67893,217 L449,213.114833 L448.32107,213 L448,216.885167 L448.67893,217 Z M448.67893,209 L449,205.114833 L448.32107,205 L448,208.885167 L448.67893,209 Z M449.67893,201 L450,197.114833 L449.32107,197 L449,200.885167 L449.67893,201 Z M450.67893,193 L451,189.114833 L450.32107,189 L450,192.885167 L450.67893,193 Z M451.67893,185 L452,181.114833 L451.32107,181 L451,184.885167 L451.67893,185 Z M452.67893,177 L453,173.114833 L452.32107,173 L452,176.885167 L452.67893,177 Z M453.67893,170 L454,166.114833 L453.32107,166 L453,169.885167 L453.67893,170 Z M454.67893,162 L455,158.114833 L454.32107,158 L454,161.885167 L454.67893,162 Z M455.67893,154 L456,150.114833 L455.32107,150 L455,153.885167 L455.67893,154 Z M456.67893,146 L457,142.114833 L456.32107,142 L456,145.885167 L456.67893,146 Z M457.67893,138 L458,134.114833 L457.32107,134 L457,137.885167 L457.67893,138 Z M458.67893,130 L459,126.114833 L458.32107,126 L458,129.885167 L458.67893,130 Z M459.67893,122 L460,118.114833 L459.32107,118 L459,121.885167 L459.67893,122 Z M460.67893,114 L461,110.114833 L460.32107,110 L460,113.885167 L460.67893,114 Z M461.67893,106 L462,102.114833 L461.32107,102 L461,105.885167 L461.67893,106 Z M462.67893,98 L463,94.1148325 L462.32107,94 L462,97.8851675 L462.67893,98 Z M463.67893,90 L464,86.1148325 L463.32107,86 L463,89.8851675 L463.67893,90 Z M464.67893,82 L465,78.1148325 L464.32107,78 L464,81.8851675 L464.67893,82 Z" id="Фигура_13" fill="#828282" fill-rule="nonzero"></path>
                <path d="M468.03321,199 L467,202.749553 L467.96679,203 L469,199.250447 L468.03321,199 Z M466.03321,207 L465,210.749553 L465.96679,211 L467,207.250447 L466.03321,207 Z M464.03321,214 L463,217.749553 L463.96679,218 L465,214.250447 L464.03321,214 Z M462.03321,222 L461,225.749553 L461.96679,226 L463,222.250447 L462.03321,222 Z M460.03321,230 L459,233.749553 L459.96679,234 L461,230.250447 L460.03321,230 Z M458.03321,238 L457,241.749553 L457.96679,242 L459,238.250447 L458.03321,238 Z M456.03321,245 L455,248.749553 L455.96679,249 L457,245.250447 L456.03321,245 Z M454.03321,253 L453,256.749553 L453.96679,257 L455,253.250447 L454.03321,253 Z M452.03321,261 L451,264.749553 L451.96679,265 L453,261.250447 L452.03321,261 Z M449.03321,269 L448,272.749553 L448.96679,273 L450,269.250447 L449.03321,269 Z M447.03321,276 L446,279.749553 L446.96679,280 L448,276.250447 L447.03321,276 Z M445.03321,284 L444,287.749553 L444.96679,288 L446,284.250447 L445.03321,284 Z M443.03321,292 L442,295.749553 L442.96679,296 L444,292.250447 L443.03321,292 Z M441.03321,300 L440,303.749553 L440.96679,304 L442,300.250447 L441.03321,300 Z M439.03321,307 L438,310.749553 L438.96679,311 L440,307.250447 L439.03321,307 Z M437.03321,315 L436,318.749553 L436.96679,319 L438,315.250447 L437.03321,315 Z M435.03321,323 L434,326.749553 L434.96679,327 L436,323.250447 L435.03321,323 Z" id="Фигура_14" fill="#828282" fill-rule="nonzero"></path>
                <rect id="Прямоугольник_1" fill="url(#linearGradient-1)" fill-rule="nonzero" x="0" y="39" width="397" height="266"></rect>
                <polygon id="Прямоугольник_1_копия" fill="url(#linearGradient-2)" points="88 211 146 120 239 267 143 262"></polygon>
                <path d="M442.256637,61 L441,64.6177658 L441.743363,65 L443,61.3822342 L442.256637,61 Z M438.256637,68 L437,71.6177658 L437.743363,72 L439,68.3822342 L438.256637,68 Z M435.256637,76 L434,79.6177658 L434.743363,80 L436,76.3822342 L435.256637,76 Z M432.256637,83 L431,86.6177658 L431.743363,87 L433,83.3822342 L432.256637,83 Z M429.256637,90 L428,93.6177658 L428.743363,94 L430,90.3822342 L429.256637,90 Z M426.256637,98 L425,101.617766 L425.743363,102 L427,98.3822342 L426.256637,98 Z M423.256637,105 L422,108.617766 L422.743363,109 L424,105.382234 L423.256637,105 Z M420.256637,113 L419,116.617766 L419.743363,117 L421,113.382234 L420.256637,113 Z M417.256637,120 L416,123.617766 L416.743363,124 L418,120.382234 L417.256637,120 Z M413.256637,127 L412,130.617766 L412.743363,131 L414,127.382234 L413.256637,127 Z M410.256637,135 L409,138.617766 L409.743363,139 L411,135.382234 L410.256637,135 Z M407.256637,142 L406,145.617766 L406.743363,146 L408,142.382234 L407.256637,142 Z M404.256637,149 L403,152.617766 L403.743363,153 L405,149.382234 L404.256637,149 Z M401.256637,157 L400,160.617766 L400.743363,161 L402,157.382234 L401.256637,157 Z M398.256637,164 L397,167.617766 L397.743363,168 L399,164.382234 L398.256637,164 Z M395.256637,171 L394,174.617766 L394.743363,175 L396,171.382234 L395.256637,171 Z M392.256637,179 L391,182.617766 L391.743363,183 L393,179.382234 L392.256637,179 Z M389.256637,186 L388,189.617766 L388.743363,190 L390,186.382234 L389.256637,186 Z M385.256637,193 L384,196.617766 L384.743363,197 L386,193.382234 L385.256637,193 Z M382.256637,201 L381,204.617766 L381.743363,205 L383,201.382234 L382.256637,201 Z M379.256637,208 L378,211.617766 L378.743363,212 L380,208.382234 L379.256637,208 Z M376.256637,216 L375,219.617766 L375.743363,220 L377,216.382234 L376.256637,216 Z M373.256637,223 L372,226.617766 L372.743363,227 L374,223.382234 L373.256637,223 Z" id="Фигура_14_копия" fill="#828282" fill-rule="nonzero"></path>
                <polygon id="Фигура_2" fill="url(#linearGradient-3)" points="191 191 197 201 159 242 148 232"></polygon>
                <polygon id="Прямоугольник_1_копия_2" fill="url(#linearGradient-4)" points="140 257 216 175 312 295 218 281"></polygon>
                <polygon id="Прямоугольник_1_копия_3" fill="url(#linearGradient-5)" points="2 255 66 184 163 301 68 299"></polygon>
                <path d="M156,244 L408,142 L345,292 C345,292 301.71,285.1 258,274 C207.68,261.219 156,244 156,244 Z" id="Фигура_4" fill="url(#linearGradient-6)"></path>
                <polygon id="Фигура_5" fill="url(#linearGradient-7)" points="344 292 407 142 454 165 440 281"></polygon>
                <polygon id="Фигура_1" fill="url(#linearGradient-8)" points="0 200 217 305 410 304 0 182"></polygon>
                <polygon id="Фигура_6" fill="#162039" points="0 200 217 305 0 305"></polygon>
                <path d="M0,252.951866 C0,252.951866 34.23,240.58543 244,305 C2.95,303.898982 1,305 1,305 L0,252.951866 Z" id="Фигура_7" fill="url(#linearGradient-9)"></path>
                <polygon id="Фигура_8" fill="url(#linearGradient-10)" points="271 305 336 284 457 244 441 305"></polygon>
            </g>
            <polygon id="Path-7" fill="#979797" fill-rule="nonzero" points="123.999991 166.004218 596.995776 167.003192 597 165.003206 122 164 122 574 123.999991 574"></polygon>
            <path d="M146,167 L147,167 L147,182 L146,182 L146,167 Z M152,167 L153,167 L153,182 L152,182 L152,167 Z M158,167 L159,167 L159,182 L158,182 L158,167 Z M164,167 L165,167 L165,182 L164,182 L164,167 Z M170,167 L171,167 L171,182 L170,182 L170,167 Z M176,167 L177,167 L177,182 L176,182 L176,167 Z M182,167 L183,167 L183,182 L182,182 L182,167 Z M188,167 L189,167 L189,182 L188,182 L188,167 Z M194,167 L195,167 L195,182 L194,182 L194,167 Z M200,167 L201,167 L201,182 L200,182 L200,167 Z M206,167 L207,167 L207,182 L206,182 L206,167 Z M212,167 L213,167 L213,182 L212,182 L212,167 Z M218,167 L219,167 L219,182 L218,182 L218,167 Z M224,167 L225,167 L225,182 L224,182 L224,167 Z M230,167 L231,167 L231,182 L230,182 L230,167 Z M236,167 L237,167 L237,182 L236,182 L236,167 Z M242,167 L243,167 L243,182 L242,182 L242,167 Z M248,167 L249,167 L249,182 L248,182 L248,167 Z M254,167 L255,167 L255,182 L254,182 L254,167 Z M260,167 L261,167 L261,182 L260,182 L260,167 Z M266,167 L267,167 L267,182 L266,182 L266,167 Z M272,167 L273,167 L273,182 L272,182 L272,167 Z M278,167 L279,167 L279,182 L278,182 L278,167 Z M284,167 L285,167 L285,182 L284,182 L284,167 Z M290,167 L291,167 L291,182 L290,182 L290,167 Z M296,167 L297,167 L297,182 L296,182 L296,167 Z M302,167 L303,167 L303,182 L302,182 L302,167 Z M308,167 L309,167 L309,182 L308,182 L308,167 Z M314,167 L315,167 L315,182 L314,182 L314,167 Z M320,167 L321,167 L321,182 L320,182 L320,167 Z M326,167 L327,167 L327,182 L326,182 L326,167 Z M332,167 L333,167 L333,182 L332,182 L332,167 Z M338,167 L339,167 L339,182 L338,182 L338,167 Z M344,167 L345,167 L345,182 L344,182 L344,167 Z M350,167 L351,167 L351,182 L350,182 L350,167 Z M356,167 L357,167 L357,182 L356,182 L356,167 Z M362,167 L363,167 L363,182 L362,182 L362,167 Z M368,167 L369,167 L369,182 L368,182 L368,167 Z M374,167 L375,167 L375,182 L374,182 L374,167 Z M380,167 L381,167 L381,182 L380,182 L380,167 Z M386,167 L387,167 L387,182 L386,182 L386,167 Z M392,167 L393,167 L393,182 L392,182 L392,167 Z M398,167 L399,167 L399,182 L398,182 L398,167 Z M404,167 L405,167 L405,182 L404,182 L404,167 Z M410,167 L411,167 L411,182 L410,182 L410,167 Z M416,167 L417,167 L417,182 L416,182 L416,167 Z M422,167 L423,167 L423,182 L422,182 L422,167 Z M428,167 L429,167 L429,182 L428,182 L428,167 Z M434,167 L435,167 L435,182 L434,182 L434,167 Z M440,167 L441,167 L441,182 L440,182 L440,167 Z M446,167 L447,167 L447,182 L446,182 L446,167 Z M452,167 L453,167 L453,182 L452,182 L452,167 Z M458,167 L459,167 L459,182 L458,182 L458,167 Z M464,167 L465,167 L465,182 L464,182 L464,167 Z M470,167 L471,167 L471,182 L470,182 L470,167 Z M476,167 L477,167 L477,182 L476,182 L476,167 Z M482,167 L483,167 L483,182 L482,182 L482,167 Z M488,167 L489,167 L489,182 L488,182 L488,167 Z M494,167 L495,167 L495,182 L494,182 L494,167 Z M500,167 L501,167 L501,182 L500,182 L500,167 Z M506,167 L507,167 L507,182 L506,182 L506,167 Z M512,167 L513,167 L513,182 L512,182 L512,167 Z M518,167 L519,167 L519,182 L518,182 L518,167 Z M524,167 L525,167 L525,182 L524,182 L524,167 Z M530,167 L531,167 L531,182 L530,182 L530,167 Z M536,167 L537,167 L537,182 L536,182 L536,167 Z M542,167 L543,167 L543,182 L542,182 L542,167 Z M548,167 L549,167 L549,182 L548,182 L548,167 Z M554,167 L555,167 L555,182 L554,182 L554,167 Z M560,167 L561,167 L561,182 L560,182 L560,167 Z M566,167 L567,167 L567,182 L566,182 L566,167 Z M572,167 L573,167 L573,182 L572,182 L572,167 Z M578,167 L579,167 L579,182 L578,182 L578,167 Z M584,167 L585,167 L585,182 L584,182 L584,167 Z M590,167 L591,167 L591,182 L590,182 L590,167 Z M596,167 L597,167 L597,182 L596,182 L596,167 Z" id="Combined-Shape" fill="#979797" fill-rule="nonzero"></path>
            <g id="Group-3" transform="translate(30.000000, 35.000000)">
                <g id="Rectangle-5">
                    <use fill="black" fill-opacity="1" filter="url(#filter-12)" xlink:href="#path-11"></use>
                    <use fill="#1F1F22" fill-rule="evenodd" xlink:href="#path-11"></use>
                </g>
                <g id="001-move-selection-cursor" transform="translate(21.000000, 148.000000)" fill-rule="nonzero" fill="#E5E5E5">
                    <path d="M15.5006205,6.26424032 C15.4879113,5.95443749 15.2937417,5.68119281 15.0053508,5.56704666 L1.07315202,0.0550824385 C0.782172199,-0.0600835661 0.450867858,0.00871792305 0.229789091,0.22987117 C0.00871032442,0.451024417 -0.060013948,0.782401259 0.0549972203,1.07321896 L5.56698199,15.0053244 C5.68105173,15.2937885 5.95437977,15.4877193 6.26418817,15.5005853 C6.27509304,15.501056 6.28584102,15.5012913 6.29666744,15.5012913 C6.59408036,15.5012913 6.8670946,15.3327002 6.99975755,15.0644764 L9.66792251,9.66783508 L15.0644254,7.00003184 C15.3424606,6.86242886 15.5134083,6.5741216 15.5006205,6.26424032 Z" id="Shape"></path>
                    <path d="M27.796209,18.927103 L25.1347049,17.1020954 C24.8973032,16.9392023 24.5895028,16.9213701 24.3349667,17.0554216 C24.0804305,17.1894731 23.9210256,17.4536996 23.9210256,17.7414955 L23.9210256,18.3222044 L20.8108462,18.3222044 L20.8108462,15.2121166 L21.3916353,15.2121166 C21.3922555,15.2121942 21.3927207,15.2121942 21.3931859,15.2121166 C21.8213928,15.2121166 22.1685017,14.8649318 22.1685017,14.4368043 C22.1685017,14.2577072 22.1079495,14.0929533 22.0059955,13.961848 L20.2058673,11.3368732 C20.0614259,11.1260658 19.8221635,11 19.5665419,11 C19.3108427,11 19.0715803,11.1260658 18.9271389,11.3368732 L17.1020455,13.9983652 C16.9391517,14.2356883 16.9213969,14.5435649 17.0553715,14.7981774 C17.1895011,15.0526349 17.4536512,15.2121166 17.7414485,15.2121166 L18.32216,15.2121166 L18.32216,18.3222044 L15.2121357,18.3222044 L15.2121357,17.741418 C15.2121357,17.4536996 15.0526532,17.1896282 14.7981946,17.0553441 C14.5435809,16.9212926 14.2356255,16.9392023 13.9983788,17.1020179 L11.3368747,18.927103 C11.1259888,19.0716988 11,19.3108826 11,19.5665031 C11,19.8222011 11.1259888,20.0613849 11.3368747,20.2059032 L13.9983788,22.0309883 C14.2357805,22.1937263 14.5435034,22.2116361 14.7981946,22.0775846 C15.0526532,21.9435331 15.2121357,21.6793842 15.2121357,21.3915882 L15.2121357,20.8108018 L18.32216,20.8108018 L18.32216,23.9209671 L17.7414485,23.9209671 C17.4536512,23.9209671 17.1896562,24.0803713 17.0553715,24.3349838 C16.9213194,24.5895189 16.9392292,24.8974729 17.1020455,25.134641 L18.9271389,27.796133 C19.0715803,28.0069404 19.3108427,28.1330062 19.5665419,28.1330062 C19.8221635,28.1330062 20.0614259,28.0069404 20.2058673,27.796133 L22.0309607,25.134641 C22.193777,24.8973179 22.2116093,24.5895189 22.0776347,24.3349838 C21.9435051,24.0803713 21.6794325,23.9209671 21.3916353,23.9209671 L20.8108462,23.9209671 L20.8108462,20.8108018 L23.9210256,20.8108018 L23.9210256,21.3915882 C23.9210256,21.6793066 24.0804305,21.943378 24.3349667,22.0775846 C24.5894253,22.2116361 24.8974583,22.1937263 25.1347049,22.0309883 L27.7961315,20.2059032 C28.0070174,20.0613849 28.1330062,19.8222011 28.1330062,19.5665031 C28.1330062,19.3109602 28.0070174,19.0717763 27.796209,18.927103 Z" id="Shape"></path>
                </g>
                <g id="002-paint-bucket" transform="translate(83.000000, 349.000000)" fill-rule="nonzero" fill="#E5E5E5">
                    <path d="M28.4969862,25.4917463 C28.349245,24.9837024 27.94503,24.6106876 27.2955524,24.3827729 C26.9294245,24.2544837 26.5153038,24.173993 26.0756893,24.0884669 C25.7203118,24.0192868 25.3529553,23.948015 25.0550157,23.8555166 C25.0183108,23.8442061 24.9846006,23.8328181 24.9537316,23.8220499 C25.0304434,23.7429537 25.1099195,23.6633927 25.1767256,23.5966142 C25.4918658,23.2820112 25.8179869,22.9566401 26.0422095,22.5846324 C26.4585571,21.8937609 26.4103338,21.1615983 25.9133583,20.6260529 C25.9133583,20.6260529 25.4408782,20.0873312 24.5333142,20.0873312 C24.2786066,20.0873312 24.0138396,20.1331156 23.7469993,20.2232899 C23.754755,19.7352331 23.7506084,19.2639872 23.7347132,18.822567 C23.6522422,16.5246719 23.2755943,15.0926514 22.5495585,14.3155566 C22.5513246,12.5576227 21.8568489,9.96960492 20.691736,7.39266529 C18.9207614,3.47573874 16.5858516,0.632924386 15.1399229,0.632924386 C15.0039304,0.632924386 14.8770757,0.659651304 14.7622,0.712407914 C14.7478405,0.718915337 14.7341722,0.726119984 14.7182769,0.734564141 L14.0041433,1.06365383 C13.4829025,0.880826227 12.4410353,0.536939893 11.3200759,0.288185889 C10.4587386,0.0969915951 9.71327522,0 9.10441871,0 C8.06838742,0 7.39141945,0.267966396 7.03473658,0.819238113 C6.84967614,1.10525486 6.66845514,1.5900579 6.85643354,2.27457686 C6.8942903,2.41239478 6.94681368,2.55610038 7.01262147,2.70151031 C7.73735193,4.30435064 11.0561536,6.95930188 14.7322525,8.87697756 C14.8129572,8.91912087 14.9059482,8.93089621 14.9943318,8.91052178 C15.068356,8.89332359 15.1442999,8.88472449 15.2203973,8.88472449 C15.6177782,8.88472449 15.9809881,9.12015377 16.1457763,9.48449201 C16.2586555,9.7340207 16.2684076,10.0127553 16.1731898,10.2697211 C16.0781256,10.5265319 15.8896097,10.7306636 15.6422737,10.844466 C15.508508,10.9060541 15.3666028,10.9371968 15.2206277,10.9372743 C14.8229397,10.9372743 14.4594227,10.7014576 14.2944041,10.3364996 C14.2589278,10.2578683 14.2335107,10.1754409 14.2188441,10.0914642 C14.1981112,9.97247129 14.1236263,9.87013431 14.0173509,9.8145888 C11.0900941,8.28449216 8.40134263,6.356668 6.82479665,4.65761077 C6.71207104,4.53621633 6.53515019,4.50089032 6.38510534,4.56991549 L0.224589333,7.40498291 C0.0710889961,7.47563494 -0.0186768335,7.63901774 0.00328469539,7.8078234 C0.116087094,8.67486009 0.624120224,11.8136847 2.42596384,15.7984744 C4.22765389,19.7833416 6.24419833,22.2279636 6.81934466,22.8822695 C6.93130239,23.009784 7.11252339,23.0485187 7.26594694,22.9776342 L20.103766,17.0694362 C20.1195844,17.1890488 20.1359404,17.310908 20.1532178,17.4379577 C20.2636398,18.2559563 20.3889587,19.1828768 20.3920302,19.9442453 C20.3941803,20.4808754 20.3348996,20.7788224 20.2846798,20.9345357 L20.2846798,20.9345357 C20.1334064,20.9179573 19.9461959,20.8865822 19.7647445,20.8558269 C19.3966969,20.7939289 19.0162864,20.7298618 18.6503889,20.7298618 C17.7597183,20.7298618 17.3397617,21.1436254 17.1440276,21.4906105 C16.6843713,22.30644 17.1414936,23.3078085 17.5909371,24.0891641 C17.3382259,24.160126 16.9927542,24.2209394 16.7634635,24.2612235 C16.4195275,24.321727 16.0640733,24.3843222 15.7557672,24.4827083 C15.1790083,24.6670078 14.8038962,24.98347 14.6404133,25.4234958 C14.5120229,25.768854 14.4677926,26.3159424 14.985194,26.9604097 C15.6616244,27.8025788 16.6360713,28.4383695 17.8818121,28.8503514 C18.9111628,29.1909065 20.1294134,29.3708678 21.4045642,29.3708678 C22.6331812,29.3708678 23.8634108,29.2095766 24.9620248,28.904425 C25.7796694,28.6772074 26.9092291,28.2577885 27.6469368,27.5496414 C27.9567019,27.2524691 28.7791842,26.4628242 28.4969862,25.4917463 Z M19.0721971,24.2946751 C19.1626606,24.0919191 19.1185986,23.8406946 18.9368137,23.5266832 C18.4981433,22.7684923 18.3477087,22.2538688 18.4896429,21.9970548 C18.5202913,21.9418482 18.6130945,21.7737782 19.0488013,21.7737782 C19.2988239,21.7737782 19.5986795,21.8253095 19.8890987,21.8750796 C20.1710175,21.9233184 20.4371832,21.9691835 20.6535159,21.9691835 C20.768467,21.9691835 20.8582287,21.9563199 20.928104,21.9295971 C20.9736477,21.9122924 21.0151362,21.8850337 21.0497619,21.8498883 C21.775888,21.1080832 21.6075946,19.0232495 21.3732472,16.9508967 C21.2909721,16.2241758 21.2172755,15.6443917 21.2954173,15.5283124 C21.313666,15.5081746 21.3312908,15.4995223 21.3500854,15.5015897 C22.0243509,15.7137637 22.4515573,16.9378799 22.5851471,19.0410902 C22.6416868,19.929679 22.634902,20.7925404 22.6193049,21.3596139 C22.6157175,21.4933042 22.6863727,21.6173468 22.8017917,21.6792915 C22.9171328,21.7412362 23.0566494,21.7299039 23.1609945,21.6505014 C23.4349587,21.4421558 23.8469579,21.1939176 24.2556037,21.1937645 C24.468817,21.1937645 24.655749,21.2579297 24.8268499,21.3898589 L24.8270059,21.390012 C25.1341141,21.7274537 24.8691182,22.1112965 24.198596,22.7936071 C23.7399613,23.2604512 23.532285,23.5079237 23.5145823,23.7410012 C23.510527,23.7952124 23.5187155,23.8498064 23.5388359,23.9002657 C23.7574302,24.4519488 24.6194856,24.6228518 25.4533101,24.787859 C26.1500356,24.9259904 26.8080021,25.0562351 26.9096177,25.4122831 C26.9748138,25.6410727 26.8073782,25.9473506 26.3978746,26.3481918 C25.5611646,27.1671023 23.5414094,27.7391529 21.4864046,27.7391529 C19.2341737,27.7391529 17.415388,27.0701654 16.4964029,25.9033997 C16.341679,25.7069225 16.286777,25.5423747 16.3330226,25.4148099 C16.4317526,25.1439837 16.9661116,25.0481187 17.5320548,24.9467407 C18.3270424,24.8042449 18.9028118,24.6740768 19.0721971,24.2946751 Z M17.1629715,8.92090174 C16.4576915,7.39282105 15.926769,5.82699156 15.667799,4.51182609 C15.5776765,4.05443886 15.5215198,3.63442742 15.5012913,3.26342975 L15.5013668,3.26342975 C15.7717342,3.52207623 16.0561408,3.83928557 16.3461329,4.20625471 C17.1810866,5.26158007 18.0295512,6.68432219 18.7347557,8.21217906 C19.4399603,9.74003594 19.9709583,11.3057908 20.2299283,12.6211801 C20.3200507,13.0782689 20.3762075,13.4982804 20.396436,13.8695764 C20.1265214,13.6115268 19.8421903,13.2943174 19.5516699,12.9267515 C18.7164897,11.8715007 17.8681006,10.4489078 17.1629715,8.92090174 Z M8.2351164,1.13508399 C8.29695952,1.03905443 8.53567562,0.815857438 9.41596203,0.815857438 C9.99161075,0.815857438 10.7112549,0.910958765 11.5549182,1.0985455 C12.0200317,1.20191651 12.5243486,1.33406263 13.053719,1.49118656 L9.22144337,3.26342975 C8.7818828,2.78539158 8.47316662,2.35233035 8.30403444,1.97639742 C8.25925436,1.87682371 8.22412947,1.78079415 8.1994921,1.69058713 C8.13506872,1.45431054 8.14655506,1.27254633 8.2351164,1.13508399 Z" id="Shape"></path>
                </g>
                <g id="003-increase-selection-size" transform="translate(81.000000, 58.000000)" fill-rule="nonzero" fill="#E5E5E5">
                    <path d="M30.0575087,0 L5.29422845,0 C4.77232083,0 4.34915454,0.434304368 4.34915454,0.969949009 L4.34915454,19.5135894 L0.945073912,19.5135894 C0.423166295,19.5135894 0,19.9478937 0,20.4835384 L0,30.8484911 C0,31.3840581 0.423166295,31.8184401 0.945073912,31.8184401 L11.0442093,31.8184401 C11.566117,31.8184401 11.9892833,31.3840581 11.9892833,30.8484911 L11.9892833,27.3549675 L30.0575087,27.3549675 C30.5793407,27.3549675 31.0025826,26.920508 31.0025826,26.3850185 L31.0025826,0.969949009 C31.0025826,0.434226772 30.5793407,0 30.0575087,0 Z M7.34271694,24.4757231 L7.34271694,22.0281508 L9.79028926,22.0281508 L9.79028926,24.4757231 L7.34271694,24.4757231 L7.34271694,24.4757231 Z M5.02834077,26.8954419 L8.97443182,26.8954419 L8.97443182,28.5550103 L2.44757231,28.5550103 L2.44757231,22.0281508 L4.10719565,22.0281508 L4.10719565,25.9743601 C4.10726934,26.4830183 4.5196146,26.8954419 5.02834077,26.8954419 Z M11.363465,19.3257972 L7.34271694,19.3257972 L7.34271694,2.44757231 L28.5550103,2.44757231 L28.5550103,24.4757231 L12.3019624,24.4757231 L12.3019624,20.3002382 C12.3019624,19.7620268 11.8818159,19.3257972 11.363465,19.3257972 Z" id="Shape"></path>
                    <path d="M20.6712143,9.62616843 C20.7253922,9.68056782 20.7991976,9.71100207 20.876017,9.71100207 C20.95291,9.71100207 21.0265684,9.68056782 21.0808933,9.62616843 L23.0449711,7.66213013 L23.6620993,9.09231934 C23.7100288,9.20332349 23.8217661,9.27294 23.9423983,9.26691196 C24.0631776,9.26095743 24.1674902,9.18060807 24.2041724,9.06548721 L25.6974096,4.37758353 C25.7301957,4.27437173 25.7026289,4.16145625 25.6259565,4.08485604 C25.5494312,4.00825582 25.4365912,3.98083559 25.3333076,4.01362225 L20.6455588,5.50673832 C20.5303664,5.54342114 20.4500184,5.64773564 20.4441375,5.76859049 C20.4381096,5.88929831 20.5077249,6.00103758 20.6187271,6.04882083 L22.0488915,6.66595979 L20.0847403,8.6300716 C19.9717532,8.74320762 19.9717532,8.92662176 20.0847403,9.03975777 L20.6712143,9.62616843 Z" id="Shape"></path>
                </g>
                <g id="004-type-box" transform="translate(24.000000, 64.000000)" fill-rule="nonzero" fill="#E5E5E5">
                    <path d="M17.9488636,5.99295426 L17.9488636,4 L0.758449691,4 C0.339557927,4 0,4.34324805 0,4.76652087 L0,14.6554833 C0,15.0786794 0.339557927,15.4220041 0.758449691,15.4220041 L17.9488636,15.4220041 L17.9488636,13.4290499 L1.9719692,13.4290499 L1.9719692,5.99295426 L17.9488636,5.99295426 L17.9488636,5.99295426 Z" id="Shape"></path>
                    <path d="M29.5725562,4 L23,4 L23,5.99295426 L28.3398986,5.99295426 L28.3398986,13.4290499 L23,13.4290499 L23,15.4220041 L29.5724022,15.4220041 C29.9976929,15.4220041 30.3427169,15.0786794 30.3427169,14.6554833 L30.3427169,4.76652087 C30.342871,4.34324805 29.997847,4 29.5725562,4 Z" id="Shape"></path>
                    <path d="M23.5683076,15.9275591 L21.7461225,15.9275591 C21.7091057,15.9275591 21.6780519,15.8963832 21.6780519,15.8592209 L21.6780519,2.089876 C21.6780519,2.05263592 21.7091057,2.02138224 21.7461225,2.02138224 L23.5683076,2.02138224 C23.995859,2.02138224 24.3427169,1.67323803 24.3427169,1.24392753 L24.3427169,0.777454709 C24.3427169,0.348144219 23.995859,0 23.5683076,0 L21.7461225,0 C21.3637966,0 20.9954875,0.103634713 20.6713198,0.301185954 C20.3469971,0.103634713 19.9787655,0 19.596517,0 L17.7744093,0 C17.3467031,0 17,0.348144219 17,0.777454709 L17,1.24392753 C17,1.67323803 17.3467031,2.02138224 17.7744093,2.02138224 L19.596517,2.02138224 C19.6334564,2.02138224 19.6645876,2.05271367 19.6645876,2.089876 L19.6645876,15.8591431 C19.6645876,15.8962277 19.6334564,15.9274814 19.596517,15.9274814 L17.7744093,15.9274814 C17.3467031,15.9274814 17,16.2757034 17,16.7049361 L17,17.1714089 C17,17.6006417 17.3467031,17.9488636 17.7744093,17.9488636 L19.596517,17.9488636 C19.9787655,17.9488636 20.3470746,17.8452289 20.6713198,17.6476777 C20.9954875,17.8452289 21.3637966,17.9488636 21.7461225,17.9488636 L23.5683076,17.9488636 C23.995859,17.9488636 24.3427169,17.6006417 24.3427169,17.1714089 L24.3427169,16.7049361 C24.3427169,16.2757034 23.9959364,15.9275591 23.5683076,15.9275591 Z" id="Shape"></path>
                </g>
                <g id="005-paint-brush" transform="translate(80.000000, 550.000000)" fill-rule="nonzero" fill="#E5E5E5">
                    <path d="M23.6819536,0.263923896 C23.5093833,0.0913931347 23.2749251,-0.00422724689 23.0323217,0.000143532382 C21.70337,0.0205405023 19.316083,1.60851362 18.0114145,2.55336875 C15.7134196,4.21733209 13.0311568,6.5607599 10.4589676,9.15178853 C8.94663602,10.6751968 7.47799896,12.2817266 6.21184852,13.7977735 C6.03021954,14.0153923 5.96003432,14.3060108 6.02215052,14.5833636 C6.08426672,14.8607164 6.27168104,15.0929811 6.52851935,15.2109155 C7.09883132,15.4726255 7.63024455,15.8492026 8.10768671,16.3303717 C8.48830068,16.7137734 8.80405803,17.1114377 9.04643301,17.5121691 C9.18353016,17.739373 9.41265977,17.894574 9.67322809,17.9372082 C9.72126158,17.945183 9.76959955,17.9488636 9.81755691,17.9488636 C10.029635,17.9488636 10.236689,17.8735635 10.4011142,17.7332385 C11.8577239,16.4904803 13.3996672,15.0558678 14.8598547,13.5849089 C17.6073547,10.8174388 20.0403914,7.96378005 21.7109823,5.54957628 C23.147191,3.47391621 23.9419891,1.82850951 23.9488402,0.916396893 C23.950591,0.671556573 23.8543718,0.436377976 23.6819536,0.263923896 Z" id="Shape"></path>
                    <path d="M4.72939807,15 C3.47143932,15 2.24735751,15.626886 1.37076291,16.7200471 C0.233858788,18.1378627 -0.217859288,20.1577312 0.0984274839,22.4075967 C0.14025748,22.7051539 0.340536749,22.9607872 0.627458405,23.0831991 C0.745683587,23.1337414 0.871632405,23.1585744 0.997275337,23.1585744 C1.17621901,23.1585744 1.3543215,23.107959 1.50711187,23.0087732 C2.24315157,22.5310311 3.07133961,22.4061359 3.9482401,22.2737909 C4.78170469,22.1480193 5.72635906,22.005522 6.76293237,21.5456741 C7.96743744,21.0113274 8.75953086,20.1583885 8.93610391,19.2058987 C9.11443582,18.2443522 8.66814723,17.2199929 7.6456447,16.2433275 C6.79390339,15.4299022 5.78554813,15 4.72939807,15 Z" id="Shape"></path>
                </g>
                <g id="007-dotted-square" transform="translate(19.000000, 550.000000)" fill-rule="nonzero" fill="#E5E5E5">
                    <path d="M29.1177056,25 L27.6520776,25 C27.2227758,25 26.8746386,25.3480594 26.8746386,25.777439 L26.8746386,26.8744832 L25.777439,26.8744832 C25.3481372,26.8744832 25,27.2225426 25,27.6519222 L25,29.1177056 C25,29.5470852 25.3481372,29.8951446 25.777439,29.8951446 L29.1177056,29.8951446 C29.5470074,29.8951446 29.8951446,29.5470852 29.8951446,29.1177056 L29.8951446,25.777439 C29.8951446,25.3480594 29.5470074,25 29.1177056,25 Z" id="Shape"></path>
                    <path d="M12.9863752,27 L8.72462691,27 C8.32448793,27 8,27.3760327 8,27.8399212 L8,29.4235086 C8,29.887397 8.32448793,30.2634298 8.72462691,30.2634298 L12.9863752,30.2634298 C13.3865141,30.2634298 13.7110021,29.887397 13.7110021,29.4235086 L13.7110021,27.8399212 C13.7110021,27.3760327 13.3865141,27 12.9863752,27 Z" id="Shape"></path>
                    <path d="M21.986366,27 L17.7246361,27 C17.3244196,27 17,27.3760327 17,27.8399212 L17,29.4235086 C17,29.887397 17.3244196,30.2634298 17.7246361,30.2634298 L21.986366,30.2634298 C22.38651,30.2634298 22.7110021,29.887397 22.7110021,29.4235086 L22.7110021,27.8399212 C22.7110021,27.3760327 22.38651,27 21.986366,27 Z" id="Shape"></path>
                    <path d="M4.11770563,26.8744832 L3.02050598,26.8744832 L3.02050598,25.777439 C3.02050598,25.3480594 2.6723688,25 2.24306699,25 L0.777438994,25 C0.348137182,25 0,25.3480594 0,25.777439 L0,29.1177056 C0,29.5470852 0.348137182,29.8951446 0.777438994,29.8951446 L4.11770563,29.8951446 C4.5469297,29.8951446 4.89514463,29.5470852 4.89514463,29.1177056 L4.89514463,27.6519222 C4.89514463,27.2225426 4.5469297,26.8744832 4.11770563,26.8744832 Z" id="Shape"></path>
                    <path d="M0.839964417,21.7110021 L2.42346534,21.7110021 C2.88729369,21.7110021 3.26342975,21.3865825 3.26342975,20.986366 L3.26342975,16.7246361 C3.26342975,16.3244196 2.88729369,16 2.42346534,16 L0.839964417,16 C0.376136066,16 0,16.3244196 0,16.7246361 L0,20.986366 C0,21.3865825 0.376136066,21.7110021 0.839964417,21.7110021 Z" id="Shape"></path>
                    <path d="M0.839964417,12.7110021 L2.42346534,12.7110021 C2.88729369,12.7110021 3.26342975,12.3865825 3.26342975,11.986366 L3.26342975,7.7246361 C3.26342975,7.32441958 2.88729369,7 2.42346534,7 L0.839964417,7 C0.376136066,7 0,7.32441958 0,7.7246361 L0,11.986366 C0,12.3865825 0.376136066,12.7110021 0.839964417,12.7110021 Z" id="Shape"></path>
                    <path d="M4.20590804,0 L0.794091956,0 C0.355594378,0 0,0.355503677 0,0.794066733 L0,4.20593327 C0,4.64449632 0.355594378,5 0.794091956,5 L2.29111411,5 C2.72961169,5 3.08520607,4.64449632 3.08520607,4.20593327 L3.08520607,3.08526689 L4.20590804,3.08526689 C4.64432621,3.08526689 5,2.72976321 5,2.29120015 L5,0.794066733 C5,0.355583083 4.64432621,0 4.20590804,0 Z" id="Shape"></path>
                    <path d="M21.986366,0 L17.7246361,0 C17.324492,0 17,0.376032712 17,0.83992118 L17,2.42350857 C17,2.88739704 17.324492,3.26342975 17.7246361,3.26342975 L21.986366,3.26342975 C22.38651,3.26342975 22.7110021,2.88739704 22.7110021,2.42350857 L22.7110021,0.83992118 C22.7110021,0.376116704 22.38651,0 21.986366,0 Z" id="Shape"></path>
                    <path d="M8.72462691,3.26342975 L12.9863752,3.26342975 C13.3865141,3.26342975 13.7110021,2.88739704 13.7110021,2.42350857 L13.7110021,0.83992118 C13.7110021,0.376032712 13.3865141,0 12.9863752,0 L8.72462691,0 C8.32448793,0 8,0.376032712 8,0.83992118 L8,2.42350857 C8,2.88739704 8.32448793,3.26342975 8.72462691,3.26342975 Z" id="Shape"></path>
                    <path d="M29.1177056,0 L25.777439,0 C25.3481372,0 25,0.348048382 25,0.777414301 L25,2.24315122 C25,2.67251714 25.3481372,3.02056552 25.777439,3.02056552 L26.8746386,3.02056552 L26.8746386,4.11773033 C26.8746386,4.54709625 27.2227758,4.89514463 27.6520776,4.89514463 L29.1177056,4.89514463 C29.5470074,4.89514463 29.8951446,4.54709625 29.8951446,4.11773033 L29.8951446,0.777414301 C29.8951446,0.348126124 29.5470074,0 29.1177056,0 Z" id="Shape"></path>
                    <path d="M28.4234653,16 L26.8399644,16 C26.3761361,16 26,16.3244196 26,16.7246361 L26,20.986366 C26,21.38651 26.3761361,21.7110021 26.8399644,21.7110021 L28.4234653,21.7110021 C28.8872937,21.7110021 29.2634298,21.38651 29.2634298,20.986366 L29.2634298,16.7246361 C29.2634298,16.3244196 28.8872937,16 28.4234653,16 Z" id="Shape"></path>
                    <path d="M28.4234653,7 L26.8399644,7 C26.3761361,7 26,7.32441958 26,7.7246361 L26,11.986366 C26,12.3865825 26.3761361,12.7110021 26.8399644,12.7110021 L28.4234653,12.7110021 C28.8872937,12.7110021 29.2634298,12.3865825 29.2634298,11.986366 L29.2634298,7.7246361 C29.2634298,7.32441958 28.8872937,7 28.4234653,7 Z" id="Shape"></path>
                </g>
                <g id="008-school-rule" transform="translate(83.000000, 104.000000)" fill-rule="nonzero" fill="#E5E5E5">
                    <path d="M25.9391617,6.00313809 L20.10418,0.168256453 C19.8799137,-0.0561620713 19.5160938,-0.0560088846 19.2919042,0.168256453 L18.16322,1.29678292 C18.0554527,1.40454977 17.9949437,1.55061329 17.9949437,1.70295747 C17.9949437,1.85530165 18.0554527,2.00144177 18.16322,2.10920861 L20.7718469,4.71790163 L20.0224545,5.46736759 L17.413751,2.85875117 C17.1894847,2.63433264 16.8256649,2.63448583 16.6013986,2.85875117 L15.6124978,3.84757136 C15.5048071,3.95533821 15.4442216,4.10140173 15.4442216,4.2538225 C15.4442216,4.40616668 15.5047306,4.55223021 15.6124978,4.65999705 L17.177,6.22456948 L16.4276076,6.97403544 L14.8631054,5.40953961 C14.6387626,5.18519768 14.2750193,5.18519768 14.0507531,5.40953961 L13.0617757,6.3983598 C12.9540084,6.50605005 12.8934994,6.65219017 12.8934994,6.80453435 C12.8934994,6.95687853 12.9540084,7.10301865 13.0617757,7.21078549 L15.6705558,9.81947851 L14.9210868,10.5689445 L12.3123067,7.96025145 C12.0880405,7.73590952 11.7242972,7.73590952 11.4999543,7.96025145 L10.5110536,8.94914824 C10.4032863,9.05683849 10.3427773,9.20297861 10.3427773,9.35532279 C10.3427773,9.50766697 10.4032863,9.65380708 10.5110536,9.76149734 L12.0755557,11.3259932 L11.3260867,12.0754591 L9.76158458,10.5110399 C9.53724175,10.2866214 9.17357504,10.2867746 8.9492322,10.5110399 L7.96033143,11.4998601 C7.85256415,11.6076269 7.79205516,11.7536905 7.79205516,11.9061112 C7.79205516,12.0584554 7.85256415,12.2045955 7.96033143,12.3122858 L10.569035,14.9209788 L9.81956599,15.6704448 L7.21086245,13.0619049 C6.98651961,12.837563 6.62277631,12.837563 6.39851007,13.0619049 L5.40968589,14.0508017 C5.18534305,14.2751436 5.18534305,14.6388089 5.40968589,14.8630742 L6.97418803,16.4276466 L6.22471905,17.177036 L4.66014031,15.6125402 C4.55237303,15.5047733 4.40630892,15.4442646 4.25388753,15.4442646 C4.10146614,15.4442646 3.95540203,15.5048499 3.84771134,15.6125402 L2.85888716,16.6015136 C2.63454433,16.8258555 2.63462092,17.1895207 2.85888716,17.4137861 L5.46751411,20.0224791 L4.71804512,20.771945 L2.1091884,18.1633286 C2.00142111,18.0555618 1.855357,17.9951296 1.70293561,17.9951296 C1.55051423,17.9951296 1.40452671,18.0556384 1.29675942,18.1633286 L0.168228406,19.2920083 C-0.0561144305,19.5163502 -0.0560378368,19.8800154 0.168228406,20.1042808 L6.00313358,25.9391624 C6.11526671,26.0513717 6.26232654,26.107438 6.40930977,26.107438 C6.55629301,26.107438 6.70335284,26.0514483 6.81548596,25.9391624 L25.9393149,6.8154872 C26.1635046,6.59114527 26.1635046,6.22740343 25.9391617,6.00313809 Z" id="Shape"></path>
                </g>
                <g id="009-anchor-points-adjustment" transform="translate(24.000000, 104.000000)" fill-rule="nonzero" fill="#E5E5E5">
                    <path d="M25.2000089,16.6465206 L20.5074541,13.7756937 C20.5142641,13.7557766 20.5182744,13.7347829 20.5182744,13.7127127 L20.5182744,12.5373747 C20.5182744,12.4311759 20.4336033,12.3451249 20.3291073,12.3451249 L19.181544,12.3451249 C19.0770481,12.3451249 18.9923769,12.4311759 18.9923769,12.5373747 L18.9923769,12.6975571 L13.8573982,12.6975571 C14.0800857,12.5165348 14.2914232,12.3178254 14.4864923,12.1058124 C17.1107696,9.25374906 17.1725138,3.90720685 17.1240113,2.26862385 L17.2632383,2.26862385 C17.3677342,2.26862385 17.4524054,2.18257287 17.4524054,2.07637411 L17.4524054,0.192249742 C17.4524054,0.0860509844 17.3677342,0 17.2632383,0 L15.4094007,0 C15.3048291,0 15.2202336,0.0860509844 15.2202336,0.192249742 L15.2202336,2.07622031 C15.2202336,2.18241907 15.3048291,2.26847005 15.4094007,2.26847005 L15.5332673,2.26847005 C15.5774568,3.75894385 15.5357643,8.60094584 13.3259143,11.0026065 C12.5145387,11.8842638 11.5114234,12.3129039 10.2592129,12.3129039 C9.49263213,12.3129039 8.77024081,12.4422495 8.11171229,12.6974033 L1.5258975,12.6974033 L1.5258975,12.5372209 C1.5258975,12.4310221 1.44122631,12.3449711 1.3367304,12.3449711 L0.189167101,12.3449711 C0.0846711944,12.3449711 0,12.4310221 0,12.5372209 L0,13.7034847 C0,13.8096834 0.0846711944,13.8957344 0.189167101,13.8957344 L1.3367304,13.8957344 C1.44122631,13.8957344 1.5258975,13.8096834 1.5258975,13.7034847 L1.5258975,13.5433022 L6.6608763,13.5433022 C6.43849145,13.724017 6.2273053,13.9227263 6.03185785,14.1350469 C3.45146726,16.9392016 3.35468937,22.2200713 3.39063112,23.8388911 L3.25511181,23.8388911 C3.1506159,23.8388911 3.06594471,23.924942 3.06594471,24.0311408 L3.06594471,25.9151883 C3.06594471,26.021387 3.1506159,26.107438 3.25511181,26.107438 L5.1089494,26.107438 C5.2134453,26.107438 5.2981165,26.021387 5.2981165,25.9151883 L5.2981165,24.0311408 C5.2981165,23.924942 5.2134453,23.8388911 5.1089494,23.8388911 L4.98167777,23.8388911 C4.9494437,22.3674884 5.02541321,17.5931584 7.19243585,15.238099 C8.00366005,14.3564417 9.00685102,13.9278017 10.2591372,13.9278017 C11.025718,13.9278017 11.7481093,13.7983792 12.4064865,13.5433022 L18.9923013,13.5433022 L18.9923013,13.7034847 C18.9923013,13.8096834 19.0769725,13.8957344 19.1814684,13.8957344 L20.2109157,13.8957344 C20.2053164,13.9261868 20.2062244,13.9583309 20.2156828,13.9894754 L21.8521295,19.3183306 C21.8760402,19.3963071 21.9456537,19.450214 22.0259362,19.4532131 C22.0282819,19.4533669 22.0306276,19.4533669 22.0328976,19.4533669 C22.1103048,19.4533669 22.1802209,19.4051506 22.2087473,19.3314036 L22.9961365,17.2966324 L25.1278227,17.0016444 C25.2073485,16.9905708 25.271287,16.9298198 25.2875554,16.8499978 C25.3040508,16.7701757 25.2688657,16.6885849 25.2000089,16.6465206 Z M0.815857438,13.8695764 L0.815857438,13.053719 L1.63171488,13.053719 L1.63171488,13.8695764 L0.815857438,13.8695764 Z M20.396436,13.053719 L20.396436,13.8695764 L19.5805785,13.8695764 L19.5805785,13.053719 L20.396436,13.053719 Z" id="Shape"></path>
                </g>
                <g id="010-refresh-arrow" transform="translate(23.000000, 197.000000)" fill-rule="nonzero" fill="#E5E5E5">
                    <path d="M2.66839686,20.5198466 C2.33735282,20.0270711 1.64579802,19.8563434 1.09029851,20.1306751 L0.627249872,20.3593334 C0.338539444,20.5019713 0.126474288,20.7474106 0.0411716744,21.0382313 C-0.0442897892,21.3289061 0.0045566793,21.6391344 0.175956158,21.8957366 C0.835105495,22.8821632 1.62888046,23.7884061 2.535598,24.5895859 C2.7582267,24.7860686 3.05432367,24.8951446 3.36146073,24.8951446 C3.38068162,24.8951446 3.39974366,24.8946339 3.41904397,24.8937584 C3.74651387,24.8792392 4.05301553,24.7414168 4.26635149,24.5126854 L4.60843562,24.1459128 C5.01858711,23.7062525 4.98491084,23.0490969 4.5316315,22.6467925 C3.81767881,22.0131301 3.19077608,21.2974601 2.66839686,20.5198466 Z" id="Shape"></path>
                    <path d="M11.6195608,26.5859245 C10.6389242,26.5196877 9.66887497,26.3411044 8.73599963,26.0550783 C8.14537464,25.8740798 7.50596879,26.1527868 7.27594581,26.6915375 L7.08356723,27.1418748 C6.96365412,27.4228507 6.97314365,27.7374208 7.10976146,28.0115901 C7.24637926,28.2857594 7.49820463,28.4950092 7.80563391,28.5903025 C8.44041264,28.7869637 9.09597422,28.9448342 9.75435913,29.0593764 C10.3122021,29.1564993 10.8818874,29.2242732 11.4477298,29.2607949 C11.475022,29.2625515 11.5020789,29.2634298 11.5290574,29.2634298 C11.8237817,29.2634298 12.1090165,29.1600856 12.3269619,28.9722072 C12.5649843,28.7671292 12.7019158,28.4796394 12.7052881,28.1773652 L12.7109348,27.6925554 C12.7175226,27.112672 12.2395171,26.6278623 11.6195608,26.5859245 Z" id="Shape"></path>
                    <path d="M20.0919814,24.3980058 C19.6823347,23.9523139 18.9551488,23.8692644 18.4332334,24.2081472 C17.6093061,24.7429193 16.7130261,25.1843243 15.7690257,25.5198648 C15.1696359,25.7329744 14.8594946,26.3263826 15.0616759,26.8739427 L15.2300383,27.3307515 C15.335153,27.6155758 15.5670884,27.8491753 15.87097,27.9764017 C16.034536,28.0448467 16.2112718,28.0792872 16.3880077,28.0792872 C16.5397859,28.0792872 16.6918893,28.0539291 16.8361071,28.0030676 C18.033586,27.5803361 19.168874,27.021441 20.2105099,26.341859 C20.4813856,26.1650063 20.6590157,25.8962397 20.7012893,25.5987727 C20.7435628,25.3013057 20.6466589,25.0012956 20.4337466,24.7697306 L20.0919814,24.3980058 Z" id="Shape"></path>
                    <path d="M25.1077937,17.1161479 L24.5916308,17.0202234 C23.9714897,16.9051616 23.3691146,17.2920225 23.2185009,17.9023645 C22.9782647,18.8742618 22.6162844,19.8105728 22.1428707,20.6853594 C21.8441814,21.2372611 22.0279475,21.9257344 22.5623522,22.2564483 L23.0084826,22.5325968 C23.1986729,22.6501893 23.4163052,22.7110021 23.6359997,22.7110021 C23.7379157,22.7110021 23.8403076,22.6978747 23.9407166,22.6714619 C24.2573304,22.5877158 24.5253259,22.3776785 24.68165,22.0904587 C25.2846597,20.9824642 25.74348,19.7958639 26.0452624,18.5636342 C26.1229089,18.2469175 26.0663594,17.9124868 25.8889383,17.6387107 C25.7115965,17.3649346 25.4290869,17.1759326 25.1077937,17.1161479 Z" id="Shape"></path>
                    <path d="M24.0084171,13.053719 L24.5192362,13.053719 C24.5196918,13.053719 24.5203753,13.053719 24.5208309,13.053719 C25.1501097,13.053719 25.6598657,12.540607 25.6598657,11.9076976 C25.6598657,11.8145642 25.648931,11.7240285 25.6281246,11.6373129 C25.2040999,9.35757066 24.2123802,7.18761727 22.757605,5.35803224 C20.5550913,2.58794562 17.4269979,0.750720444 13.9492209,0.184585853 C13.1968504,0.062114362 12.4300522,0 11.6700122,0 C9.71451722,0 7.77345001,0.411268894 5.98896212,1.197134 L5.10157806,0.304230492 C4.91826939,0.119873843 4.65279834,0.0452296462 4.40107165,0.10742041 C4.14949682,0.169534772 3.94841921,0.359468725 3.8708889,0.608231779 L2.03392948,6.50344247 C1.95146336,6.76824982 2.02193164,7.05720003 2.21693441,7.2533989 C2.41193717,7.44959777 2.69912581,7.52049829 2.96231879,7.43752634 L8.82151392,5.58929936 C9.06876041,5.51136991 9.25738458,5.30905892 9.31927214,5.05594099 C9.3811597,4.80282305 9.30697056,4.53557085 9.12366189,4.3512142 L8.13558715,3.3570024 C9.27614069,2.97782211 10.4634706,2.78597812 11.6805673,2.78597812 C15.1581924,2.78597812 18.4044417,4.36022957 20.5868324,7.10510372 C21.7494073,8.56704507 22.5454408,10.3017395 22.8893533,12.121698 C22.9915627,12.6624673 23.4613766,13.053719 24.0084171,13.053719 Z" id="Shape"></path>
                </g>
                <g id="011-full-screen-selector" transform="translate(21.000000, 248.000000)" fill-rule="nonzero" fill="#E5E5E5">
                    <path d="M30.1031734,0 L19.7823304,0 C19.359046,0 19.0159274,0.343118162 19.0159274,0.76640197 L19.0159274,2.22448172 C19.0159274,2.64776553 19.359046,2.99088369 19.7823304,2.99088369 L25.7637995,2.99088369 L17.2244603,11.5302111 C16.9251799,11.829491 16.9251799,12.3147768 17.2244603,12.6140567 L18.2555023,13.6450973 C18.4051808,13.7947756 18.6013033,13.8695764 18.7973492,13.8695764 C18.9935484,13.8695764 19.1896709,13.794699 19.3392728,13.6450973 L27.8787653,5.10569328 L27.8787653,11.0872307 C27.8787653,11.5105145 28.2219605,11.8536327 28.6451683,11.8536327 L30.1031734,11.8536327 C30.5264578,11.8536327 30.8695764,11.5105145 30.8695764,11.0872307 L30.8695764,0.76640197 C30.8695764,0.343118162 30.5265345,0 30.1031734,0 Z" id="Shape"></path>
                    <path d="M5.10577698,2.99090021 L11.0872461,2.99090021 C11.5105304,2.99090021 11.8536491,2.64778016 11.8536491,2.22449401 L11.8536491,0.766406205 C11.8536491,0.343120058 11.5105304,0 11.0872461,0 L0.766403028,0 C0.343118636,0 0,0.343120058 0,0.766406205 L0,11.087292 C0,11.5105781 0.343118636,11.8536982 0.766403028,11.8536982 L2.22440815,11.8536982 C2.64769254,11.8536982 2.99081118,11.5105781 2.99081118,11.087292 L2.99081118,5.1057215 L11.530227,13.6450961 C11.6798289,13.7947752 11.876028,13.8695764 12.0721506,13.8695764 C12.2682731,13.8695764 12.4644723,13.7946986 12.6140742,13.6450961 L13.6451162,12.6140498 C13.9443965,12.3147682 13.9443965,11.8294798 13.6451162,11.5301981 L5.10577698,2.99090021 Z" id="Shape"></path>
                    <path d="M30.1031734,19.015873 L28.6451683,19.015873 C28.2219605,19.015873 27.8787653,19.3590721 27.8787653,19.7822845 L27.8787653,25.7638963 L19.3393494,17.2244628 C19.0402223,16.9251791 18.5547827,16.9251791 18.2555023,17.2244628 L17.2244603,18.2555162 C16.9251799,18.5547232 16.9251799,19.040015 17.2244603,19.3393753 L25.7637995,27.8788089 L19.7823304,27.8788089 C19.359046,27.8788089 19.0159274,28.2219313 19.0159274,28.6452204 L19.0159274,30.1031649 C19.0159274,30.526454 19.359046,30.8695764 19.7823304,30.8695764 L30.1031734,30.8695764 C30.5264578,30.8695764 30.8695764,30.526454 30.8695764,30.1031649 L30.8695764,19.7822845 C30.8695764,19.3589954 30.5265345,19.015873 30.1031734,19.015873 Z" id="Shape"></path>
                    <path d="M12.6140742,17.2244603 C12.3147938,16.9251799 11.8294307,16.9251799 11.530227,17.2244603 L2.99081118,25.7638761 L2.99081118,19.7823304 C2.99081118,19.359046 2.64769254,19.0159274 2.22440815,19.0159274 L0.766403028,19.0159274 C0.343118636,19.0159274 0,19.359046 0,19.7823304 L0,30.1031734 C0,30.5264578 0.343118636,30.8695764 0.766403028,30.8695764 L11.0872461,30.8695764 C11.5105304,30.8695764 11.8536491,30.5264578 11.8536491,30.1031734 L11.8536491,28.6452449 C11.8536491,28.2219605 11.5105304,27.8788419 11.0872461,27.8788419 L5.10577698,27.8788419 L13.6451162,19.3394261 C13.9443965,19.0402223 13.9443965,18.5549359 13.6451162,18.2555023 L12.6140742,17.2244603 Z" id="Shape"></path>
                </g>
                <g id="012-add-with-pen-tool" transform="translate(21.000000, 301.000000)" fill-rule="nonzero" fill="#E5E5E5">
                    <path d="M25.1641958,21.3034951 L23.223245,21.3034951 L23.223245,19.3625952 C23.223245,19.1623702 23.0610217,19 22.8606537,19 L21.6659882,19 C21.4656928,19 21.303397,19.1623702 21.303397,19.3625952 L21.303397,21.3034951 L19.3625912,21.3034951 C19.1622233,21.3034951 19,21.4658652 19,21.6660903 L19,22.8606241 C19,23.0609943 19.1622233,23.2232194 19.3625912,23.2232194 L21.3034695,23.2232194 L21.3034695,25.1642643 C21.3034695,25.3644894 21.4657653,25.5268595 21.6660607,25.5268595 L22.8607263,25.5268595 C23.0610942,25.5268595 23.2233175,25.3644894 23.2233175,25.1642643 L23.2233175,23.2232194 L25.1642683,23.2232194 C25.3645637,23.2232194 25.5268595,23.0609943 25.5268595,22.8606241 L25.5268595,21.6660903 C25.526787,21.4658652 25.3644912,21.3034951 25.1641958,21.3034951 Z" id="Shape"></path>
                    <path d="M21.0487839,11.5026559 L14.7094969,5.16341714 C14.4996748,4.95367555 14.1622479,4.94473575 13.9418811,5.14293963 C12.8063507,6.16329996 6.83574247,11.3460947 0.803853288,13.1782199 L0.738522658,13.1980097 C0.581805557,13.2456122 0.45374224,13.3595375 0.38841161,13.5099096 C0.323157391,13.6603581 0.327207126,13.8315133 0.399567484,13.9785235 L0.429749471,14.0395739 C0.430055111,14.0404908 0.430437162,14.0411021 0.430972032,14.0416369 C0.451679168,14.0847314 1.32130244,15.9005051 1.43446579,18.4589704 C1.50445743,20.0497209 1.27385177,21.578886 0.750977503,23.0067333 C0.564460465,23.021251 0.381611112,23.0995698 0.238800648,23.2423774 C-0.0796766214,23.560772 -0.0795238012,24.0768356 0.238800648,24.3951538 C0.557125096,24.713472 1.07319887,24.7135484 1.39152332,24.3951538 C1.57551882,24.2110855 1.65254019,23.9610002 1.62373359,23.7212301 L7.46803599,17.8768898 C7.61382645,17.7311786 7.66738992,17.5170053 7.607408,17.3199475 C7.40087152,16.6405988 7.58517266,15.9057009 8.08871518,15.4022447 C8.45212158,15.0386926 8.93518619,14.8385785 9.44950253,14.8385785 C9.96381887,14.8385785 10.4473419,15.0386926 10.8105955,15.4022447 C11.1741547,15.7657204 11.37412,16.2488519 11.37412,16.7630053 C11.37412,17.2770823 11.1741547,17.7602138 10.8104427,18.1238423 C10.4471891,18.4870888 9.96427733,18.68705 9.45041945,18.6871265 C9.25985268,18.6871265 9.07196026,18.659543 8.89178526,18.6049872 C8.6944944,18.5452357 8.48077537,18.5988745 8.33529055,18.7443565 L2.49144661,24.5886204 C2.25128969,24.5597379 2.00119945,24.636605 1.81705113,24.8207497 C1.49872668,25.1390679 1.4988795,25.6552079 1.81705113,25.9735261 C2.13537557,26.2918443 2.65160216,26.2919207 2.96992661,25.9735261 C3.11273708,25.8307184 3.19098101,25.6481783 3.20557534,25.4614357 C4.46481368,25.0002335 5.80458826,24.7658119 7.19036171,24.7658119 C7.36419467,24.7658119 7.54215378,24.7695559 7.71927238,24.7768912 C10.2857346,24.882717 12.1577819,25.775093 12.1750506,25.7834215 L12.2342684,25.8126096 C12.3117482,25.8506611 12.3960285,25.8698396 12.4803853,25.8697632 C12.5560313,25.8698396 12.6316773,25.8544815 12.7027387,25.8236888 C12.8527317,25.7583595 12.9668884,25.6304515 13.0144918,25.4738139 L13.0342056,25.408561 C14.8664433,19.376714 20.0491871,13.4060703 21.0694911,12.2706386 C21.267546,12.049665 21.258606,11.7125503 21.0487839,11.5026559 Z" id="Shape"></path>
                    <path d="M26.4388695,6.79575067 L19.8100559,0.167055539 C19.7031673,0.0600087737 19.5578363,-7.80602145e-05 19.4066451,7.61104474e-08 C19.2552196,-7.80602145e-05 19.1099667,0.0600087737 19.0031562,0.166977403 L16.1672479,3.00324786 C15.9442507,3.2261708 15.9442507,3.58747317 16.1672479,3.81031796 L22.7962177,10.438935 C22.9031845,10.5460599 23.048203,10.6061467 23.1997067,10.6061467 C23.3509759,10.6061467 23.4960726,10.5459036 23.6029612,10.438935 L26.4391039,7.60282077 C26.6618667,7.37997597 26.6618667,7.0186736 26.4388695,6.79575067 Z" id="Shape"></path>
                </g>
                <g id="013-crest-lower-curve" transform="translate(21.000000, 356.000000)" fill-rule="nonzero" fill="#E5E5E5">
                    <path d="M31.6308314,13.3491183 L30.4926467,13.3491183 C30.3890117,13.3491183 30.305038,13.4350509 30.305038,13.5411035 L30.305038,13.7010656 L26.358801,13.7010656 C26.7640358,13.4007239 27.1606407,13.0403292 27.5389349,12.6288664 C28.5944967,11.4803339 29.4544951,10.0033529 30.1782895,8.70568626 L30.819161,8.70568626 C30.9229461,8.70568626 31.0067697,8.61975366 31.0067697,8.51370101 L31.0067697,6.63224558 C31.0067697,6.52619293 30.9229461,6.44026033 30.819161,6.44026033 L28.9805954,6.44026033 C28.8769604,6.44026033 28.7929867,6.52619293 28.7929867,6.63224558 L28.7929867,7.93643977 C27.3670853,10.4917634 25.8873027,12.8187014 23.4949913,13.245523 L23.4949913,13.0298852 C23.4949913,12.9451045 23.4277523,12.876297 23.3449043,12.876297 L21.4312953,12.876297 C21.3484473,12.876297 21.2812083,12.9451045 21.2812083,13.0298852 L21.2812083,13.1020716 C19.2268928,12.4383402 17.8620768,10.2616115 16.6409691,8.08419162 L16.6409691,6.77800078 C16.6409691,6.67194813 16.5569955,6.58601553 16.4533604,6.58601553 L15.8110632,6.58601553 C15.0215306,5.16463355 14.1609318,3.68158591 13.0905115,2.5169266 C11.9548783,1.28115596 10.7249906,0.559675395 9.33338408,0.312091219 L9.33300886,0.153588198 C9.33300886,0.0688075129 9.26576989,0 9.18292188,0 L7.26931286,0 C7.18646485,0 7.11922588,0.0688075129 7.11922588,0.153588198 L7.11922588,0.312321601 C5.72799461,0.560136159 4.49930753,1.28161672 3.36397456,2.5170034 C2.29340412,3.6817395 1.43280537,5.16478714 0.643347846,6.58609233 L0.187608727,6.58609233 C0.0839736662,6.58609233 0,6.67202493 0,6.77807758 L0,8.65953301 C0,8.76558566 0.0839736662,8.85151825 0.187608727,8.85151825 L2.02617425,8.85151825 C2.12980931,8.85151825 2.21378298,8.76558566 2.21378298,8.65953301 L2.21378298,7.02389549 C3.48449441,4.76177171 4.9100956,2.51155101 7.11915084,1.96162847 L7.11915084,2.11176093 C7.11915084,2.19654162 7.18638981,2.26534913 7.26923782,2.26534913 L9.1843477,2.26534913 C9.26719572,2.26534913 9.33443469,2.19654162 9.33443469,2.11176093 C9.33443469,2.11176093 9.33413451,1.96700406 9.33413451,1.96301076 L9.33413451,1.96132129 C11.5780099,2.5182321 12.9696164,4.7345866 14.4271861,7.35771944 L14.4271861,8.65945621 C14.4271861,8.76550886 14.5111598,8.85144146 14.6147949,8.85144146 L15.2544656,8.85144146 C15.9977714,10.1776756 16.8221241,11.5514452 17.8121729,12.6287896 C18.1904671,13.040406 18.5868468,13.4007239 18.9922318,13.7009888 L14.9587942,13.7009888 L14.9587942,13.5410267 C14.9587942,13.4349741 14.8748206,13.3490415 14.7711855,13.3490415 L13.6330009,13.3490415 C13.5293658,13.3490415 13.4453922,13.4349741 13.4453922,13.5410267 L13.4453922,14.7057628 C13.4453922,14.8118155 13.5293658,14.8977481 13.6330009,14.8977481 L14.7711855,14.8977481 C14.7801907,14.8977481 14.7888207,14.8961354 14.7974507,14.8950603 C14.7984263,14.9100351 14.8006026,14.9251636 14.8051052,14.939908 L16.4281458,20.2617391 C16.4518595,20.3395315 16.5208995,20.393441 16.6004456,20.396436 C16.6026969,20.396436 16.6050983,20.396436 16.6072746,20.396436 C16.6841191,20.396436 16.7535344,20.3484396 16.7818258,20.2747941 L17.5626533,18.2427454 L19.6768535,17.9481633 C19.7557242,17.9371049 19.819136,17.8764376 19.8352703,17.7966485 C19.8513297,17.7168594 19.8164344,17.6353809 19.7482949,17.5934513 L15.080965,14.7184338 C15.0434433,14.6953188 15.0002933,14.6874858 14.9587942,14.6932454 L14.9587942,14.5459543 L20.5222935,14.5459543 C20.7690365,14.6393359 21.0241844,14.716514 21.2812083,14.7755687 L21.2805329,14.9883651 C21.2805329,15.0731458 21.3477719,15.1419533 21.4306199,15.1419533 L23.3449794,15.1419533 C23.4278274,15.1419533 23.4950663,15.0731458 23.4950663,14.9883651 L23.4950663,14.8777816 C23.9545576,14.8185733 24.4030175,14.7069915 24.8288143,14.5460311 L30.3051881,14.5460311 L30.3051881,14.70607 C30.3051881,14.8121226 30.3891618,14.8980552 30.4927968,14.8980552 L31.6308314,14.8980552 C31.7344664,14.8980552 31.8184401,14.8121226 31.8184401,14.70607 L31.8184401,13.5413339 C31.8184401,13.4350509 31.7344664,13.3491183 31.6308314,13.3491183 Z M14.6854339,14.6854339 L13.8695764,14.6854339 L13.8695764,13.8695764 L14.6854339,13.8695764 L14.6854339,14.6854339 L14.6854339,14.6854339 Z M31.8184401,14.6854339 L31.0025826,14.6854339 L31.0025826,13.8695764 L31.8184401,13.8695764 L31.8184401,14.6854339 Z" id="Shape"></path>
                </g>
                <g id="014-paint-brush-dripping" transform="translate(24.000000, 402.000000)" fill-rule="nonzero" fill="#E5E5E5">
                    <path d="M25.2915806,3.06878395 C25.2915806,2.24910826 24.9759699,1.47850147 24.4026898,0.898821611 C23.8295629,0.319219267 23.0676674,0 22.2574877,0 C21.4470013,0 20.6849526,0.319219267 20.1122089,0.898744093 L16.2861003,4.76859942 L14.2585433,2.71785981 C13.7896492,2.24375951 13.166322,1.98260125 12.503371,1.98260125 C11.84042,1.98260125 11.217246,2.24383703 10.7485052,2.71785981 L6.81578797,6.6954652 C6.66610667,6.84693544 6.58187741,7.05235824 6.58187741,7.26654057 C6.58187741,7.47521912 6.66181473,7.67560323 6.80436836,7.82583319 L0.233872602,14.4712993 C-0.0775227588,14.786255 -0.0780592509,15.2968663 0.232876259,15.6123647 L3.97391252,19.4094306 L3.97199648,20.7984763 C3.97199648,21.8567525 4.15570671,22.6239485 4.5497985,23.212698 C4.96305072,23.8303617 5.60630479,24.2192696 6.34812012,24.311206 C6.28297465,24.8737544 6.1304576,25.4905654 5.98184928,26.0918728 C5.59657129,27.6515356 5.19811092,29.2642984 6.21598977,30.5828026 C6.84882056,31.4027109 7.85137107,31.8184401 9.19589699,31.8184401 C10.4630148,31.8184401 11.1722574,31.2618606 11.544123,30.7952795 C12.4413678,29.6690975 12.1363337,28.2510601 11.890697,27.1096846 C11.8781277,27.0501507 11.8651753,26.9906944 11.8525294,26.9306954 C12.026966,26.9689894 12.2066908,26.9883689 12.390631,26.9883689 C12.9302654,26.9883689 13.4518891,26.8184493 13.9410166,26.4833389 C14.6391461,26.0056727 15.041132,25.2898712 15.1029053,24.4132198 C15.1385437,23.9081898 15.0548509,23.4273454 14.9739939,22.9620821 C14.8876186,22.4677496 14.8058419,21.998533 14.8376482,21.4687747 L17.5664005,18.7099854 C17.7133993,18.8471923 17.9065365,18.9237801 18.1074911,18.9237801 L18.1074911,18.9237801 C18.3194821,18.9237801 18.5223528,18.8386653 18.6721874,18.6872726 L22.6049046,14.7095897 C23.0734922,14.2354119 23.3316982,13.6049577 23.3316982,12.9343492 C23.3316982,12.2638182 23.0734922,11.633364 22.6050579,11.1593412 L20.577271,9.1085241 L24.4032263,5.2387463 C24.9759699,4.65914395 25.2915806,3.88845965 25.2915806,3.06878395 Z M12.7788365,20.0933377 C12.6596686,20.2100333 12.5801447,20.3597952 12.551041,20.5221207 C12.3543157,21.6186276 12.5198135,22.5380099 12.6404759,23.2095105 C12.7973213,24.0827234 12.7824548,24.3035509 12.5564685,24.453544 C12.4774165,24.5060339 12.360923,24.5683898 12.2543406,24.5684668 C11.9702255,24.5684668 11.7377105,24.0979077 11.6732104,23.9535412 C11.4969363,23.5595202 11.0353673,23.3714507 10.6260277,23.5272247 C8.78470713,24.2273982 9.19483338,26.0743332 9.49405092,27.422961 C9.64916579,28.1212076 9.82481057,28.912564 9.59418339,29.1932038 C9.47336369,29.3399596 9.19082179,29.3708678 8.97513975,29.3708678 C8.33942047,29.3708678 7.92009116,29.2490851 7.72847867,29.0089111 C7.37435739,28.56425 7.63314437,27.5502163 7.90711248,26.4766015 C8.17431594,25.4293473 8.4773091,24.2423512 8.35884916,23.1123156 C8.27185268,22.280031 7.88146976,21.8581849 7.19879126,21.8580308 L7.19863394,21.8580308 C7.04729469,21.8580308 6.89918043,21.8772231 6.75554972,21.8957988 C6.62969587,21.9121393 6.51099995,21.9275548 6.4064626,21.9275548 C6.19550007,21.9275548 6.14641707,21.856258 6.11062738,21.8043077 C6.02048456,21.6738922 5.91287951,21.3707458 5.91287951,20.6696474 L5.91563257,18.6885202 C5.9159472,18.4757087 5.83005195,18.27153 5.67666756,18.120689 L2.44757231,14.9453976 L7.708814,9.79028926 L9.86673564,11.9048379 L7.25723465,14.8541376 C7.20083639,14.9178038 7.20421871,15.013303 7.26510051,15.072807 C7.29687861,15.1041005 7.33896099,15.1199014 7.3808074,15.1199014 C7.41911416,15.1199014 7.45749959,15.1068753 7.48833378,15.0805918 L10.4981287,12.5234632 L13.2413494,15.2115467 L11.4780583,17.2045439 C11.42166,17.2682101 11.4250423,17.3637093 11.4859241,17.4233674 C11.5177022,17.4545068 11.5597846,17.4703077 11.6017097,17.4703077 C11.6399378,17.4703077 11.6783232,17.4572816 11.7091574,17.430921 L13.7429557,15.703071 L15.5012913,17.425988 L12.7788365,20.0933377 Z" id="Shape"></path>
                </g>
                <g id="015-open-scissors" transform="translate(21.000000, 451.000000)" fill-rule="nonzero" fill="#E5E5E5">
                    <path d="M9.54122253,19.9681999 C10.0031489,19.1050634 10.2006901,18.1544405 10.1125368,17.2190158 L12.1164358,17.0084778 C12.1298196,15.6291411 12.2378616,14.3565007 12.2378616,14.3565007 L9.6034308,15.4993775 C9.32506372,14.970525 8.95211314,14.5082517 8.49504681,14.1254412 C7.62876665,13.399706 6.50154073,13 5.3210041,13 C4.71395002,13 4.11347567,13.1040732 3.53603033,13.3093652 C2.26337761,13.7618407 1.21832343,14.6542936 0.593324659,15.8221665 C-0.0492449623,17.0228274 -0.174633519,18.3683731 0.240337554,19.6110027 C0.50771351,20.4119577 0.99139781,21.122186 1.6392013,21.6649252 C2.50548145,22.3906604 3.63270738,22.7902893 4.81339354,22.7902893 C5.42044762,22.7902893 6.02107152,22.686216 6.59836731,22.4810012 C7.8708705,22.0287572 8.9158499,21.1363042 9.54122253,19.9681999 Z M7.79241392,18.5844408 C7.38299327,19.3052368 6.68843631,19.8592671 5.83692077,20.1445574 C5.44429531,20.2759958 5.03815736,20.3427169 4.62972916,20.3427169 C3.86646465,20.3427169 3.14495906,20.1049997 2.59804699,19.6733534 C2.20832251,19.3655753 1.93005694,18.9820957 1.77111348,18.5336021 C1.52567486,17.8408602 1.60621537,17.0794674 1.99792473,16.389991 C2.40734537,15.669195 3.10190234,15.1150905 3.95357056,14.8298744 C4.34619602,14.6983618 4.75218128,14.6317149 5.16060948,14.6317149 C5.92372131,14.6317149 6.6452269,14.8694321 7.19229166,15.3011527 C7.58193979,15.6087081 7.86012902,15.9922619 8.01907248,16.4409781 C8.26458745,17.1336459 8.18419962,17.8949644 7.79241392,18.5844408 Z" id="Shape"></path>
                    <path d="M31.1597951,10.1422824 C31.051181,10.005801 30.8578207,9.9614955 30.6970144,10.0357018 C28.2600703,11.1603634 23.3686589,13.1082782 19,13.5181587 L19.4149693,15.6149226 L19.1190374,16.5268595 C19.1190374,16.5268595 19.4431425,16.4891744 19.4600616,16.4871373 C24.8394812,15.7918536 29.1178801,12.8815125 31.1469548,10.6004697 C31.2631976,10.4698085 31.2684848,10.278691 31.1597951,10.1422824 Z" id="Shape"></path>
                    <path d="M15.2972781,21.0809293 L17.4061382,16.3603015 C17.4385692,16.287844 17.4477579,16.2073529 17.4328551,16.1294881 C16.4255658,10.9118546 19.602948,3.49848133 21.0157013,0.553293445 C21.0946937,0.388603315 21.0475145,0.191160552 20.9027335,0.079847946 C20.7579525,-0.0313101666 20.5549503,-0.0259028922 20.4163467,0.0929026514 C17.9077367,2.24337569 14.7529789,6.77274048 14.1177959,12.4602662 C14.1171782,12.4659825 14.1165604,12.4716215 14.1162516,12.477415 L13.5763537,20.5550333 C13.4314183,20.5408198 13.2839348,20.5337904 13.1380728,20.5337904 C12.3375692,20.5337904 11.5592268,20.7394986 10.8245889,21.1452759 C9.65545373,21.7910589 8.76221313,22.8708144 8.30964716,24.1855545 C7.69554425,25.9685647 8.0086572,27.9317915 9.12644342,29.3090243 C9.66935271,29.9782131 10.3801307,30.4779998 11.1820242,30.7543887 C11.6600716,30.9190789 12.1568826,31.0025826 12.6586355,31.0025826 L12.6587899,31.0025826 C13.4588302,31.0025826 14.2379448,30.7963337 14.9742042,30.3895522 C16.1432622,29.7436147 17.0365028,28.6638592 17.4893004,27.3492736 C18.1032489,25.5661862 17.7902132,23.6030366 16.6725042,22.2259583 C16.2891242,21.7535942 15.8264429,21.3683646 15.2972781,21.0809293 Z M15.4619991,14.8048887 C15.5390531,14.7278417 15.6416144,14.6854339 15.7505658,14.6854339 C15.8597302,14.6854339 15.962185,14.7278417 16.0392923,14.8049419 C16.1161334,14.881776 16.1585744,14.984257 16.1585744,15.0933892 C16.1585744,15.2024682 16.1161334,15.3050024 16.0391858,15.3818366 C15.962185,15.4588303 15.8597302,15.5012913 15.7505658,15.5012913 C15.6416144,15.5012913 15.5389999,15.4588303 15.4618926,15.3817833 C15.3850515,15.3050024 15.342717,15.2025214 15.342717,15.0934424 C15.3426637,14.9842038 15.3850515,14.881776 15.4619991,14.8048887 Z M15.1446189,27.0490784 C14.859325,27.9005971 14.3052878,28.595233 13.5844828,29.0046552 C13.1627762,29.2442927 12.7021052,29.3708678 12.2520474,29.3708678 C11.9749175,29.3708678 11.7020922,29.3239938 11.4409934,29.2315436 C10.9921973,29.0725232 10.6086388,28.7941803 10.3012279,28.4045307 C9.62732866,27.5507981 9.4466821,26.3098588 9.82994374,25.1656449 C10.1150892,24.3140499 10.6691264,23.6195667 11.3900056,23.2102209 C11.8117122,22.9705833 12.2722347,22.8440083 12.7221441,22.8440083 C12.999274,22.8440083 13.2723962,22.8909586 13.5336435,22.9834851 C13.9822911,23.1425055 14.3658496,23.4207721 14.6734089,23.8103453 C15.3470855,24.6640016 15.5276578,25.9050172 15.1446189,27.0490784 Z" id="Shape"></path>
                </g>
                <g id="016-paint-swatch" transform="translate(22.000000, 500.000000)" fill-rule="nonzero" fill="#E5E5E5">
                    <rect id="Rectangle-path" x="0" y="8" width="8.15857438" height="6.5268595"></rect>
                    <path d="M8.15857438,0.938470988 C8.15857438,0.420943357 7.75111115,0 7.25040624,0 L0.908095971,0 C0.407463232,0 0,0.420943357 0,0.938470988 L0,5.71100207 L8.15857438,5.71100207 L8.15857438,0.938470988 L8.15857438,0.938470988 Z" id="Shape"></path>
                    <path d="M8.15857438,29.7726925 L8.15857438,25 L0,25 L0,29.7726925 C0,30.2901388 0.407463232,30.7110021 0.908095971,30.7110021 L7.25040624,30.7110021 C7.75111115,30.7110021 8.15857438,30.2901388 8.15857438,29.7726925 Z M4.07939269,26.6317149 C4.529259,26.6317149 4.89514463,26.9976551 4.89514463,27.4475723 C4.89514463,27.8974192 4.529259,28.2634298 4.07939269,28.2634298 C3.62952639,28.2634298 3.26342975,27.8974896 3.26342975,27.4475723 C3.26342975,26.9976551 3.62952639,26.6317149 4.07939269,26.6317149 Z" id="Shape"></path>
                    <rect id="Rectangle-path" x="0" y="16" width="8.15857438" height="6.5268595"></rect>
                    <polygon id="Shape" points="18.1585744 10.9263233 11.1928969 7 10 9.13320161 10 12.966803 15.3359735 15.9744318"></polygon>
                    <path d="M19.8636056,6.71662417 C19.9763721,6.49180086 20.0041322,6.23126322 19.9420675,5.98319341 C19.879787,5.73504318 19.7346576,5.52880097 19.5334327,5.40251381 L14.3119408,2.12387403 C14.1830648,2.04287328 14.0371443,2 13.8901451,2 C13.5783112,2 13.2897786,2.18894811 13.1370979,2.49300253 L11,6.75072974 L17.72622,10.9744318 L19.8636056,6.71662417 Z" id="Shape"></path>
                    <polygon id="Shape" points="10 25 10 27.4475723 10.8158574 25.5865476"></polygon>
                    <polygon id="Shape" points="14.8951446 18.7319842 10 16 10 23.1370645 11.8304435 24.1585744"></polygon>
                    <polygon id="Shape" points="18.2949371 12 17.2682281 12.9115824 15 17.3854409 18.7791477 22.6061467 23.1585744 18.7186552 18.3609823 12.0913589"></polygon>
                    <path d="M28.7758221,13.4712826 L24.8465995,8.35413444 C24.6739594,8.12909839 24.4162065,8 24.1397409,8 C23.9350326,8 23.7339461,8.07380426 23.573756,8.20778618 L20,11.1983161 L25.0618715,17.7902893 L28.6358539,14.7997594 C29.025275,14.4738234 29.0880532,13.8777968 28.7758221,13.4712826 Z" id="Shape"></path>
                    <path d="M10.0517641,28.6087669 L10.0517641,29.3228569 C10.0517641,30.1730997 9.3002162,30.8647533 8.37630291,30.8647533 L7,30.8647533 L7.61133732,31.5666384 C7.79315062,31.7753623 8.06428269,31.8951446 8.35510459,31.8951446 C8.57066054,31.8951446 8.78200858,31.8266662 8.95048362,31.7024259 L12.7110021,28.9274801 L11.0326032,27 L10.0517641,28.6087669 Z" id="Shape"></path>
                    <polygon id="Shape" points="11 25.5866255 13.0091446 28.1585744 17.5268595 24.4425479 14.0566819 20"></polygon>
                </g>
                <g id="017-draw-a-picture" transform="translate(84.000000, 152.000000)" fill-rule="nonzero" fill="#E5E5E5">
                    <path d="M32.9375714,26.7466874 C31.810322,25.0815149 30.0973202,23.0818328 28.1141834,21.1158373 C27.0248235,20.0356577 25.8812371,18.9976814 24.8072937,18.1139188 C24.6829642,18.0115659 24.5163733,17.9754459 24.3604437,18.0167368 C24.2043606,18.0580277 24.0780369,18.1717109 24.0217396,18.3218182 C23.8538449,18.7690985 23.5801051,19.18254 23.2084204,19.5508885 C22.9031572,19.8536886 22.5861591,20.0920049 22.2661697,20.2591457 C22.1330197,20.3288004 22.0386029,20.4543461 22.0093805,20.6008794 C21.9803114,20.7474888 22.0195815,20.899117 22.116376,21.0136366 C22.9813138,22.0382294 23.9915968,23.1282946 25.0381586,24.1661187 C28.6440988,27.7410154 32.1476455,30.2377855 33.5583755,30.2378616 C33.7749742,30.2378616 33.9445564,30.1787768 34.061983,30.0622801 C34.6159819,29.5128751 33.756413,27.9560628 32.9375714,26.7466874 Z" id="Shape"></path>
                    <path d="M18.7360717,16.8972841 C18.8201004,17.4922353 18.9153763,18.1666052 19.2244245,18.9107404 C19.6447126,19.9225792 20.355255,20.5266973 21.1249367,20.5268595 L21.1250818,20.5268595 C21.7067513,20.5268595 22.2923392,20.2017212 22.8658816,19.5606925 C23.678666,18.6520413 23.9234229,17.4608409 23.5206226,16.3742073 C22.9863371,14.9319334 21.4614865,14 19.6360776,14 C19.2342931,14 18.814513,14.0432382 18.3883472,14.1285789 C18.2215235,14.1620013 18.0835077,14.2929327 18.0270532,14.4716452 C17.9704536,14.6502766 18.0040506,14.8491886 18.1148551,14.9925317 C18.5454473,15.5491121 18.6337571,16.1736729 18.7360717,16.8972841 Z" id="Shape"></path>
                    <path d="M31.3244794,0 L0.493960694,0 C0.221142403,0 0,0.222215778 0,0.496358268 L0,21.5317926 C0,21.805935 0.221142403,22.0281508 0.493960694,22.0281508 L21.6361623,22.0281508 L20.6262787,20.7246377 C18.5821933,20.7246377 17.9731778,18.74455 17.794744,18.74455 L3.26773997,18.74455 L3.26773997,3.28360085 L28.5507001,3.28360085 L28.5507001,18.74455 L27.3910324,18.74455 L30.538094,22.0281508 L31.3244794,22.0281508 C31.5972977,22.0281508 31.8184401,21.805935 31.8184401,21.5317926 L31.8184401,0.496358268 C31.8184401,0.222215778 31.5972977,0 31.3244794,0 Z" id="Shape"></path>
                    <path d="M17.2577811,12.2094086 C17.3491017,12.296246 17.468118,12.3427169 17.5896792,12.3427169 C17.6348155,12.3427169 17.6801764,12.3363835 17.7245642,12.3232587 C18.0313117,12.2329875 18.4831991,12.102121 18.8951898,11.9907891 C18.9951934,11.9637764 19.0840438,11.9049437 19.1491659,11.82299 C19.2627927,11.6796855 19.3958813,11.5290554 19.4933399,11.4190208 C19.9783123,10.8701445 20.6426324,10.1185206 20.3502567,9.22458419 C20.1995776,8.77689105 19.8995669,8.44617653 19.4824113,8.26822861 C19.2617448,8.17406578 19.0222901,8.12835789 18.7500499,8.12835789 C17.8081001,8.12835789 16.6213812,8.70966458 15.3649741,9.3250805 C14.8045499,9.59955676 13.9114043,10.0369485 13.3902779,10.1911649 C13.5134859,9.8737278 13.7566832,9.4309183 13.9277971,9.11905161 C14.2248885,8.57826394 14.5320851,8.01900997 14.68995,7.47341495 C15.0338246,6.2849335 14.4981767,5.64708332 14.145245,5.37024154 C14.144721,5.36986001 14.1388825,5.36535789 14.1383585,5.36490005 C13.8217304,5.12277796 13.4690981,5 13.0903421,5 C12.0067705,5 10.9147405,5.97917137 10.0372392,6.7659728 C9.67779522,7.08829354 9.39829423,7.33239962 9.20240401,7.47608569 C9.04603616,7.59077511 8.97073407,7.78871545 9.010481,7.98085647 L9.2070449,8.93278624 C9.23848314,9.08501869 9.33811244,9.21336706 9.47606647,9.27944892 C9.6143199,9.34568339 9.77480467,9.34194435 9.90976457,9.26952901 C10.3305131,9.04381292 10.767355,8.65197649 11.2735857,8.19802618 C11.6881963,7.8262585 12.1170289,7.44182385 12.5102316,7.17978563 C12.6760309,7.0692931 12.800212,7.00466108 12.8895864,6.96688911 C12.7776064,7.30874445 12.4728051,7.86349631 12.2952538,8.18688536 C11.9935964,8.73644834 11.6816092,9.30478284 11.5348225,9.84938587 C11.1890767,11.1320302 11.9200159,11.7340923 12.2475725,11.9316512 C12.4894224,12.0799156 12.7613633,12.1519495 13.0788147,12.1519495 C13.9143984,12.1519495 14.9619657,11.6388612 16.1750329,11.0447349 C16.7793958,10.7487401 17.4044181,10.4426728 17.9309339,10.2451139 C17.9717287,10.2297762 18.0116254,10.2152779 18.0506986,10.2015427 C17.6795776,10.6222994 17.2414632,11.1387452 17.1142131,11.742715 C17.0779843,11.9131849 17.1326269,12.090446 17.2577811,12.2094086 Z" id="Shape"></path>
                </g>
                <g id="018-drop-silhouette" transform="translate(88.000000, 197.000000)" fill-rule="nonzero" fill="#E5E5E5">
                    <path d="M16.388952,8.19031526 C14.3254246,4.75295568 12.0302714,1.77798164 10.8457227,0.310530049 C10.6872059,0.114006615 10.4493547,-7.65787562e-05 10.1982939,3.85669654e-08 C9.94715712,3.85669654e-08 9.70938192,0.114083233 9.5507892,0.310606666 C8.36631642,1.77851796 6.07116317,4.75448802 4.00763577,8.19215408 C1.34837976,12.6223976 0,16.2852419 0,19.0787095 C0,24.7538313 4.57489514,29.3708678 10.198218,29.3708678 C15.8215408,29.3708678 20.396436,24.7538313 20.396436,19.0787095 C20.3965119,16.2834031 19.0482839,12.6200224 16.388952,8.19031526 Z M11.1094856,25.8745951 C10.5197959,26.029156 9.9077034,26.107438 9.28982225,26.107438 C5.5169809,26.107438 2.44757231,23.1850362 2.44757231,19.5929222 C2.44757231,18.7257327 2.6708485,17.7125348 3.11101082,16.5816056 C3.18536104,16.3905234 3.3972103,16.2814987 3.60605247,16.3277282 C3.81474429,16.3738037 3.95487453,16.5602629 3.93337386,16.7630566 C3.90766327,17.0056077 3.89458244,17.2425342 3.89458244,17.4669787 C3.89458244,21.3760735 6.96790024,24.6495888 11.0434049,25.0810647 C11.2462329,25.1025614 11.4044808,25.2580469 11.4206439,25.4518258 C11.4368822,25.6456047 11.3062243,25.8229721 11.1094856,25.8745951 Z" id="Shape"></path>
                </g>
                <g id="019-paint-board-and-brush" transform="translate(84.000000, 250.000000)" fill-rule="nonzero" fill="#E5E5E5">
                    <path d="M31.9749079,0.853001005 C31.9138676,0.695933919 31.773203,0.585410918 31.6082884,0.564903871 C31.4438271,0.544473629 31.2808012,0.617285168 31.1843303,0.754766872 C30.6116242,1.57113169 29.8601033,1.8432533 28.9895235,2.15838594 C28.2875601,2.41261188 27.5616489,2.67528642 26.7771148,3.24794764 C25.6675865,4.057784 25.1600757,5.16170831 25.4131512,6.20802856 L25.3861061,6.24328225 C24.9227891,5.55994442 24.4186778,4.92791261 23.8866904,4.36354638 C21.3977117,1.72312962 17.9198499,0.135715179 14.3445352,0.0084485963 C14.187024,0.00284180058 14.0269443,0 13.8687533,0 C9.8765061,0 6.05529264,1.81445126 3.38500613,4.97798975 C0.728695427,8.12516868 -0.448672249,12.2220466 0.154931712,16.2181559 C0.205395723,16.5521827 0.268551281,16.8896657 0.342811944,17.2214651 C1.32459381,21.6148888 3.83215654,24.9570767 7.22261284,26.3907267 C8.05836636,26.7441852 8.90137219,26.9232955 9.72790923,26.9232955 C11.781447,26.9232955 13.5751101,25.8066214 14.6491324,23.859604 C15.0573771,23.1187389 15.3208023,22.3526049 15.4317778,21.5822465 C15.4971997,21.1275584 15.4524771,20.6732543 15.4091143,20.2330057 C15.3644673,19.7798537 15.3223132,19.3515866 15.3897748,18.920401 C15.5444153,17.931992 16.2234886,17.3418192 17.2064037,17.3418192 C17.4859954,17.3418192 17.7717063,17.3885937 18.0570395,17.4809906 C17.7229799,18.1038826 17.4195914,18.6986638 17.1545043,19.2499731 C16.5926767,20.4183371 16.2051312,21.3859318 16.0022931,22.125568 C15.8772662,22.5817154 15.5450952,23.7939354 16.3550879,24.3655213 C16.6123184,24.5470125 16.9384458,24.6110683 17.2778692,24.5468589 C17.5837506,24.4891012 18.5144641,24.3132936 21.1592164,21.2522136 C21.8690365,20.4307796 22.6339289,19.4801589 23.4334208,18.4262349 C25.4858254,17.7234653 27.0829962,15.9745291 27.505519,13.9648384 C27.6112819,13.4624542 27.6554001,12.9248162 27.6365895,12.366364 C28.4050324,11.1589828 29.0790443,10.0324009 29.7572866,8.82133301 C29.7702804,8.79798416 29.783123,8.77309921 29.7958145,8.74759981 C30.7802405,8.47348126 31.6280812,7.69459749 32.1257712,6.60541981 C32.8523623,5.01577802 32.7988009,2.97275382 31.9749079,0.853001005 Z M20.8979904,8.83735017 C20.5223615,9.43403321 19.8767069,9.79028926 19.1706392,9.79028926 C18.7872793,9.79028926 18.4122879,9.68179418 18.0863125,9.47644275 C17.6254836,9.1861128 17.3050074,8.73371784 17.1844204,8.20256232 C17.0638334,7.67140679 17.1569237,7.12494557 17.447273,6.66394116 C17.8229817,6.06725811 18.468716,5.71100207 19.1747836,5.71100207 C19.5582233,5.71100207 19.9331349,5.81949714 20.2590307,6.02492829 C20.7198596,6.31509881 21.040256,6.76749376 21.1609227,7.29872901 C21.2815098,7.82996425 21.1881803,8.37634575 20.8979904,8.83735017 Z M23.8726373,11.5616967 C24.8857155,10.0958608 25.9570687,8.63879367 26.9746899,7.34271694 C27.139646,7.48901593 27.3241055,7.6319305 27.523917,7.76807625 C27.8550042,7.99367821 28.2012867,8.16812937 28.5550103,8.2875838 C27.6958442,9.73042102 26.7720586,11.1598744 25.6535526,12.7777012 C23.8157721,15.4368507 21.9049127,17.9069345 20.2728966,19.7329797 C19.3613299,20.752919 18.563572,21.5404106 17.9488636,22.0281508 C18.1861154,21.2828106 18.6395489,20.2598714 19.2706275,19.0478666 C20.399081,16.880534 22.0334469,14.221923 23.8726373,11.5616967 Z M6.11756339,12.2378616 C5.73401541,12.2378616 5.35891807,12.1293665 5.03277074,11.9239353 C4.5718116,11.6336851 4.25140433,11.1814496 4.13070351,10.6501346 C4.01000269,10.1188994 4.1034382,9.57243817 4.39386957,9.11143375 C4.76944524,8.51483043 5.41536205,8.15857438 6.12154955,8.15857438 C6.50517725,8.15857438 6.88027459,8.26706945 7.20634219,8.47250061 C8.15791749,9.07181432 8.44460187,10.333498 7.84564198,11.2848428 C7.4696677,11.8816055 6.82367116,12.2378616 6.11756339,12.2378616 Z M4.3935886,16.4543288 C4.76921409,15.8575543 5.41486273,15.5012913 6.12092387,15.5012913 C6.50428025,15.5012913 6.87918843,15.6098682 7.2053203,15.8152237 C7.66614495,16.1054796 7.98645872,16.5578037 8.10712432,17.0890493 C8.22786963,17.6201355 8.13446138,18.1665277 7.84403505,18.6277005 C7.46856897,19.2242358 6.82284063,19.5805785 6.11685918,19.5805785 C5.73342311,19.5805785 5.35835552,19.4720813 5.03222365,19.2666461 C4.57139901,18.9763105 4.25116493,18.5240662 4.13057903,17.9928205 C4.01007283,17.4617344 4.10356077,16.9152625 4.3935886,16.4543288 Z M10.1046761,4.21636884 C10.4804332,3.6196858 11.1263879,3.26342975 11.8326167,3.26342975 C12.2160278,3.26342975 12.5911471,3.37192482 12.9172338,3.57727626 C13.8689446,4.17643054 14.1556457,5.43819396 13.556571,6.38969814 C13.1806544,6.98646089 12.5346998,7.34271694 11.8284709,7.34271694 C11.4449802,7.34271694 11.0698609,7.23422187 10.7437741,7.02879071 C10.2828677,6.7386202 9.9625214,6.28630496 9.84181351,5.75499 C9.72094616,5.22383448 9.81438715,4.67745297 10.1046761,4.21636884 Z" id="Shape"></path>
                </g>
                <g id="020-pipette-tool" transform="translate(84.000000, 299.000000)" fill-rule="nonzero" fill="#E5E5E5">
                    <path d="M24.0232073,1.27004835 C23.2039597,0.451086922 22.11448,0 20.9559098,0 C19.7971883,0 18.7079356,0.451086922 17.888688,1.27004835 L12.0107038,7.14605502 C11.7590874,7.06609546 11.4976335,7.02569961 11.2320931,7.02569961 C10.546713,7.02569961 9.9023482,7.29243322 9.41750436,7.7769564 C8.66310945,8.53116345 8.45651921,9.66640769 8.88740743,10.6337142 L1.69443472,17.82425 C1.51576821,18.0029297 1.41958646,18.2479525 1.42912139,18.5003887 L1.53461106,21.2932998 L0.134564895,23.5696132 C-0.08564668,23.9274266 -0.0312370161,24.389785 0.265935098,24.6870046 L0.604727957,25.0256791 C0.779913454,25.2007278 1.0124599,25.2915806 1.24712523,25.2915806 C1.41133798,25.2915806 1.57661017,25.2471754 1.72417463,25.1560956 L4.00484007,23.7473095 L6.78533282,23.8563178 C7.03831127,23.8663033 7.28394933,23.7700038 7.46299421,23.5911728 L14.6563453,16.4002587 C14.9828789,16.5451996 15.3415741,16.6214524 15.7002692,16.6214524 C16.3855737,16.6214524 17.0296358,16.3547188 17.5141769,15.8701956 C18.1905519,15.1940569 18.4330873,14.1862033 18.1452231,13.2782803 L24.0232073,7.40219796 C25.7143717,5.71162433 25.7143717,2.96069763 24.0232073,1.27004835 Z M9.02220946,18.7647211 L5.71100207,17.6742513 L10.8798072,12.2378616 L13.053719,14.5243811 L9.02220946,18.7647211 Z" id="Shape"></path>
                </g>
                <g id="022-underline-text" transform="translate(86.000000, 406.000000)" fill-rule="nonzero" fill="#E5E5E5">
                    <path d="M20.396436,0.656194536 C20.3923581,0.292614619 20.1066042,0 19.7550756,0 L0.641209278,0 C0.287113141,0 0,0.297069489 0,0.663541164 L0,4.31364281 C0,4.68003633 0.287113141,4.97718398 0.641209278,4.97718398 L2.09006586,4.97718398 C2.28497354,4.97718398 2.46923342,4.88574191 2.59096577,4.72818019 L3.68074213,3.31801844 L8.27160724,3.31801844 L8.27160724,20.5485959 C8.27160724,20.9150676 8.55872038,21.2122934 8.91281652,21.2122934 L11.4778047,21.2122934 C11.8318253,21.2122934 12.1190139,20.9150676 12.1190139,20.5485959 L12.1190139,3.3180966 L16.7045929,3.3180966 L17.7998065,4.72950883 C17.9214633,4.88613268 18.1054211,4.97726213 18.2997247,4.97726213 L19.7482792,4.97726213 C19.9187196,4.97726213 20.0823635,4.90692208 20.2029631,4.7818731 C20.3231096,4.6566678 20.3903191,4.48714827 20.3896395,4.3106729 L20.396436,0.656194536 Z" id="Shape"></path>
                    <path d="M16.9440739,22 L3.37300054,22 C2.61491394,22 2,22.5479244 2,23.2236536 C2,23.8993829 2.6148396,24.4475723 3.37300054,24.4475723 L16.9441482,24.4475723 C17.7022348,24.4475723 18.3171488,23.8995817 18.3171488,23.2236536 C18.3171488,22.5479244 17.7020861,22 16.9440739,22 Z" id="Shape"></path>
                </g>
                <g id="023-rubber-stamp" transform="translate(81.000000, 453.000000)" fill-rule="nonzero" fill="#E5E5E5">
                    <path d="M24.4467542,19.6283925 C24.2315276,19.412397 23.9395328,19.2908036 23.6350622,19.2908036 L18.4858506,19.2908036 L18.4858506,13.0299319 C18.4858506,12.2751769 18.8931126,11.5008348 19.3645904,10.6041311 C20.0071321,9.38281987 20.7350908,7.99851347 20.7350908,6.1508001 C20.7350908,2.75924173 17.9855177,0 14.6060319,0 C11.226546,0 8.47704952,2.75924173 8.47704952,6.1508001 C8.47704952,7.99628592 9.20386017,9.37682853 9.84540681,10.5954514 C10.3181093,11.4934608 10.7263662,12.2689551 10.7263662,13.029855 L10.7263662,19.2908036 L5.57715462,19.2908036 C5.27260749,19.2908036 4.98061269,19.4121666 4.76538611,19.6283157 L4,20.396436 L25.2122934,20.396436 L24.4467542,19.6283925 Z" id="Shape"></path>
                    <path d="M0,21 L1.63593264,25.1463104 C1.81508157,25.6003681 2.22863098,25.8951446 2.68647294,25.8951446 L28.3161858,25.8951446 C28.7740278,25.8951446 29.1875011,25.6003681 29.36665,25.1463104 L31.0025826,21 L0,21 Z" id="Shape"></path>
                </g>
                <g id="024-paint-roller" transform="translate(81.000000, 497.000000)" fill-rule="nonzero" fill="#E5E5E5">
                    <path d="M29.9627815,16.8655992 L28.3509227,15.2335444 L28.7835872,14.7954587 C28.9270182,14.6502306 29.0077221,14.4532624 29.0077221,14.2478517 C29.0077221,14.0425185 28.9270182,13.8454729 28.7835872,13.7001672 L15.4770884,0.226788311 C15.1783694,-0.0755961037 14.6939167,-0.0755961037 14.3952742,0.226788311 L11.9070708,2.74616789 C11.6083518,3.04862976 11.6083518,3.53907497 11.9070708,3.8416143 L25.2134931,17.3147609 C25.3569241,17.459989 25.5515314,17.5416266 25.7543237,17.5416266 C25.9571926,17.5416266 26.1518763,17.459989 26.2953073,17.3147609 L26.7278188,16.8767527 L27.2579399,17.4134386 L24.3694301,20.3381403 L16.374699,12.2433157 C16.0762094,11.9409313 15.5918333,11.9410087 15.2928847,12.2433157 L10.284579,17.3143736 L10.0141636,17.0404926 C9.71536811,16.7381857 9.23106844,16.7381857 8.93227291,17.0404926 L0.224058401,25.8580501 C0.080627366,26.0032782 0,26.2002463 0,26.4056571 C0,26.6110678 0.080627366,26.8080359 0.224058401,26.9532641 L2.38776338,29.1439245 C2.53716115,29.2951168 2.73291582,29.3708678 2.9286705,29.3708678 C3.12442518,29.3708678 3.32025635,29.2951168 3.46957762,29.1439245 L12.1781746,20.3263671 C12.3216056,20.181139 12.402233,19.9841708 12.402233,19.7788376 C12.402233,19.5734268 12.3216056,19.3763812 12.1781746,19.2311531 L11.9076063,18.9572721 L15.8340978,14.9816606 L23.828829,23.0766401 C23.97226,23.2218683 24.1667908,23.3035833 24.3696596,23.3035833 C24.572452,23.3035833 24.7669827,23.2218683 24.9104138,23.0766401 L29.9624755,17.961123 C30.2614241,17.6585063 30.2614241,17.1681385 29.9627815,16.8655992 Z" id="Shape"></path>
                </g>
                <text id="Tools" font-family="PTSans-Regular, PT Sans" font-size="20" font-weight="normal" fill="#FFFFFF">
                    <tspan x="53" y="33">Tools</tspan>
                </text>
                <circle id="Oval-4" fill="#FF796F" cx="32.5" cy="25.5" r="10.5"></circle>
            </g>
        </g>
    </g>
</svg>