<?xml version="1.0" encoding="UTF-8"?>
<svg width="136px" height="31px" viewBox="0 0 136 31" version="1.1" xmlns="http://www.w3.org/2000/svg" xmlns:xlink="http://www.w3.org/1999/xlink">
    <!-- Generator: Sketch 47.1 (45422) - http://www.bohemiancoding.com/sketch -->
    <title>Artboard 2</title>
    <desc>Created with Sketch.</desc>
    <defs>
        <linearGradient x1="40.4116517%" y1="19.5636009%" x2="60.592158%" y2="84.0250467%" id="linearGradient-1">
            <stop stop-color="#C3FFFF" offset="0%"></stop>
            <stop stop-color="#9EC9FF" offset="17.89%"></stop>
            <stop stop-color="#768FFF" offset="39%"></stop>
            <stop stop-color="#5762FF" offset="58.53%"></stop>
            <stop stop-color="#4141FF" offset="75.82%"></stop>
            <stop stop-color="#332DFF" offset="90.24%"></stop>
            <stop stop-color="#2E26FF" offset="100%"></stop>
        </linearGradient>
    </defs>
    <g id="Page-1" stroke="none" stroke-width="1" fill="none" fill-rule="evenodd">
        <g id="Artboard-2">
            <g id="Group" transform="translate(1.000000, 1.000000)">
                <path d="M22.4664384,28.9980032 C22.1784071,28.9980032 22.0177366,28.8762006 21.9325029,28.7733673 C21.8521677,28.6775226 21.7747715,28.5457362 21.6963956,28.370021 L12.0855566,3.36155197 L2.31110798,28.3550453 C2.12496533,28.9131408 1.75659882,28.9980032 1.55478099,28.9980032 L0.588798599,28.9980032 C0.191041143,28.9980032 0.0264518506,28.7404207 0.00587818901,28.4988123 L0,28.383 C0.000979698169,28.213275 0.0225330579,28.0924708 0.0617209846,27.9836472 L11.061772,0.403346301 C11.1146757,0.29452267 11.1744373,0.217647261 11.2557523,0.143766998 C11.3625394,0.0479223328 11.4987174,0 11.6633067,0 L12.4362886,0 C12.5989185,0 12.7350965,0.0469239508 12.8418836,0.141770234 C12.9290767,0.221640789 12.9888383,0.300512962 13.0290059,0.384377044 L23.9173714,27.9776569 C24.0065239,28.1743381 24.0251382,28.3869935 23.9653766,28.5946569 C23.895818,28.8482459 23.6969393,29 23.4343802,29 L22.4664384,28.9980032 Z" id="Fill-1" fill="url(#linearGradient-1)"></path>
                <path d="M48.9762797,28.9006849 C48.8764045,28.9006849 48.7765293,28.9006849 48.6766542,28.9006849 C48.576779,28.9006849 48.4769039,28.8013699 48.2771536,28.6027397 L37.4906367,15.7910959 C37.3907615,15.6917808 37.3907615,15.6917808 37.2908864,15.6917808 L31.4981273,15.6917808 L31.4981273,28.3047945 C31.4981273,28.7020548 31.1985019,28.9006849 30.8988764,28.9006849 L30.5992509,28.9006849 C30.1997503,28.9006849 30,28.6027397 30,28.3047945 L30,0.595890411 C30,0.297945205 30.1997503,0 30.5992509,0 L41.1860175,0 C42.2846442,0 43.3832709,0.198630137 44.3820225,0.695205479 C45.380774,1.09246575 46.1797753,1.68835616 46.9787765,2.48287671 C47.6779026,3.17808219 48.2771536,4.07191781 48.6766542,5.06506849 C49.0761548,6.05821918 49.2759051,7.15068493 49.2759051,8.24315068 C49.2759051,9.33561644 49.0761548,10.2294521 48.6766542,11.1232877 C48.2771536,12.0171233 47.6779026,12.8116438 46.9787765,13.5068493 C46.2796504,14.2020548 45.380774,14.6986301 44.2821473,15.0958904 C43.2833958,15.4931507 40.5867665,15.5924658 39.2883895,15.6917808 L49.8751561,28.1061644 C50.0749064,28.4041096 49.9750312,28.6027397 49.9750312,28.7020548 C49.8751561,28.9006849 49.6754057,29 49.3757803,29 L48.9762797,29 L48.9762797,28.9006849 Z M38.8888889,14.2020548 C40.0873908,14.2020548 42.8838951,14.0034247 43.6828964,13.7054795 C44.5817728,13.4075342 45.2808989,12.9109589 45.8801498,12.4143836 C46.4794007,11.8184932 46.9787765,11.2226027 47.278402,10.5273973 C47.5780275,9.83219178 47.7777778,9.03767123 47.7777778,8.24315068 C47.7777778,7.44863014 47.5780275,6.65410959 47.278402,5.76027397 C46.9787765,4.96575342 46.5792759,4.17123288 45.8801498,3.57534247 C45.2808989,2.97945205 44.4818976,2.38356164 43.5830212,1.98630137 C42.6841448,1.5890411 41.6853933,1.39041096 40.5867665,1.39041096 L31.3982522,1.39041096 L31.3982522,14.2020548 L38.8888889,14.2020548 Z" id="Shape" fill="#FFFFFF" fill-rule="nonzero"></path>
                <path d="M59.9,29.1 C59.5,29.1 59.3,28.8 59.3,28.5 L59.3,1.5 L50.6,1.5 C50.2,1.5 50,1.2 50,0.9 L50,0.6 C50,0.3 50.2,0 50.6,0 L69.4,0 C69.7,0 70,0.2 70,0.6 L70,0.9 C70,1.2 69.8,1.5 69.4,1.5 L60.7,1.5 L60.7,28.5 C60.7,28.9 60.4,29.1 60.1,29.1 L59.9,29.1 Z" id="Shape" fill="#FFFFFF" fill-rule="nonzero"></path>
                <path d="M80.6,29.1 C80.2,29.1 80,28.8 80,28.5 L80,0.6 C80,0.3 80.2,0 80.6,0 L91.5,0 C92.9,0 94.2,0.2 95.1,0.7 C96.1,1.2 96.9,1.8 97.5,2.6 C98.1,3.4 98.5,4.2 98.8,5.2 C99,6.1 99.2,7.1 99.2,8 C99.2,8.6 99.2,9.3 99.1,9.9 C99,10.5 98.8,11.2 98.6,11.8 C98.3,12.4 98,12.9 97.5,13.4 C97,13.9 96.4,14.4 95.7,14.7 C95,15.1 94.1,15.3 93,15.5 C92.1,15.7 91,15.7 89.9,15.7 L89.4,15.7 L81.7,15.7 L81.7,28.3 C81.7,28.7 81.4,28.9 81.1,28.9 L80.6,28.9 L80.6,29.1 Z M90.4,14.3 C91.5,14.3 92.4,14.2 93.2,14 C94,13.8 94.6,13.6 95.2,13.2 C95.7,12.9 96.1,12.5 96.5,12.1 C96.8,11.7 97.1,11.3 97.2,10.8 C97.4,10.3 97.5,9.9 97.6,9.4 C97.7,8.9 97.7,8.4 97.7,7.9 C97.7,7.5 97.7,7 97.6,6.5 C97.5,6 97.4,5.5 97.2,5 C97,4.5 96.8,4 96.5,3.6 C96.2,3.2 95.8,2.8 95.4,2.4 C95,2.1 94.4,1.8 93.8,1.6 C93.2,1.4 92.4,1.3 91.6,1.3 L81.6,1.3 L81.6,14.2 L90.4,14.3 Z" id="Shape" fill="#FFFFFF" fill-rule="nonzero"></path>
                <path d="M104.8,29.1 C104.4,29.1 104.2,28.8051282 104.2,28.5102564 L104.2,6.68974359 C104.2,6.39487179 104.4,6.1 104.8,6.1 L105.1,6.1 C105.4,6.1 105.7,6.2965812 105.7,6.68974359 L105.7,28.5102564 C105.7,28.9034188 105.4,29.1 105.1,29.1 L104.8,29.1 Z" id="Shape" fill="#FFFFFF" fill-rule="nonzero"></path>
                <path d="M104.8,3.2 C104.4,3.2 104.2,2.9 104.2,2.6 L104.2,0.5 C104.2,0.2 104.4,0 104.8,0 L105.1,0 C105.4,0 105.7,0.2 105.7,0.6 L105.7,2.6 C105.7,3 105.4,3.2 105.1,3.2 L104.8,3.2 Z" id="Shape" fill="#FFFFFF" fill-rule="nonzero"></path>
                <path d="M75.4,29.1 C75,29.1 74.8,28.8051282 74.8,28.5102564 L74.8,6.68974359 C74.8,6.39487179 75,6.1 75.4,6.1 L75.7,6.1 C76,6.1 76.3,6.2965812 76.3,6.68974359 L76.3,28.5102564 C76.3,28.9034188 76,29.1 75.7,29.1 L75.4,29.1 Z" id="Shape" fill="#FFFFFF" fill-rule="nonzero"></path>
                <path d="M75.4,3.2 C75,3.2 74.8,2.9 74.8,2.6 L74.8,0.5 C74.8,0.2 75,0 75.4,0 L75.7,0 C76,0 76.3,0.2 76.3,0.6 L76.3,2.6 C76.3,3 76,3.2 75.7,3.2 L75.4,3.2 Z" id="Shape" fill="#FFFFFF" fill-rule="nonzero"></path>
                <path d="M121.9,29.4 C120.5,29.4 119.2,29.2 118,28.8 C116.8,28.4 115.7,27.9 114.8,27.2 C113.9,26.5 113,25.7 112.3,24.8 C111.6,23.9 111,22.9 110.5,21.8 C110,20.7 109.7,19.5 109.4,18.3 C109.2,17.1 109,15.8 109,14.6 C109,12.5 109.3,10.6 109.9,8.8 C110.5,7 111.3,5.5 112.4,4.2 C113.5,2.9 114.8,1.8 116.4,1.1 C118,0.4 119.8,0 121.8,0 C123.3,0 124.7,0.2 125.9,0.5 C127.1,0.8 128.2,1.3 129.1,2 C130,2.6 130.8,3.4 131.5,4.4 C132.1,5.3 132.7,6.4 133.2,7.5 C133.3,7.7 133.4,7.9 133.4,8.1 C133.5,8.4 133.4,8.6 133.3,8.7 C133.2,8.8 133.1,8.9 132.8,8.9 L132.6,8.9 C132.3,8.9 132.1,8.8 132.1,8.7 C132.1,8.6 132,8.5 131.9,8.3 C131.6,7.5 131.2,6.7 130.7,5.9 C130.2,5.1 129.6,4.4 128.9,3.7 C128.2,3.1 127.2,2.5 126.1,2.1 C125,1.7 123.6,1.5 121.9,1.5 C120.3,1.5 118.8,1.8 117.5,2.4 C116.2,3 114.9,3.9 113.9,5 C112.9,6.1 112.1,7.5 111.5,9.1 C110.9,10.7 110.6,12.5 110.6,14.5 C110.6,16.4 110.9,18.2 111.4,19.8 C111.9,21.4 112.6,22.9 113.6,24.1 C114.6,25.3 115.7,26.3 117.1,27 C118.5,27.7 120.1,28.1 121.9,28.1 C123.4,28.1 124.7,27.9 125.9,27.4 C127.1,26.9 128.1,26.3 128.9,25.5 C129.7,24.7 130.5,23.9 131.1,22.9 C131.7,21.9 132.2,20.9 132.5,19.9 C132.6,19.7 132.6,19.6 132.7,19.5 C132.8,19.4 132.9,19.2 133.2,19.2 L133.4,19.2 C133.7,19.2 133.8,19.3 133.9,19.4 C134,19.5 134,19.6 134,19.9 L133.9,20.2 C133.4,21.7 132.8,23 132.1,24.1 C131.4,25.2 130.5,26.2 129.5,27 C128.5,27.8 127.3,28.4 126.1,28.9 C124.8,29.1 123.4,29.4 121.9,29.4 Z" id="Shape" fill="#FFFFFF" fill-rule="nonzero"></path>
            </g>
        </g>
    </g>
</svg>